<?xml version="1.0" encoding="utf-8"?>
<!-- Generator: Adobe Illustrator 27.7.0, SVG Export Plug-In . SVG Version: 6.00 Build 0)  -->
<svg version="1.1" id="Capa_1" focusable="false" xmlns="http://www.w3.org/2000/svg" xmlns:xlink="http://www.w3.org/1999/xlink"
	 x="0px" y="0px" viewBox="0 0 448 512" style="enable-background:new 0 0 448 512;" xml:space="preserve">
<style type="text/css">
	.st0{fill:#2C4E78;}
</style>
<g>
	<polygon class="st0" points="119.6,137.3 300,373.1 327.6,373.1 149.3,137.3 	"/>
	<path class="st0" d="M400,32H48C21.5,32,0,53.5,0,80v352c0,26.5,21.5,48,48,48h352c26.5,0,48-21.5,48-48V80
		C448,53.5,426.5,32,400,32z M286.3,403l-78.6-102.8l-90,102.8H67.8l116.5-133.2L61.4,109h102.9l71.1,93.9l82.1-93.9h49.9
		l-109,124.5L386.6,403H286.3z"/>
</g>
</svg>
