<?xml version="1.0" encoding="utf-8"?>
<!-- Generator: Adobe Illustrator 25.2.1, SVG Export Plug-In . SVG Version: 6.00 Build 0)  -->
<svg version="1.1" id="Capa_1" xmlns="http://www.w3.org/2000/svg" xmlns:xlink="http://www.w3.org/1999/xlink" x="0px" y="0px"
	 viewBox="0 0 180 79" style="enable-background:new 0 0 180 79;" xml:space="preserve">
<style type="text/css">
	.st0{fill:#F3F4F5;}
	.st1{fill:#B4CAE3;}
	.st2{fill:#0077BE;stroke:#000000;stroke-width:0.0348;stroke-linecap:round;stroke-linejoin:round;stroke-miterlimit:10;}
	.st3{fill:#E82C2E;stroke:#000000;stroke-width:0.0348;stroke-linecap:round;stroke-linejoin:round;stroke-miterlimit:10;}
	.st4{fill:#E82C2E;}
	.st5{fill:#FFD600;}
</style>
<path class="st0" d="M140.76,76.99H39.24c-20.71,0-37.49-16.79-37.49-37.49v0c0-20.71,16.79-37.49,37.49-37.49h101.52
	c20.71,0,37.49,16.79,37.49,37.49v0C178.25,60.21,161.47,76.99,140.76,76.99z"/>
<path class="st1" d="M140.76,78.74H39.24C17.6,78.74,0,61.14,0,39.5S17.6,0.26,39.24,0.26h101.52C162.4,0.26,180,17.86,180,39.5
	S162.4,78.74,140.76,78.74z M39.24,3.76C19.53,3.76,3.5,19.79,3.5,39.5c0,19.71,16.03,35.74,35.74,35.74h101.52
	c19.71,0,35.74-16.03,35.74-35.74c0-19.71-16.03-35.74-35.74-35.74H39.24z"/>
<g>
	<g>
		<path class="st2" d="M47.71,59.63c0.68,0,1.21,0.14,1.59,0.42c0.38,0.28,0.57,0.66,0.57,1.16c-0.61-0.17-1.23-0.25-1.86-0.25
			c-1.08,0-1.96,0.29-2.63,0.86c-0.67,0.57-1.01,1.32-1.01,2.23c0,0.8,0.27,1.47,0.81,1.99c0.54,0.53,1.22,0.79,2.03,0.79
			c0.97,0,1.85-0.29,2.66-0.88v0.8h5.46v-5.89c0-1.64-0.44-2.85-1.33-3.65c-0.88-0.8-2.26-1.19-4.12-1.19
			c-1.96,0-3.71,0.42-5.25,1.26v3.2C45.68,59.92,46.71,59.63,47.71,59.63L47.71,59.63L47.71,59.63z M49.02,64.69
			c-0.33,0-0.6-0.1-0.82-0.29c-0.22-0.19-0.32-0.44-0.32-0.72c0-0.28,0.1-0.5,0.3-0.67c0.2-0.17,0.47-0.26,0.8-0.26
			c0.27,0,0.56,0.06,0.89,0.17v1.48C49.63,64.59,49.35,64.69,49.02,64.69L49.02,64.69L49.02,64.69z M62.8,56.11h-5.46v10.64h5.46
			v-3.97c0-1.25,0.27-2.1,0.81-2.56c0.61,0.65,1.35,0.97,2.21,0.97c0.75,0,1.37-0.24,1.83-0.72c0.47-0.48,0.7-1.11,0.7-1.89
			c0-0.74-0.24-1.35-0.72-1.84c-0.48-0.48-1.08-0.72-1.82-0.72c-1.32,0-2.33,0.81-3.02,2.42V56.11L62.8,56.11z"/>
		<path class="st2" d="M76.14,56.11v-3.04l-7.69,6.03h2.23v3.33c0,1.37,0.45,2.45,1.35,3.24c0.9,0.78,2,1.18,3.32,1.18
			c1.23,0,2.28-0.28,3.14-0.85v-4.22c-0.37,0.51-0.8,0.76-1.31,0.76c-0.69,0-1.03-0.39-1.03-1.16v-2.28h2.28v-2.99H76.14
			L76.14,56.11z M88.06,63.85c-0.61,0-1.15-0.15-1.62-0.46c-0.47-0.31-0.81-0.73-1.01-1.27h5.58c0-1.04-0.12-1.93-0.37-2.65
			c-0.25-0.72-0.63-1.36-1.16-1.91c-0.52-0.55-1.15-0.96-1.86-1.25c-0.72-0.28-1.5-0.42-2.34-0.42c-1.65,0-2.99,0.5-4.03,1.51
			c-1.03,1.01-1.55,2.31-1.55,3.91c0,1.68,0.56,3.03,1.69,4.06c1.13,1.03,2.61,1.54,4.46,1.54c2.25,0,3.97-0.78,5.16-2.35v-1.87
			C90.27,63.46,89.28,63.85,88.06,63.85L88.06,63.85L88.06,63.85z M85.48,58.99c0.25-0.29,0.54-0.43,0.88-0.43
			c0.38,0,0.69,0.15,0.93,0.45c0.24,0.3,0.37,0.71,0.39,1.24h-2.57C85.11,59.7,85.23,59.28,85.48,58.99L85.48,58.99z M92.66,56.11
			v10.64h5.46v-7.19c0.34-0.24,0.67-0.36,1-0.36c0.31,0,0.56,0.11,0.74,0.32c0.18,0.21,0.27,0.5,0.27,0.88v6.35h5.16v-7.2
			c0.33-0.23,0.66-0.34,1-0.34c0.3,0,0.54,0.1,0.73,0.31c0.19,0.21,0.28,0.5,0.28,0.88v6.35h5.16v-6.68c0-1.28-0.33-2.28-1-2.99
			c-0.67-0.71-1.58-1.06-2.73-1.06c-0.77,0-1.45,0.15-2.06,0.44c-0.61,0.3-1.22,0.76-1.82,1.4c-0.74-1.23-1.89-1.84-3.44-1.84
			c-1.3,0-2.39,0.47-3.28,1.42v-1.33H92.66L92.66,56.11z M117.57,59.63c0.68,0,1.21,0.14,1.59,0.42c0.38,0.28,0.57,0.66,0.57,1.16
			c-0.61-0.17-1.23-0.25-1.86-0.25c-1.08,0-1.96,0.29-2.63,0.86c-0.67,0.57-1.01,1.32-1.01,2.23c0,0.8,0.27,1.47,0.81,1.99
			c0.54,0.53,1.22,0.79,2.03,0.79c0.97,0,1.85-0.29,2.66-0.88v0.8h5.46v-5.89c0-1.64-0.44-2.85-1.33-3.65
			c-0.88-0.8-2.26-1.19-4.12-1.19c-1.96,0-3.71,0.42-5.25,1.26v3.2C115.54,59.92,116.57,59.63,117.57,59.63L117.57,59.63
			L117.57,59.63z M118.88,64.69c-0.33,0-0.6-0.1-0.82-0.29c-0.22-0.19-0.32-0.44-0.32-0.72c0-0.28,0.1-0.5,0.3-0.67
			c0.2-0.17,0.46-0.26,0.8-0.26c0.27,0,0.56,0.06,0.89,0.17v1.48C119.5,64.59,119.22,64.69,118.88,64.69L118.88,64.69L118.88,64.69z
			"/>
		<path class="st2" d="M133.3,56.11v-3.04l-7.69,6.03h2.23v3.33c0,1.37,0.45,2.45,1.35,3.24c0.9,0.78,2,1.18,3.32,1.18
			c1.23,0,2.28-0.28,3.14-0.85v-4.22c-0.37,0.51-0.8,0.76-1.31,0.76c-0.69,0-1.03-0.39-1.03-1.16v-2.28h2.28v-2.99H133.3
			L133.3,56.11z"/>
	</g>
	<g>
		<path class="st3" d="M45.26,70.58c0.18,0,0.32,0.04,0.42,0.11c0.1,0.07,0.15,0.17,0.15,0.3c-0.16-0.04-0.32-0.07-0.49-0.07
			c-0.28,0-0.52,0.08-0.69,0.23c-0.18,0.15-0.26,0.35-0.26,0.59c0,0.21,0.07,0.38,0.21,0.52c0.14,0.14,0.32,0.21,0.53,0.21
			c0.25,0,0.49-0.08,0.7-0.23v0.21h1.43v-1.55c0-0.43-0.12-0.75-0.35-0.96c-0.23-0.21-0.59-0.31-1.08-0.31
			c-0.51,0-0.97,0.11-1.38,0.33v0.84C44.73,70.66,45,70.58,45.26,70.58L45.26,70.58L45.26,70.58z M45.6,71.91
			c-0.09,0-0.16-0.03-0.21-0.08c-0.06-0.05-0.08-0.11-0.08-0.19c0-0.07,0.03-0.13,0.08-0.18c0.05-0.04,0.12-0.07,0.21-0.07
			c0.07,0,0.15,0.02,0.23,0.04v0.39C45.76,71.88,45.69,71.91,45.6,71.91L45.6,71.91L45.6,71.91z M49.22,69.66h-1.43v2.79h1.43v-1.04
			c0-0.33,0.07-0.55,0.21-0.67c0.16,0.17,0.35,0.26,0.58,0.26c0.2,0,0.36-0.06,0.48-0.19c0.12-0.13,0.18-0.29,0.18-0.5
			c0-0.19-0.06-0.36-0.19-0.48c-0.13-0.13-0.28-0.19-0.48-0.19c-0.35,0-0.61,0.21-0.79,0.64V69.66L49.22,69.66z"/>
		<path class="st3" d="M52.72,69.66v-0.8l-2.02,1.58h0.58v0.87c0,0.36,0.12,0.64,0.35,0.85s0.53,0.31,0.87,0.31
			c0.32,0,0.6-0.07,0.82-0.22v-1.11c-0.1,0.13-0.21,0.2-0.34,0.2c-0.18,0-0.27-0.1-0.27-0.3v-0.6h0.6v-0.78H52.72L52.72,69.66z"/>
		<path class="st3" d="M55.85,71.69c-0.16,0-0.3-0.04-0.42-0.12c-0.12-0.08-0.21-0.19-0.26-0.33h1.46c0-0.27-0.03-0.51-0.1-0.7
			c-0.06-0.19-0.17-0.36-0.3-0.5c-0.14-0.14-0.3-0.25-0.49-0.33c-0.19-0.07-0.39-0.11-0.61-0.11c-0.43,0-0.79,0.13-1.06,0.4
			c-0.27,0.26-0.41,0.61-0.41,1.03c0,0.44,0.15,0.8,0.44,1.07c0.3,0.27,0.69,0.4,1.17,0.4c0.59,0,1.04-0.21,1.35-0.62v-0.49
			C56.43,71.59,56.17,71.69,55.85,71.69L55.85,71.69L55.85,71.69z M55.17,70.41c0.07-0.08,0.14-0.11,0.23-0.11
			c0.1,0,0.18,0.04,0.24,0.12c0.06,0.08,0.1,0.19,0.1,0.33h-0.68C55.08,70.6,55.11,70.49,55.17,70.41L55.17,70.41z"/>
		<polygon class="st3" points="61.88,69.66 60.49,69.66 60.17,70.4 59.83,69.66 58.4,69.66 59.39,71.87 58.81,73.23 60.37,73.23 
			61.88,69.66 		"/>
		<path class="st3" d="M63.74,69.66v2.79h1.43v-1.89c0.09-0.06,0.18-0.09,0.26-0.09c0.08,0,0.15,0.03,0.19,0.08
			c0.05,0.06,0.07,0.13,0.07,0.23v1.67h1.36v-1.89c0.09-0.06,0.17-0.09,0.26-0.09c0.08,0,0.14,0.03,0.19,0.08
			c0.05,0.05,0.07,0.13,0.07,0.23v1.67h1.35V70.7c0-0.34-0.09-0.6-0.26-0.78c-0.17-0.19-0.41-0.28-0.72-0.28
			c-0.2,0-0.38,0.04-0.54,0.12c-0.16,0.08-0.32,0.2-0.48,0.37c-0.19-0.32-0.5-0.48-0.9-0.48c-0.34,0-0.63,0.12-0.86,0.37v-0.35
			H63.74L63.74,69.66z"/>
		<path class="st3" d="M70.28,70.58c0.18,0,0.32,0.04,0.42,0.11c0.1,0.07,0.15,0.17,0.15,0.3c-0.16-0.04-0.32-0.07-0.49-0.07
			c-0.28,0-0.52,0.08-0.69,0.23c-0.18,0.15-0.26,0.35-0.26,0.59c0,0.21,0.07,0.38,0.21,0.52c0.14,0.14,0.32,0.21,0.53,0.21
			c0.25,0,0.49-0.08,0.7-0.23v0.21h1.43v-1.55c0-0.43-0.12-0.75-0.35-0.96c-0.23-0.21-0.59-0.31-1.08-0.31
			c-0.51,0-0.97,0.11-1.38,0.33v0.84C69.75,70.66,70.02,70.58,70.28,70.58L70.28,70.58L70.28,70.58z M70.62,71.91
			c-0.09,0-0.16-0.03-0.21-0.08c-0.06-0.05-0.08-0.11-0.08-0.19c0-0.07,0.03-0.13,0.08-0.18c0.05-0.04,0.12-0.07,0.21-0.07
			c0.07,0,0.15,0.02,0.23,0.04v0.39C70.79,71.88,70.71,71.91,70.62,71.91L70.62,71.91L70.62,71.91z"/>
		<path class="st3" d="M74.4,69.66v-0.8l-2.02,1.58h0.58v0.87c0,0.36,0.12,0.64,0.35,0.85c0.24,0.21,0.53,0.31,0.87,0.31
			c0.32,0,0.6-0.07,0.82-0.22v-1.11c-0.1,0.13-0.21,0.2-0.34,0.2c-0.18,0-0.27-0.1-0.27-0.3v-0.6H75v-0.78H74.4L74.4,69.66z"/>
		<path class="st3" d="M77.53,71.69c-0.16,0-0.3-0.04-0.42-0.12c-0.12-0.08-0.21-0.19-0.26-0.33h1.46c0-0.27-0.03-0.51-0.1-0.7
			c-0.06-0.19-0.17-0.36-0.3-0.5c-0.14-0.14-0.3-0.25-0.49-0.33c-0.19-0.07-0.39-0.11-0.61-0.11c-0.43,0-0.79,0.13-1.06,0.4
			c-0.27,0.26-0.41,0.61-0.41,1.03c0,0.44,0.15,0.8,0.44,1.07c0.3,0.27,0.69,0.4,1.17,0.4c0.59,0,1.04-0.21,1.36-0.62v-0.49
			C78.11,71.59,77.85,71.69,77.53,71.69L77.53,71.69L77.53,71.69z M76.85,70.41c0.06-0.08,0.14-0.11,0.23-0.11
			c0.1,0,0.18,0.04,0.24,0.12c0.06,0.08,0.1,0.19,0.1,0.33h-0.68C76.76,70.6,76.79,70.49,76.85,70.41L76.85,70.41z"/>
		<path class="st3" d="M78.74,69.66v2.79h1.43v-1.89c0.09-0.06,0.18-0.09,0.26-0.09c0.08,0,0.15,0.03,0.19,0.08
			c0.05,0.06,0.07,0.13,0.07,0.23v1.67h1.35v-1.89c0.09-0.06,0.17-0.09,0.26-0.09c0.08,0,0.14,0.03,0.19,0.08
			c0.05,0.05,0.07,0.13,0.07,0.23v1.67h1.35V70.7c0-0.34-0.09-0.6-0.26-0.78c-0.17-0.19-0.41-0.28-0.72-0.28
			c-0.2,0-0.38,0.04-0.54,0.12c-0.16,0.08-0.32,0.2-0.48,0.37c-0.19-0.32-0.5-0.48-0.9-0.48c-0.34,0-0.63,0.12-0.86,0.37v-0.35
			H78.74L78.74,69.66z"/>
		<path class="st3" d="M85.28,70.58c0.18,0,0.32,0.04,0.42,0.11c0.1,0.07,0.15,0.17,0.15,0.3c-0.16-0.04-0.32-0.07-0.49-0.07
			c-0.28,0-0.52,0.08-0.69,0.23s-0.26,0.35-0.26,0.59c0,0.21,0.07,0.38,0.21,0.52c0.14,0.14,0.32,0.21,0.53,0.21
			c0.25,0,0.49-0.08,0.7-0.23v0.21h1.43v-1.55c0-0.43-0.12-0.75-0.35-0.96c-0.23-0.21-0.59-0.31-1.08-0.31
			c-0.51,0-0.97,0.11-1.38,0.33v0.84C84.75,70.66,85.02,70.58,85.28,70.58L85.28,70.58L85.28,70.58z M85.62,71.91
			c-0.09,0-0.16-0.03-0.21-0.08c-0.06-0.05-0.08-0.11-0.08-0.19c0-0.07,0.03-0.13,0.08-0.18c0.05-0.04,0.12-0.07,0.21-0.07
			c0.07,0,0.15,0.02,0.23,0.04v0.39C85.78,71.88,85.71,71.91,85.62,71.91L85.62,71.91L85.62,71.91z M85.9,69.48l0.79-0.62h-0.95
			l-0.32,0.62H85.9L85.9,69.48z"/>
		<path class="st3" d="M89.45,69.66v-0.8l-2.02,1.58h0.58v0.87c0,0.36,0.12,0.64,0.35,0.85c0.24,0.21,0.53,0.31,0.87,0.31
			c0.32,0,0.6-0.07,0.82-0.22v-1.11c-0.1,0.13-0.21,0.2-0.34,0.2c-0.18,0-0.27-0.1-0.27-0.3v-0.6h0.6v-0.78H89.45L89.45,69.66z"/>
		<path class="st3" d="M91.23,69.82c-0.3,0-0.55-0.05-0.74-0.16v2.79h1.43v-2.79C91.74,69.76,91.51,69.82,91.23,69.82L91.23,69.82
			L91.23,69.82z"/>
		<path class="st3" d="M94.02,69.6c-0.49,0-0.88,0.14-1.18,0.42c-0.29,0.28-0.44,0.63-0.44,1.04c0,0.41,0.15,0.76,0.46,1.03
			c0.31,0.27,0.74,0.4,1.3,0.4c0.32,0,0.62-0.04,0.9-0.12v-1.21c-0.2,0.1-0.44,0.15-0.72,0.15c-0.33,0-0.5-0.09-0.5-0.27
			c0-0.08,0.04-0.14,0.11-0.18c0.08-0.04,0.18-0.07,0.32-0.07c0.24,0,0.5,0.07,0.78,0.2v-1.22C94.7,69.65,94.36,69.6,94.02,69.6
			L94.02,69.6L94.02,69.6z"/>
		<path class="st3" d="M96.42,70.58c0.18,0,0.32,0.04,0.42,0.11c0.1,0.07,0.15,0.17,0.15,0.3c-0.16-0.04-0.32-0.07-0.49-0.07
			c-0.28,0-0.51,0.08-0.69,0.23c-0.18,0.15-0.26,0.35-0.26,0.59c0,0.21,0.07,0.38,0.21,0.52c0.14,0.14,0.32,0.21,0.53,0.21
			c0.25,0,0.49-0.08,0.7-0.23v0.21h1.43v-1.55c0-0.43-0.12-0.75-0.35-0.96c-0.23-0.21-0.59-0.31-1.08-0.31
			c-0.51,0-0.97,0.11-1.38,0.33v0.84C95.88,70.66,96.15,70.58,96.42,70.58L96.42,70.58L96.42,70.58z M96.76,71.91
			c-0.09,0-0.16-0.03-0.21-0.08c-0.06-0.05-0.09-0.11-0.09-0.19c0-0.07,0.03-0.13,0.08-0.18c0.05-0.04,0.12-0.07,0.21-0.07
			c0.07,0,0.15,0.02,0.23,0.04v0.39C96.92,71.88,96.85,71.91,96.76,71.91L96.76,71.91L96.76,71.91z"/>
		<path class="st3" d="M100.24,72.49c0.37,0,0.67-0.08,0.9-0.25c0.23-0.17,0.35-0.39,0.35-0.68c0-0.16-0.04-0.3-0.11-0.42
			c-0.08-0.12-0.18-0.22-0.3-0.28c-0.13-0.06-0.29-0.12-0.48-0.16c-0.19-0.05-0.31-0.09-0.35-0.13c-0.04-0.04-0.07-0.09-0.07-0.15
			c0-0.05,0.02-0.09,0.06-0.12c0.04-0.03,0.1-0.05,0.17-0.05c0.21,0,0.43,0.1,0.65,0.3l0.34-0.71c-0.35-0.16-0.76-0.24-1.25-0.24
			c-0.43,0-0.77,0.08-1.01,0.23c-0.24,0.15-0.36,0.37-0.36,0.65c0,0.14,0.04,0.28,0.12,0.4C99,71,99.1,71.09,99.21,71.15
			c0.12,0.06,0.27,0.12,0.45,0.17c0.18,0.05,0.3,0.1,0.34,0.14c0.04,0.04,0.06,0.09,0.06,0.15c0,0.06-0.02,0.11-0.08,0.14
			c-0.05,0.04-0.12,0.06-0.2,0.06c-0.13,0-0.27-0.04-0.41-0.11c-0.14-0.08-0.26-0.18-0.36-0.31l-0.32,0.78
			C99.23,72.39,99.74,72.49,100.24,72.49L100.24,72.49L100.24,72.49z"/>
		<path class="st3" d="M103.46,69.66v3.58h1.43v-0.88c0.19,0.08,0.39,0.12,0.58,0.12c0.39,0,0.71-0.14,0.96-0.41
			c0.25-0.28,0.38-0.63,0.38-1.05c0-0.39-0.12-0.72-0.35-0.98c-0.23-0.26-0.53-0.39-0.88-0.39c-0.24,0-0.47,0.08-0.69,0.24v-0.21
			H103.46L103.46,69.66z M105.15,70.75c0.08,0,0.15,0.03,0.21,0.1c0.05,0.07,0.08,0.15,0.08,0.26c0,0.11-0.03,0.19-0.08,0.25
			c-0.05,0.06-0.12,0.1-0.21,0.1c-0.08,0-0.17-0.02-0.25-0.07v-0.5C104.97,70.8,105.05,70.75,105.15,70.75L105.15,70.75
			L105.15,70.75z"/>
		<path class="st3" d="M108.09,70.58c0.18,0,0.32,0.04,0.42,0.11c0.1,0.07,0.15,0.17,0.15,0.3c-0.16-0.04-0.32-0.07-0.49-0.07
			c-0.28,0-0.52,0.08-0.69,0.23c-0.18,0.15-0.26,0.35-0.26,0.59c0,0.21,0.07,0.38,0.21,0.52c0.14,0.14,0.32,0.21,0.53,0.21
			c0.25,0,0.49-0.08,0.7-0.23v0.21h1.43v-1.55c0-0.43-0.12-0.75-0.35-0.96c-0.23-0.21-0.59-0.31-1.08-0.31
			c-0.51,0-0.97,0.11-1.38,0.33v0.84C107.56,70.66,107.83,70.58,108.09,70.58L108.09,70.58L108.09,70.58z M108.44,71.91
			c-0.09,0-0.16-0.03-0.21-0.08c-0.06-0.05-0.08-0.11-0.08-0.19c0-0.07,0.03-0.13,0.08-0.18c0.05-0.04,0.12-0.07,0.21-0.07
			c0.07,0,0.15,0.02,0.23,0.04v0.39C108.6,71.88,108.53,71.91,108.44,71.91L108.44,71.91L108.44,71.91z"/>
		<path class="st3" d="M114.77,70.58c0.18,0,0.32,0.04,0.42,0.11c0.1,0.07,0.15,0.17,0.15,0.3c-0.16-0.04-0.32-0.07-0.49-0.07
			c-0.28,0-0.52,0.08-0.69,0.23c-0.18,0.15-0.26,0.35-0.26,0.59c0,0.21,0.07,0.38,0.21,0.52c0.14,0.14,0.32,0.21,0.53,0.21
			c0.25,0,0.49-0.08,0.7-0.23v0.21h1.43v-1.55c0-0.43-0.12-0.75-0.35-0.96c-0.23-0.21-0.59-0.31-1.08-0.31
			c-0.51,0-0.97,0.11-1.38,0.33v0.84C114.24,70.66,114.51,70.58,114.77,70.58L114.77,70.58L114.77,70.58z M115.12,71.91
			c-0.09,0-0.16-0.03-0.21-0.08c-0.06-0.05-0.08-0.11-0.08-0.19c0-0.07,0.03-0.13,0.08-0.18c0.05-0.04,0.12-0.07,0.21-0.07
			c0.07,0,0.15,0.02,0.23,0.04v0.39C115.28,71.88,115.2,71.91,115.12,71.91L115.12,71.91L115.12,71.91z"/>
		<path class="st3" d="M112.06,69.66h-1.43v2.79h1.43v-1.04c0-0.33,0.07-0.55,0.21-0.67c0.16,0.17,0.35,0.26,0.58,0.26
			c0.2,0,0.36-0.06,0.48-0.19c0.12-0.13,0.18-0.29,0.18-0.5c0-0.19-0.06-0.36-0.19-0.48c-0.13-0.13-0.28-0.19-0.48-0.19
			c-0.35,0-0.61,0.21-0.79,0.64V69.66L112.06,69.66z"/>
		<polygon class="st3" points="120.04,68.91 118.6,68.91 118.6,72.45 120.04,72.45 120.04,68.91 		"/>
		<path class="st3" d="M121.41,70.58c0.18,0,0.32,0.04,0.42,0.11c0.1,0.07,0.15,0.17,0.15,0.3c-0.16-0.04-0.32-0.07-0.49-0.07
			c-0.28,0-0.52,0.08-0.69,0.23c-0.18,0.15-0.26,0.35-0.26,0.59c0,0.21,0.07,0.38,0.21,0.52c0.14,0.14,0.32,0.21,0.53,0.21
			c0.25,0,0.49-0.08,0.7-0.23v0.21h1.43v-1.55c0-0.43-0.12-0.75-0.35-0.96c-0.23-0.21-0.59-0.31-1.08-0.31
			c-0.51,0-0.97,0.11-1.38,0.33v0.84C120.88,70.66,121.15,70.58,121.41,70.58L121.41,70.58L121.41,70.58z M121.76,71.91
			c-0.09,0-0.16-0.03-0.21-0.08c-0.06-0.05-0.08-0.11-0.08-0.19c0-0.07,0.03-0.13,0.08-0.18c0.05-0.04,0.12-0.07,0.21-0.07
			c0.07,0,0.15,0.02,0.23,0.04v0.39C121.92,71.88,121.84,71.91,121.76,71.91L121.76,71.91L121.76,71.91z"/>
		<path class="st3" d="M125.54,69.66v3.58h1.43v-0.88c0.19,0.08,0.39,0.12,0.58,0.12c0.39,0,0.71-0.14,0.96-0.41
			c0.25-0.28,0.38-0.63,0.38-1.05c0-0.39-0.12-0.72-0.35-0.98c-0.23-0.26-0.53-0.39-0.88-0.39c-0.24,0-0.47,0.08-0.69,0.24v-0.21
			H125.54L125.54,69.66z M127.22,70.75c0.09,0,0.15,0.03,0.21,0.1c0.05,0.07,0.08,0.15,0.08,0.26c0,0.11-0.03,0.19-0.08,0.25
			c-0.05,0.06-0.12,0.1-0.21,0.1c-0.08,0-0.16-0.02-0.25-0.07v-0.5C127.04,70.8,127.12,70.75,127.22,70.75L127.22,70.75
			L127.22,70.75z"/>
		<path class="st3" d="M130.17,70.58c0.18,0,0.32,0.04,0.42,0.11c0.1,0.07,0.15,0.17,0.15,0.3c-0.16-0.04-0.32-0.07-0.49-0.07
			c-0.28,0-0.51,0.08-0.69,0.23c-0.18,0.15-0.26,0.35-0.26,0.59c0,0.21,0.07,0.38,0.21,0.52c0.14,0.14,0.32,0.21,0.53,0.21
			c0.25,0,0.49-0.08,0.7-0.23v0.21h1.43v-1.55c0-0.43-0.12-0.75-0.35-0.96c-0.23-0.21-0.59-0.31-1.08-0.31
			c-0.51,0-0.97,0.11-1.38,0.33v0.84C129.64,70.66,129.91,70.58,130.17,70.58L130.17,70.58L130.17,70.58z M130.51,71.91
			c-0.09,0-0.16-0.03-0.21-0.08c-0.06-0.05-0.09-0.11-0.09-0.19c0-0.07,0.03-0.13,0.08-0.18c0.05-0.04,0.12-0.07,0.21-0.07
			c0.07,0,0.15,0.02,0.23,0.04v0.39C130.68,71.88,130.6,71.91,130.51,71.91L130.51,71.91L130.51,71.91z"/>
		<polygon class="st3" points="134.49,71.52 135.48,69.66 132.6,69.66 132.6,70.55 133.48,70.55 132.47,72.45 135.46,72.45 
			135.46,71.52 134.49,71.52 		"/>
	</g>
	<g>
		<path class="st4" d="M70.45,39.66l8.29-11.33L90,28.37l5.64,9.76L90,50.93L70.45,39.66z M70.45,39.66"/>
		<path class="st2" d="M90,5.77l5.62,12.82L90,28.37l-11.26-0.04l-8.29-11.27L90,5.77z M90,5.77"/>
		<path class="st5" d="M109.55,39.65l-13.91-1.52L90,28.37l5.62-9.78l13.95-1.51L109.55,39.65z M109.55,39.65"/>
		<path class="st4" d="M109.55,17.04l-8.29,11.33L90,28.33l-5.64-9.77L90,5.77L109.55,17.04z M109.55,17.04"/>
		<path class="st2" d="M90,50.94l-5.62-12.82L90,28.33l11.26,0.04l8.29,11.27L90,50.94z M90,50.94"/>
		<path class="st5" d="M70.45,17.05l13.91,1.52L90,28.34l-5.62,9.78l-13.95,1.51L70.45,17.05z M70.45,17.05"/>
	</g>
</g>
</svg>
