<?xml version="1.0" encoding="utf-8"?>
<!-- Generator: Adobe Illustrator 27.9.0, SVG Export Plug-In . SVG Version: 6.00 Build 0)  -->
<svg version="1.1" id="Capa_1" xmlns="http://www.w3.org/2000/svg" xmlns:xlink="http://www.w3.org/1999/xlink" x="0px" y="0px"
	 viewBox="0 0 180 79" style="enable-background:new 0 0 180 79;" xml:space="preserve">
<style type="text/css">
	.st0{fill:#F3F4F5;}
	.st1{fill:#B4CAE3;}
	.st2{fill:#DEECCA;}
	.st3{fill:#00B3AF;}
	.st4{fill:#EC0F69;}
	.st5{fill:#FFE700;}
	.st6{fill:#0050A2;}
	.st7{fill:#EC1A3B;}
	.st8{fill:#FFFFFF;}
	.st9{fill:#58595B;}
</style>
<path class="st0" d="M140.8,77H39.2C18.5,77,1.7,60.2,1.7,39.5l0,0C1.7,18.8,18.5,2,39.2,2h101.5c20.7,0,37.5,16.8,37.5,37.5l0,0
	C178.3,60.2,161.5,77,140.8,77z"/>
<path class="st1" d="M140.8,78.7H39.2C17.6,78.7,0,61.1,0,39.5S17.6,0.3,39.2,0.3h101.5c21.6,0,39.2,17.6,39.2,39.2
	S162.4,78.7,140.8,78.7z M39.2,3.8c-19.7,0-35.7,16-35.7,35.7s16,35.7,35.7,35.7h101.5c19.7,0,35.7-16,35.7-35.7s-16-35.7-35.7-35.7
	C140.7,3.8,39.2,3.8,39.2,3.8z"/>
<g>
	<g>
		<polygon points="45.4,27.3 37,35.7 37,34.6 45.4,26.2 		"/>
		<polygon points="45.4,25.1 37,33.4 37,32.3 45.4,23.9 		"/>
		<polygon points="37,12.7 45.4,21 45.4,19.9 37,11.5 		"/>
		<polygon points="35.9,13.8 44.3,22.2 44.3,21 35.9,12.7 		"/>
		<polygon points="37,19.9 37,27.3 41.2,31.5 45.4,27.3 45.4,19.9 41.2,15.7 		"/>
		<polygon class="st2" points="41.2,30.4 44.6,27 44.6,20.2 41.2,16.9 37.8,20.2 37.8,27 		"/>
		<polygon points="38.7,20.6 38.7,26.7 41.2,29.2 43.8,26.7 43.8,20.6 41.2,18 		"/>
		<polygon class="st3" points="39.5,20.9 39.5,26.3 41.2,28.1 43,26.3 43,20.9 41.2,19.1 		"/>
		<polygon points="32.7,21.3 37,19.9 37,27.3 		"/>
		<polygon class="st4" points="37,20.7 37,26.2 36.4,26.4 33.2,22 		"/>
		<polygon points="36.2,24.9 36.2,21.9 34.5,22.4 		"/>
	</g>
	<g>
		<polygon points="37,27.3 35.2,39 34.5,38.1 36.4,26.4 		"/>
		<polygon points="35.7,25.5 33.9,37.2 33.2,36.3 35,24.6 		"/>
		<polygon points="21.6,20.4 33.3,22.2 32.7,21.3 21,19.5 		"/>
		<polygon points="21.4,22 33.1,23.8 32.4,22.9 20.7,21.1 		"/>
		<polygon points="25.9,26.2 30.3,32.3 36.1,33.2 37,27.3 32.7,21.3 26.8,20.4 		"/>
		<polygon class="st3" points="35.4,32.3 36.2,27.5 32.2,22.1 27.5,21.3 26.7,26 30.7,31.5 		"/>
		<polygon points="27.6,25.8 31.2,30.8 34.8,31.3 35.3,27.7 31.8,22.8 28.2,22.2 		"/>
		<polygon class="st2" points="28.4,25.6 31.6,30 34.1,30.4 34.5,27.9 31.3,23.5 28.8,23.2 		"/>
		<polygon points="23.2,30 25.9,26.2 30.3,32.3 		"/>
		<polygon class="st5" points="26.4,26.9 29.6,31.3 29.2,31.9 24,30.2 		"/>
		<polygon points="28.2,30.7 26.4,28.3 25.3,29.8 		"/>
	</g>
	<g>
		<polygon points="30.3,32.3 35.6,42.8 34.6,42.5 29.2,31.9 		"/>
		<polygon points="28.1,31.5 33.5,42.1 32.4,41.7 27,31.2 		"/>
		<polygon points="13.7,35.7 24.3,30.3 23.2,30 12.7,35.3 		"/>
		<polygon points="14.5,37.1 25,31.7 23.9,31.4 13.4,36.8 		"/>
		<polygon points="20.6,37.9 27.7,40.2 33,37.5 30.3,32.3 23.2,30 17.9,32.6 		"/>
		<polygon class="st2" points="31.9,37.2 29.7,32.9 23.3,30.8 19,33 21.2,37.3 27.6,39.3 		"/>
		<polygon points="21.7,36.6 27.5,38.5 30.8,36.8 29.1,33.6 23.3,31.7 20.1,33.3 		"/>
		<polygon class="st3" points="22.3,35.9 27.5,37.6 29.7,36.5 28.6,34.2 23.4,32.6 21.2,33.7 		"/>
		<polygon points="20.6,42.5 20.6,37.9 27.7,40.2 		"/>
		<polygon class="st6" points="21.4,38.2 26.6,39.9 26.6,40.6 21.4,42.2 		"/>
		<polygon points="25.1,40.2 22.2,39.3 22.2,41.1 		"/>
	</g>
	<g>
		<polygon points="27.7,40.2 38.2,45.6 37.2,45.9 26.6,40.6 		"/>
		<polygon points="25.5,40.9 36.1,46.3 35,46.6 24.4,41.3 		"/>
		<polygon points="16.3,52.7 21.7,42.2 20.6,42.5 15.2,53.1 		"/>
		<polygon points="17.8,53.4 23.1,42.9 22.1,43.2 16.7,53.8 		"/>
		<polygon points="23.2,50.5 30.3,48.2 33,42.9 27.7,40.2 20.6,42.5 17.9,47.8 		"/>
		<polygon class="st3" points="31.9,43.3 27.6,41.1 21.2,43.2 19,47.4 23.3,49.6 29.7,47.5 		"/>
		<polygon points="23.3,48.7 29.1,46.9 30.8,43.6 27.5,42 21.7,43.8 20.1,47.1 		"/>
		<polygon class="st2" points="23.4,47.9 28.6,46.2 29.7,44 27.5,42.8 22.3,44.5 21.2,46.7 		"/>
		<polygon points="25.9,54.2 23.2,50.5 30.3,48.2 		"/>
		<polygon class="st4" points="24,50.2 29.2,48.5 29.6,49.1 26.4,53.5 		"/>
		<polygon points="28.2,49.7 25.3,50.6 26.4,52.1 		"/>
	</g>
	<g>
		<polygon points="30.3,48.2 42,46.3 41.3,47.2 29.6,49.1 		"/>
		<polygon points="28.9,50 40.6,48.2 40,49.1 28.3,50.9 		"/>
		<polygon points="28.4,65 26.6,53.3 25.9,54.2 27.8,65.9 		"/>
		<polygon points="30,64.7 28.2,53 27.5,53.9 29.3,65.6 		"/>
		<polygon points="32.7,59.1 37,53.1 36.1,47.3 30.3,48.2 25.9,54.2 26.8,60 		"/>
		<polygon class="st2" points="35.4,48.2 30.7,48.9 26.7,54.4 27.5,59.1 32.2,58.4 36.2,52.9 		"/>
		<polygon points="31.8,57.6 35.3,52.7 34.8,49.1 31.2,49.7 27.6,54.6 28.2,58.2 		"/>
		<polygon class="st3" points="31.3,56.9 34.5,52.5 34.1,50 31.6,50.4 28.4,54.8 28.8,57.3 		"/>
		<polygon points="37,60.5 32.7,59.1 37,53.1 		"/>
		<polygon class="st5" points="33.2,58.4 36.4,54 37,54.2 37,59.7 		"/>
		<polygon points="36.2,55.6 34.5,58 36.2,58.6 		"/>
	</g>
	<g>
		<polygon points="37,53.1 45.4,44.7 45.4,45.9 37,54.2 		"/>
		<polygon points="37,55.4 45.4,47 45.4,48.1 37,56.5 		"/>
		<polygon points="45.4,67.8 37,59.4 37,60.5 45.4,68.9 		"/>
		<polygon points="46.6,66.6 38.2,58.3 38.2,59.4 46.6,67.8 		"/>
		<polygon points="45.4,60.5 45.4,53.1 41.2,48.9 37,53.1 37,60.5 41.2,64.7 		"/>
		<polygon class="st3" points="41.2,50.1 37.8,53.4 37.8,60.2 41.2,63.6 44.6,60.2 44.6,53.4 		"/>
		<polygon points="43.8,59.9 43.8,53.8 41.2,51.2 38.7,53.8 38.7,59.9 41.2,62.4 		"/>
		<polygon class="st2" points="43,59.5 43,54.1 41.2,52.3 39.5,54.1 39.5,59.5 41.2,61.3 		"/>
		<polygon points="49.8,59.1 45.4,60.5 45.4,53.1 		"/>
		<polygon class="st6" points="45.4,59.7 45.4,54.2 46.1,54 49.3,58.4 		"/>
		<polygon points="46.2,55.6 46.2,58.6 48,58 		"/>
	</g>
	<g>
		<polygon points="45.4,53.1 47.3,41.4 47.9,42.3 46.1,54 		"/>
		<polygon points="46.8,54.9 48.6,43.2 49.3,44.2 47.4,55.9 		"/>
		<polygon points="60.8,60 49.1,58.2 49.8,59.1 61.5,61 		"/>
		<polygon points="61.1,58.5 49.4,56.6 50,57.5 61.7,59.4 		"/>
		<polygon points="56.6,54.2 52.2,48.2 46.3,47.3 45.4,53.1 49.8,59.1 55.6,60 		"/>
		<polygon class="st2" points="47,48.2 46.3,52.9 50.2,58.4 55,59.1 55.7,54.4 51.7,48.9 		"/>
		<polygon points="54.9,54.6 51.3,49.7 47.7,49.1 47.1,52.7 50.7,57.6 54.3,58.2 		"/>
		<polygon class="st3" points="54,54.8 50.8,50.4 48.3,50 48,52.5 51.1,56.9 53.6,57.3 		"/>
		<polygon points="59.3,50.5 56.6,54.2 52.2,48.2 		"/>
		<polygon class="st4" points="56.1,53.5 52.9,49.1 53.3,48.5 58.5,50.2 		"/>
		<polygon points="54.3,49.7 56.1,52.1 57.1,50.6 		"/>
	</g>
	<g>
		<polygon points="52.2,48.2 46.8,37.6 47.9,38 53.3,48.5 		"/>
		<polygon points="54.4,48.9 49,38.3 50.1,38.7 55.4,49.2 		"/>
		<polygon points="68.7,44.7 58.2,50.1 59.3,50.5 69.8,45.1 		"/>
		<polygon points="68,43.3 57.4,48.7 58.5,49 69.1,43.7 		"/>
		<polygon points="61.8,42.5 54.8,40.2 49.5,42.9 52.2,48.2 59.3,50.5 64.5,47.8 		"/>
		<polygon class="st3" points="50.6,43.3 52.8,47.5 59.2,49.6 63.4,47.4 61.3,43.2 54.8,41.1 		"/>
		<polygon points="60.7,43.8 54.9,42 51.7,43.6 53.3,46.9 59.1,48.7 62.4,47.1 		"/>
		<polygon class="st2" points="60.1,44.5 55,42.8 52.7,44 53.9,46.2 59.1,47.9 61.3,46.7 		"/>
	</g>
	<g>
		<g>
			<polygon points="54.4,14.7 49.2,19.9 49.2,21 54.4,15.9 			"/>
			<polygon points="54.4,17 49.2,22.2 49.2,23.3 54.4,18.1 			"/>
			<polygon points="54.4,29.1 50.3,25.1 50.3,26.2 54.4,30.2 			"/>
			<polygon points="54.4,31.4 49.2,26.2 49.2,27.3 54.4,32.5 			"/>
		</g>
		<polygon points="56.7,23.6 53,19.9 53,19.9 48.8,15.7 44.6,19.9 44.6,27.3 48.8,31.5 53,27.3 53,27.3 		"/>
		<polygon class="st7" points="45.4,27 45.4,20.2 48.8,16.9 55.6,23.6 48.8,30.4 		"/>
		<polygon points="46.2,26.7 46.2,20.6 48.8,18 54.4,23.6 48.8,29.2 		"/>
		<polygon class="st8" points="52.9,23.2 49.2,19.5 49.2,23.2 		"/>
		<polygon class="st8" points="52.9,24 49.2,27.7 49.2,24 		"/>
		<circle cx="50.3" cy="21.9" r="0.6"/>
		<circle cx="50.3" cy="25.1" r="0.6"/>
	</g>
</g>
<g>
	<path class="st4" d="M88,26.4l-2.3,2.2c-1.5-1.6-3.3-2.4-5.2-2.4c-1.6,0-3,0.6-4.1,1.7c-1.1,1.1-1.7,2.5-1.7,4.1
		c0,1.1,0.2,2.1,0.7,3c0.5,0.9,1.2,1.6,2.1,2.1c0.9,0.5,1.9,0.8,3,0.8c0.9,0,1.8-0.2,2.6-0.5c0.8-0.3,1.6-1,2.6-1.9l2.2,2.3
		c-1.3,1.2-2.4,2.1-3.6,2.5c-1.1,0.5-2.4,0.7-3.8,0.7c-2.6,0-4.8-0.8-6.5-2.5c-1.7-1.7-2.5-3.8-2.5-6.4c0-1.7,0.4-3.2,1.1-4.5
		c0.8-1.3,1.9-2.4,3.3-3.2c1.4-0.8,3-1.2,4.6-1.2c1.4,0,2.7,0.3,4,0.9C85.9,24.4,87.1,25.3,88,26.4z"/>
	<path class="st4" d="M90.6,23.4h3.2v17h-3.2V23.4z"/>
	<path class="st6" d="M97.4,23.4h9.3v3.2h-6.1v3.1h6.1v3.1h-6.1v4.5h6.1v3.2h-9.3V23.4z"/>
	<path class="st6" d="M109.7,23.4h3.1l7.3,11.2V23.4h3.2v17h-3.1l-7.2-11.1v11.1h-3.2V23.4z"/>
	<path class="st6" d="M127.2,23.4h3.4c1.9,0,3.2,0.2,4,0.5c0.8,0.3,1.5,0.9,1.9,1.7c0.5,0.8,0.7,1.7,0.7,2.7c0,1.2-0.3,2.2-0.9,3
		c-0.6,0.8-1.5,1.3-2.5,1.6c-0.6,0.2-1.8,0.3-3.4,0.3v7.2h-3.2V23.4z M130.4,30h1c0.8,0,1.4-0.1,1.7-0.2c0.3-0.1,0.6-0.3,0.7-0.6
		c0.2-0.3,0.3-0.6,0.3-1c0-0.7-0.3-1.1-0.8-1.4c-0.4-0.2-1.1-0.3-2.1-0.3h-0.9V30z"/>
	<path class="st4" d="M140.8,22.6c0.4,0,0.7,0.1,0.9,0.4c0.3,0.3,0.4,0.6,0.4,0.9c0,0.4-0.1,0.7-0.4,0.9c-0.3,0.3-0.6,0.4-0.9,0.4
		c-0.4,0-0.7-0.1-0.9-0.4c-0.3-0.3-0.4-0.6-0.4-0.9c0-0.4,0.1-0.7,0.4-0.9C140.1,22.8,140.5,22.6,140.8,22.6z M140,27.8h1.6v12.5
		H140V27.8z"/>
	<path class="st4" d="M155.5,36.2l1.4,0.7c-0.4,0.9-1,1.6-1.5,2.1c-0.6,0.5-1.2,0.9-2,1.2c-0.7,0.3-1.6,0.4-2.5,0.4
		c-2,0-3.6-0.7-4.8-2c-1.2-1.3-1.7-2.9-1.7-4.5c0-1.6,0.5-3,1.5-4.3c1.2-1.6,2.9-2.4,5-2.4c2.1,0,3.8,0.8,5.1,2.4
		c0.9,1.1,1.4,2.6,1.4,4.3H146c0,1.5,0.5,2.7,1.4,3.6c0.9,0.9,2,1.4,3.3,1.4c0.6,0,1.3-0.1,1.9-0.3c0.6-0.2,1.1-0.5,1.5-0.9
		C154.6,37.6,155.1,37,155.5,36.2z M155.5,32.8c-0.2-0.9-0.5-1.5-0.9-2.1c-0.4-0.5-1-0.9-1.6-1.2c-0.7-0.3-1.4-0.5-2.1-0.5
		c-1.2,0-2.3,0.4-3.2,1.2c-0.6,0.6-1.1,1.4-1.5,2.6H155.5z M151.7,21.9h2.5l-3.4,3.6h-1.6L151.7,21.9z"/>
	<path class="st4" d="M166.6,29.2l-1,1.1c-0.9-0.8-1.7-1.3-2.5-1.3c-0.5,0-1,0.2-1.3,0.5c-0.4,0.3-0.6,0.7-0.6,1.2
		c0,0.4,0.2,0.8,0.5,1.2c0.3,0.4,1,0.8,1.9,1.3c1.2,0.6,2,1.2,2.4,1.8c0.4,0.6,0.6,1.2,0.6,2c0,1-0.4,1.9-1.1,2.6
		c-0.7,0.7-1.6,1.1-2.7,1.1c-0.7,0-1.4-0.2-2.1-0.5c-0.7-0.3-1.2-0.7-1.6-1.3l1-1.2c0.8,0.9,1.7,1.4,2.6,1.4c0.6,0,1.2-0.2,1.7-0.6
		c0.5-0.4,0.7-0.9,0.7-1.5c0-0.5-0.2-0.9-0.5-1.2c-0.3-0.4-1-0.8-2-1.3c-1.1-0.6-1.9-1.2-2.3-1.7c-0.4-0.6-0.6-1.2-0.6-1.9
		c0-1,0.3-1.7,1-2.4c0.7-0.6,1.5-0.9,2.5-0.9C164.3,27.5,165.5,28,166.6,29.2z"/>
	<path class="st9" d="M71.5,56.9L73.2,45h0.2l4.8,9.7L83,45h0.2l1.7,11.9h-1.2l-1.2-8.5l-4.2,8.5h-0.3l-4.2-8.5l-1.2,8.5H71.5z"/>
	<path class="st9" d="M95.5,48.1v8.8h-1.1v-1.5c-0.5,0.6-1,1-1.6,1.3c-0.6,0.3-1.2,0.4-1.9,0.4c-1.2,0-2.3-0.4-3.2-1.3
		c-0.9-0.9-1.3-2-1.3-3.3c0-1.3,0.4-2.3,1.3-3.2c0.9-0.9,2-1.3,3.2-1.3c0.7,0,1.4,0.2,2,0.5c0.6,0.3,1.1,0.8,1.5,1.4v-1.6H95.5z
		 M91,49c-0.6,0-1.2,0.2-1.7,0.5c-0.5,0.3-1,0.7-1.3,1.3s-0.5,1.1-0.5,1.8c0,0.6,0.2,1.2,0.5,1.8c0.3,0.6,0.7,1,1.3,1.3
		c0.5,0.3,1.1,0.5,1.7,0.5c0.6,0,1.2-0.2,1.8-0.5c0.6-0.3,1-0.7,1.3-1.3c0.3-0.5,0.4-1.1,0.4-1.8c0-1-0.3-1.9-1-2.5
		C92.8,49.3,91.9,49,91,49z"/>
	<path class="st9" d="M98.7,44.8h1.1v3.3h1.8v1h-1.8v7.8h-1.1v-7.8h-1.5v-1h1.5V44.8z"/>
	<path class="st9" d="M110.3,54l1,0.5c-0.3,0.6-0.7,1.1-1.1,1.5c-0.4,0.4-0.9,0.7-1.4,0.9c-0.5,0.2-1.1,0.3-1.7,0.3
		c-1.4,0-2.5-0.5-3.4-1.4c-0.8-0.9-1.2-2-1.2-3.2c0-1.1,0.3-2.1,1-3c0.9-1.1,2-1.7,3.5-1.7c1.5,0,2.7,0.6,3.6,1.7c0.6,0.8,1,1.8,1,3
		h-7.9c0,1,0.3,1.9,1,2.5c0.6,0.7,1.4,1,2.3,1c0.4,0,0.9-0.1,1.3-0.2c0.4-0.2,0.8-0.4,1.1-0.6C109.6,54.9,110,54.5,110.3,54z
		 M110.3,51.6c-0.2-0.6-0.4-1.1-0.7-1.4c-0.3-0.4-0.7-0.6-1.1-0.9c-0.5-0.2-1-0.3-1.5-0.3c-0.9,0-1.6,0.3-2.2,0.8
		c-0.5,0.4-0.8,1-1,1.8H110.3z"/>
	<path class="st9" d="M113.3,48.1h1.1v1.5c0.4-0.6,0.8-1,1.2-1.2c0.6-0.3,1.2-0.5,1.8-0.5c0.4,0,0.8,0.1,1.2,0.2
		c0.4,0.2,0.7,0.4,0.9,0.7c0.2,0.3,0.5,0.7,0.6,1.2c0.4-0.7,0.8-1.2,1.4-1.6c0.6-0.4,1.2-0.5,1.8-0.5c0.6,0,1.1,0.2,1.6,0.5
		c0.5,0.3,0.8,0.7,1,1.3c0.2,0.5,0.3,1.4,0.3,2.5v4.8h-1.2v-4.8c0-0.9-0.1-1.6-0.2-1.9c-0.1-0.4-0.4-0.6-0.7-0.8
		c-0.3-0.2-0.7-0.3-1.2-0.3c-0.5,0-1,0.2-1.5,0.5c-0.5,0.3-0.8,0.8-1,1.3c-0.2,0.5-0.3,1.4-0.3,2.7v3.4h-1.1v-4.5
		c0-1.1-0.1-1.8-0.2-2.2c-0.1-0.4-0.4-0.7-0.7-0.9c-0.3-0.2-0.7-0.3-1.2-0.3c-0.5,0-1,0.2-1.5,0.5c-0.5,0.3-0.8,0.7-1,1.3
		c-0.2,0.5-0.3,1.3-0.3,2.4v3.7h-1.1V48.1z"/>
	<path class="st9" d="M137.2,48.1v8.8h-1.1v-1.5c-0.5,0.6-1,1-1.6,1.3c-0.6,0.3-1.2,0.4-1.9,0.4c-1.2,0-2.3-0.4-3.2-1.3
		c-0.9-0.9-1.3-2-1.3-3.3c0-1.3,0.4-2.3,1.3-3.2c0.9-0.9,2-1.3,3.2-1.3c0.7,0,1.4,0.2,2,0.5c0.6,0.3,1.1,0.8,1.5,1.4v-1.6H137.2z
		 M132.7,49c-0.6,0-1.2,0.2-1.7,0.5c-0.5,0.3-1,0.7-1.3,1.3c-0.3,0.6-0.5,1.1-0.5,1.8c0,0.6,0.2,1.2,0.5,1.8c0.3,0.6,0.7,1,1.3,1.3
		c0.5,0.3,1.1,0.5,1.7,0.5c0.6,0,1.2-0.2,1.8-0.5c0.6-0.3,1-0.7,1.3-1.3c0.3-0.5,0.4-1.1,0.4-1.8c0-1-0.3-1.9-1-2.5
		C134.5,49.3,133.7,49,132.7,49z M133.4,44h1.7l-2.4,2.5h-1.1L133.4,44z"/>
	<path class="st9" d="M140.4,44.8h1.1v3.3h1.8v1h-1.8v7.8h-1.1v-7.8h-1.5v-1h1.5V44.8z"/>
	<path class="st9" d="M145.1,44.5c0.3,0,0.5,0.1,0.7,0.3c0.2,0.2,0.3,0.4,0.3,0.7c0,0.3-0.1,0.5-0.3,0.7c-0.2,0.2-0.4,0.3-0.7,0.3
		c-0.3,0-0.5-0.1-0.6-0.3c-0.2-0.2-0.3-0.4-0.3-0.7c0-0.3,0.1-0.5,0.3-0.7C144.6,44.6,144.8,44.5,145.1,44.5z M144.5,48.1h1.1v8.8
		h-1.1V48.1z"/>
	<path class="st9" d="M156.1,49.9l-0.9,0.6c-0.8-1-1.8-1.5-3.2-1.5c-1.1,0-2,0.3-2.7,1c-0.7,0.7-1.1,1.5-1.1,2.5
		c0,0.6,0.2,1.2,0.5,1.8c0.3,0.6,0.8,1,1.3,1.3c0.6,0.3,1.2,0.5,1.9,0.5c1.3,0,2.3-0.5,3.2-1.5l0.9,0.6c-0.4,0.6-1,1.1-1.7,1.5
		c-0.7,0.3-1.5,0.5-2.4,0.5c-1.4,0-2.5-0.4-3.4-1.3c-0.9-0.9-1.4-2-1.4-3.2c0-0.8,0.2-1.6,0.6-2.4c0.4-0.7,1-1.3,1.8-1.7
		c0.7-0.4,1.6-0.6,2.5-0.6c0.6,0,1.1,0.1,1.7,0.3c0.5,0.2,1,0.4,1.4,0.7C155.6,49.1,155.9,49.5,156.1,49.9z"/>
	<path class="st9" d="M162.1,47.9c1.4,0,2.5,0.5,3.4,1.5c0.8,0.9,1.2,1.9,1.2,3.2c0,1.2-0.4,2.3-1.3,3.2c-0.9,0.9-1.9,1.4-3.3,1.4
		c-1.3,0-2.4-0.5-3.3-1.4c-0.9-0.9-1.3-2-1.3-3.2c0-1.2,0.4-2.3,1.2-3.2C159.7,48.4,160.8,47.9,162.1,47.9z M162.1,49
		c-0.9,0-1.7,0.3-2.4,1c-0.7,0.7-1,1.5-1,2.5c0,0.6,0.2,1.2,0.5,1.8c0.3,0.5,0.7,1,1.2,1.3c0.5,0.3,1.1,0.4,1.7,0.4
		c0.6,0,1.2-0.1,1.7-0.4c0.5-0.3,0.9-0.7,1.2-1.3c0.3-0.5,0.5-1.1,0.5-1.8c0-1-0.3-1.8-1-2.5C163.9,49.3,163.1,49,162.1,49z"/>
</g>
</svg>
