<?xml version="1.0" encoding="utf-8"?>
<!-- Generator: Adobe Illustrator 25.2.1, SVG Export Plug-In . SVG Version: 6.00 Build 0)  -->
<svg version="1.1" id="Capa_1" xmlns="http://www.w3.org/2000/svg" xmlns:xlink="http://www.w3.org/1999/xlink" x="0px" y="0px"
	 viewBox="0 0 180 79" style="enable-background:new 0 0 180 79;" xml:space="preserve">
<style type="text/css">
	.st0{fill:#F3F4F5;}
	.st1{fill:#B4CAE3;}
	.st2{fill:#064A7A;}
	.st3{fill:#F89E1B;}
	.st4{fill:#E5384E;}
</style>
<g>
	<path class="st0" d="M140.76,76.99H39.24c-20.71,0-37.49-16.79-37.49-37.49v0c0-20.71,16.79-37.49,37.49-37.49h101.52
		c20.71,0,37.49,16.79,37.49,37.49v0C178.25,60.21,161.47,76.99,140.76,76.99z"/>
	<path class="st1" d="M140.76,78.74H39.24C17.6,78.74,0,61.14,0,39.5S17.6,0.26,39.24,0.26h101.52C162.4,0.26,180,17.86,180,39.5
		S162.4,78.74,140.76,78.74z M39.24,3.76C19.53,3.76,3.5,19.79,3.5,39.5c0,19.71,16.03,35.74,35.74,35.74h101.52
		c19.71,0,35.74-16.03,35.74-35.74c0-19.71-16.03-35.74-35.74-35.74H39.24z"/>
	<path class="st2" d="M101.07,11.78L90.13,30.76L79.17,11.78L57.28,49.72h5.05l16.84-29.18l8.42,14.59l-8.42,14.58h21.9l-8.42-14.58
		l8.42-14.59l16.85,29.18l5.05-0.01L101.07,11.78z M93.48,45.33h-6.72l3.37-5.83L93.48,45.33z"/>
	<path class="st3" d="M122.97,11.78c-7.02,0-13.14,3.83-16.42,9.5l2.68,4.65c2-5.67,7.38-9.74,13.73-9.74
		c8.05,0,14.57,6.52,14.57,14.57c0,8.05-6.52,14.57-14.57,14.57c-0.92,0-1.81-0.1-2.68-0.26l2.68,4.64h0
		c10.47,0,18.96-8.49,18.96-18.96C141.93,20.27,133.44,11.78,122.97,11.78"/>
	<path class="st4" d="M57.28,49.72l2.7-4.68c-0.85,0.16-1.81,0.29-2.71,0.29c-8.05,0-14.57-6.52-14.57-14.57
		c0-8.05,6.52-14.57,14.57-14.57c4.81,0,9.08,2.33,11.73,5.93l2.35-4.07c-3.47-3.84-8.49-6.25-14.08-6.25
		c-10.47,0-18.96,8.49-18.96,18.96S46.8,49.72,57.28,49.72L57.28,49.72z"/>
	<path class="st2" d="M32.26,54.59c-0.34-0.35-0.68-0.6-1.02-0.77c-0.34-0.17-0.71-0.25-1.09-0.25c-0.66,0-1.2,0.23-1.61,0.68
		c-0.42,0.45-0.63,1.04-0.63,1.75c0,0.71,0.21,1.29,0.62,1.73c0.41,0.44,0.95,0.66,1.62,0.66c0.39,0,0.79-0.08,1.18-0.25
		c0.39-0.16,0.78-0.41,1.17-0.74l-0.12,2.06c-0.33,0.23-0.7,0.4-1.09,0.51c-0.39,0.12-0.81,0.18-1.23,0.18
		c-0.46,0-0.9-0.07-1.32-0.21c-0.42-0.14-0.81-0.35-1.16-0.63c-0.5-0.39-0.88-0.87-1.15-1.44c-0.27-0.57-0.4-1.18-0.4-1.85
		c0-0.58,0.1-1.11,0.29-1.62c0.2-0.5,0.48-0.95,0.86-1.33c0.38-0.39,0.82-0.68,1.31-0.89c0.5-0.21,1.02-0.31,1.57-0.31
		c0.44,0,0.85,0.06,1.25,0.18c0.4,0.12,0.78,0.31,1.14,0.55L32.26,54.59z"/>
	<path class="st2" d="M38.38,55.07v3.02c0,0.38,0.01,0.7,0.02,0.95c0.01,0.26,0.04,0.48,0.06,0.66l-1.56,0.43l-0.15-0.46
		c-0.21,0.16-0.42,0.27-0.62,0.35c-0.2,0.07-0.41,0.11-0.64,0.11c-0.62,0-1.14-0.25-1.57-0.74c-0.42-0.5-0.63-1.11-0.63-1.85
		c0-0.78,0.24-1.42,0.71-1.93c0.48-0.51,1.08-0.76,1.8-0.76c0.17,0,0.34,0.02,0.53,0.07c0.18,0.05,0.38,0.12,0.61,0.21L38.38,55.07z
		 M36.69,56.3c-0.1-0.06-0.2-0.1-0.29-0.12c-0.09-0.02-0.18-0.04-0.27-0.04c-0.32,0-0.59,0.13-0.8,0.4c-0.22,0.27-0.33,0.6-0.33,1
		c0,0.38,0.1,0.69,0.29,0.95c0.19,0.25,0.42,0.38,0.7,0.38c0.11,0,0.22-0.03,0.34-0.09c0.12-0.06,0.24-0.15,0.36-0.27V56.3z"/>
	<path class="st2" d="M39.75,59.68v-1.33c0.43,0.27,0.76,0.45,0.99,0.55c0.24,0.09,0.45,0.14,0.65,0.14c0.17,0,0.32-0.04,0.42-0.12
		c0.11-0.08,0.16-0.18,0.16-0.3c0-0.11-0.04-0.2-0.11-0.27c-0.07-0.07-0.2-0.14-0.39-0.2l-0.62-0.22c-0.41-0.14-0.72-0.33-0.93-0.59
		c-0.21-0.25-0.32-0.55-0.32-0.89c0-0.49,0.17-0.88,0.51-1.17c0.34-0.29,0.79-0.44,1.36-0.44c0.26,0,0.54,0.04,0.83,0.11
		c0.29,0.07,0.62,0.19,0.97,0.34l-0.21,1.17c-0.21-0.18-0.45-0.33-0.7-0.43c-0.25-0.1-0.49-0.16-0.71-0.16
		c-0.16,0-0.3,0.04-0.4,0.12c-0.1,0.08-0.16,0.17-0.16,0.29c0,0.1,0.03,0.18,0.09,0.24c0.06,0.06,0.19,0.12,0.39,0.19l0.58,0.21
		c0.45,0.16,0.78,0.36,0.97,0.58c0.19,0.23,0.29,0.53,0.29,0.89c0,0.53-0.18,0.95-0.53,1.26c-0.35,0.31-0.83,0.46-1.43,0.46
		c-0.29,0-0.58-0.04-0.87-0.11C40.32,59.95,40.04,59.84,39.75,59.68"/>
	<path class="st2" d="M49.32,55.07v3.02c0,0.38,0.01,0.7,0.02,0.95c0.01,0.26,0.04,0.48,0.06,0.66l-1.56,0.43l-0.15-0.46
		c-0.21,0.16-0.42,0.27-0.62,0.35c-0.2,0.07-0.41,0.11-0.64,0.11c-0.62,0-1.14-0.25-1.57-0.74c-0.42-0.5-0.63-1.11-0.63-1.85
		c0-0.78,0.24-1.42,0.71-1.93c0.48-0.51,1.08-0.76,1.8-0.76c0.17,0,0.34,0.02,0.53,0.07c0.18,0.05,0.38,0.12,0.61,0.21L49.32,55.07z
		 M47.63,56.3c-0.1-0.06-0.2-0.1-0.29-0.12c-0.09-0.02-0.18-0.04-0.27-0.04c-0.32,0-0.59,0.13-0.8,0.4c-0.22,0.27-0.33,0.6-0.33,1
		c0,0.38,0.1,0.69,0.29,0.95c0.19,0.25,0.42,0.38,0.7,0.38c0.11,0,0.22-0.03,0.34-0.09c0.12-0.06,0.24-0.15,0.36-0.27V56.3z"/>
	<polygon class="st2" points="53.59,59.9 55.2,51.88 55.34,51.88 58.27,56.94 61.03,51.88 61.17,51.88 62.79,59.9 61.03,59.9 
		60.37,56.35 58.29,60.19 58.16,60.19 55.92,56.3 55.24,59.9 	"/>
	<path class="st2" d="M68.59,55.07v3.02c0,0.38,0.01,0.7,0.02,0.95c0.01,0.26,0.04,0.48,0.06,0.66l-1.56,0.43l-0.15-0.46
		c-0.21,0.16-0.42,0.27-0.62,0.35c-0.2,0.07-0.41,0.11-0.64,0.11c-0.62,0-1.14-0.25-1.57-0.74c-0.42-0.5-0.63-1.11-0.63-1.85
		c0-0.78,0.24-1.42,0.71-1.93c0.48-0.51,1.08-0.76,1.8-0.76c0.17,0,0.34,0.02,0.53,0.07c0.18,0.05,0.38,0.12,0.61,0.21L68.59,55.07z
		 M66.91,56.3c-0.1-0.06-0.2-0.1-0.29-0.12c-0.09-0.02-0.18-0.04-0.27-0.04c-0.32,0-0.59,0.13-0.8,0.4c-0.22,0.27-0.33,0.6-0.33,1
		c0,0.38,0.1,0.69,0.29,0.95c0.19,0.25,0.42,0.38,0.7,0.38c0.11,0,0.22-0.03,0.34-0.09c0.12-0.06,0.24-0.15,0.36-0.27V56.3z"/>
	<path class="st2" d="M70.26,58.28v-1.93h-0.7v-1.27h0.7v-1.45l1.71-0.23v1.68h1.14v1.27h-1.14v2.05c0,0.44,0.06,0.75,0.18,0.95
		c0.12,0.19,0.34,0.37,0.66,0.54l-1.91,0.13c-0.24-0.11-0.41-0.28-0.5-0.51C70.31,59.27,70.26,58.86,70.26,58.28"/>
	<path class="st2" d="M78.48,58.18l-0.19,1.48c-0.33,0.16-0.65,0.27-0.97,0.35c-0.32,0.07-0.64,0.11-0.96,0.11
		c-0.8,0-1.45-0.23-1.95-0.69c-0.49-0.46-0.74-1.07-0.74-1.81c0-0.78,0.27-1.43,0.81-1.96c0.54-0.53,1.19-0.8,1.97-0.8
		c0.66,0,1.2,0.2,1.63,0.59c0.42,0.39,0.64,0.9,0.64,1.52c0,0.1-0.01,0.25-0.02,0.46l-0.01,0.03l-0.15,0.22l-3.3,0.09
		c0.02,0.33,0.16,0.59,0.41,0.79c0.25,0.2,0.56,0.3,0.93,0.3c0.26,0,0.56-0.06,0.88-0.17C77.78,58.57,78.13,58.4,78.48,58.18
		 M75.28,57.03l2.1-0.06V56.9c0-0.25-0.09-0.46-0.27-0.62c-0.18-0.16-0.4-0.24-0.68-0.24c-0.3,0-0.56,0.09-0.76,0.27
		C75.47,56.47,75.33,56.72,75.28,57.03"/>
	<path class="st2" d="M84.64,59.9h-1.68v-2.77c0-0.25-0.05-0.44-0.16-0.57c-0.11-0.13-0.25-0.2-0.45-0.2c-0.28,0-0.49,0.1-0.65,0.3
		c-0.16,0.2-0.23,0.48-0.23,0.85v2.38H79.8v-4.83h1.56v0.81c0.28-0.33,0.55-0.57,0.83-0.72c0.27-0.15,0.57-0.22,0.89-0.22
		c0.35,0,0.65,0.07,0.88,0.22c0.23,0.15,0.43,0.38,0.59,0.7c0.24-0.31,0.49-0.54,0.77-0.69c0.28-0.15,0.58-0.23,0.91-0.23
		c0.54,0,0.93,0.15,1.19,0.45c0.26,0.3,0.38,0.77,0.38,1.4v3.11h-1.68v-2.77c0-0.25-0.05-0.44-0.16-0.57
		c-0.11-0.13-0.25-0.2-0.45-0.2c-0.28,0-0.49,0.1-0.65,0.3c-0.15,0.2-0.23,0.48-0.23,0.85V59.9z"/>
	<path class="st2" d="M93.93,55.07v3.02c0,0.38,0.01,0.7,0.02,0.95c0.01,0.26,0.04,0.48,0.06,0.66l-1.56,0.43l-0.15-0.46
		c-0.21,0.16-0.42,0.27-0.62,0.35c-0.2,0.07-0.41,0.11-0.64,0.11c-0.62,0-1.14-0.25-1.57-0.74c-0.42-0.5-0.64-1.11-0.64-1.85
		c0-0.78,0.24-1.42,0.71-1.93c0.48-0.51,1.08-0.76,1.8-0.76c0.17,0,0.34,0.02,0.52,0.07c0.18,0.05,0.38,0.12,0.61,0.21L93.93,55.07z
		 M92.25,56.3c-0.1-0.06-0.2-0.1-0.29-0.12c-0.09-0.02-0.18-0.04-0.27-0.04c-0.32,0-0.59,0.13-0.8,0.4c-0.22,0.27-0.33,0.6-0.33,1
		c0,0.38,0.1,0.69,0.29,0.95c0.19,0.25,0.42,0.38,0.7,0.38c0.11,0,0.22-0.03,0.34-0.09c0.12-0.06,0.24-0.15,0.36-0.27V56.3z
		 M90.85,54.25l1.09-1.85h1.19l-1.58,1.85H90.85z"/>
	<path class="st2" d="M95.6,58.28v-1.93h-0.7v-1.27h0.7v-1.45l1.72-0.23v1.68h1.14v1.27h-1.14v2.05c0,0.44,0.06,0.75,0.18,0.95
		s0.34,0.37,0.66,0.54l-1.91,0.13c-0.24-0.11-0.41-0.28-0.5-0.51C95.65,59.27,95.6,58.86,95.6,58.28"/>
	<path class="st2" d="M99.2,53.27c0-0.26,0.09-0.48,0.27-0.65c0.18-0.18,0.4-0.27,0.65-0.27c0.26,0,0.48,0.09,0.66,0.27
		c0.18,0.18,0.27,0.4,0.27,0.66c0,0.26-0.09,0.48-0.27,0.66c-0.18,0.18-0.4,0.27-0.65,0.27c-0.25,0-0.47-0.09-0.65-0.28
		C99.29,53.75,99.2,53.53,99.2,53.27 M100.98,59.9h-1.7v-4.83l1.7-0.23V59.9z"/>
	<path class="st2" d="M106.56,59.63c-0.3,0.17-0.59,0.29-0.88,0.37c-0.29,0.08-0.58,0.12-0.89,0.12c-0.8,0-1.46-0.24-1.98-0.72
		c-0.52-0.48-0.77-1.09-0.77-1.83c0-0.77,0.28-1.41,0.83-1.93c0.56-0.52,1.25-0.78,2.09-0.78c0.31,0,0.61,0.04,0.9,0.1
		c0.29,0.07,0.58,0.17,0.85,0.31l-0.19,1.5c-0.26-0.16-0.52-0.28-0.76-0.37c-0.24-0.08-0.47-0.13-0.68-0.13
		c-0.38,0-0.69,0.12-0.94,0.35c-0.25,0.23-0.37,0.52-0.37,0.86c0,0.36,0.12,0.66,0.35,0.88c0.23,0.22,0.54,0.33,0.92,0.33
		c0.24,0,0.49-0.05,0.76-0.15c0.27-0.1,0.58-0.27,0.93-0.5L106.56,59.63z"/>
	<path class="st2" d="M112.6,55.07v3.02c0,0.38,0.01,0.7,0.02,0.95c0.01,0.26,0.04,0.48,0.06,0.66l-1.56,0.43l-0.15-0.46
		c-0.21,0.16-0.42,0.27-0.62,0.35c-0.2,0.07-0.41,0.11-0.64,0.11c-0.62,0-1.14-0.25-1.57-0.74c-0.42-0.5-0.64-1.11-0.64-1.85
		c0-0.78,0.24-1.42,0.71-1.93c0.48-0.51,1.08-0.76,1.8-0.76c0.17,0,0.34,0.02,0.53,0.07c0.18,0.05,0.38,0.12,0.61,0.21L112.6,55.07z
		 M110.92,56.3c-0.1-0.06-0.2-0.1-0.29-0.12c-0.09-0.02-0.18-0.04-0.27-0.04c-0.32,0-0.59,0.13-0.8,0.4c-0.22,0.27-0.33,0.6-0.33,1
		c0,0.38,0.1,0.69,0.29,0.95c0.19,0.25,0.42,0.38,0.7,0.38c0.11,0,0.22-0.03,0.34-0.09c0.12-0.06,0.24-0.15,0.36-0.27V56.3z"/>
	<path class="st2" d="M117.03,56.02c0-0.58,0.1-1.11,0.3-1.62c0.2-0.5,0.49-0.95,0.88-1.35c0.36-0.38,0.79-0.67,1.27-0.87
		c0.48-0.2,0.99-0.3,1.52-0.3c0.53,0,1.04,0.1,1.52,0.31c0.48,0.2,0.91,0.5,1.29,0.88c0.38,0.38,0.67,0.82,0.86,1.33
		c0.19,0.5,0.29,1.04,0.29,1.63c0,0.49-0.07,0.94-0.2,1.37c-0.14,0.43-0.34,0.82-0.61,1.17c-0.38,0.5-0.84,0.89-1.4,1.17
		c-0.55,0.28-1.14,0.42-1.76,0.42c-0.53,0-1.03-0.1-1.51-0.31c-0.48-0.2-0.91-0.5-1.28-0.88c-0.39-0.4-0.68-0.84-0.88-1.34
		C117.13,57.13,117.03,56.59,117.03,56.02 M118.94,56.02c0,0.68,0.2,1.24,0.59,1.7c0.39,0.46,0.88,0.68,1.46,0.68
		c0.58,0,1.07-0.23,1.46-0.68c0.39-0.45,0.59-1.02,0.59-1.7c0-0.68-0.2-1.25-0.59-1.71c-0.39-0.46-0.88-0.68-1.46-0.68
		c-0.58,0-1.07,0.23-1.46,0.68C119.13,54.77,118.94,55.33,118.94,56.02"/>
	<path class="st2" d="M130.91,55.07v3.02c0,0.38,0.01,0.7,0.02,0.95c0.01,0.26,0.04,0.48,0.06,0.66l-1.56,0.43l-0.15-0.46
		c-0.21,0.16-0.42,0.27-0.62,0.35c-0.2,0.07-0.41,0.11-0.64,0.11c-0.62,0-1.14-0.25-1.57-0.74c-0.42-0.5-0.64-1.11-0.64-1.85
		c0-0.78,0.24-1.42,0.71-1.93c0.48-0.51,1.08-0.76,1.8-0.76c0.17,0,0.34,0.02,0.53,0.07c0.18,0.05,0.38,0.12,0.61,0.21L130.91,55.07
		z M129.23,56.3c-0.1-0.06-0.2-0.1-0.29-0.12c-0.09-0.02-0.18-0.04-0.27-0.04c-0.32,0-0.59,0.13-0.8,0.4c-0.22,0.27-0.33,0.6-0.33,1
		c0,0.38,0.1,0.69,0.29,0.95c0.19,0.25,0.42,0.38,0.7,0.38c0.11,0,0.22-0.03,0.34-0.09c0.12-0.06,0.24-0.15,0.36-0.27V56.3z"/>
	<polygon class="st2" points="131.43,59.9 133.27,57.52 131.54,55.07 133.5,55.07 134.3,56.2 135.18,55.07 136.83,55.07 
		135.09,57.33 136.91,59.9 134.94,59.9 134.06,58.65 133.09,59.9 	"/>
	<path class="st2" d="M142.23,55.07v3.02c0,0.38,0.01,0.7,0.02,0.95c0.01,0.26,0.04,0.48,0.06,0.66l-1.56,0.43l-0.15-0.46
		c-0.21,0.16-0.42,0.27-0.62,0.35c-0.2,0.07-0.41,0.11-0.64,0.11c-0.62,0-1.14-0.25-1.57-0.74s-0.64-1.11-0.64-1.85
		c0-0.78,0.24-1.42,0.71-1.93c0.48-0.51,1.08-0.76,1.8-0.76c0.17,0,0.34,0.02,0.53,0.07c0.18,0.05,0.38,0.12,0.61,0.21L142.23,55.07
		z M140.54,56.3c-0.1-0.06-0.2-0.1-0.29-0.12c-0.09-0.02-0.18-0.04-0.27-0.04c-0.32,0-0.59,0.13-0.8,0.4c-0.22,0.27-0.33,0.6-0.33,1
		c0,0.38,0.1,0.69,0.29,0.95c0.19,0.25,0.42,0.38,0.7,0.38c0.11,0,0.22-0.03,0.34-0.09c0.12-0.06,0.24-0.15,0.36-0.27V56.3z"/>
	<path class="st2" d="M147.83,59.63c-0.3,0.17-0.59,0.29-0.88,0.37c-0.29,0.08-0.58,0.12-0.89,0.12c-0.8,0-1.46-0.24-1.98-0.72
		c-0.52-0.48-0.77-1.09-0.77-1.83c0-0.77,0.28-1.41,0.83-1.93c0.56-0.52,1.25-0.78,2.09-0.78c0.31,0,0.61,0.04,0.9,0.1
		c0.29,0.07,0.58,0.17,0.85,0.31l-0.19,1.5c-0.26-0.16-0.52-0.28-0.76-0.37c-0.24-0.08-0.47-0.13-0.68-0.13
		c-0.38,0-0.69,0.12-0.94,0.35c-0.25,0.23-0.37,0.52-0.37,0.86c0,0.36,0.12,0.66,0.35,0.88c0.23,0.22,0.54,0.33,0.92,0.33
		c0.24,0,0.49-0.05,0.76-0.15c0.27-0.1,0.58-0.27,0.93-0.5L147.83,59.63z"/>
	<path class="st2" d="M153.87,55.07v3.02c0,0.38,0.01,0.7,0.02,0.95c0.01,0.26,0.04,0.48,0.06,0.66l-1.56,0.43l-0.15-0.46
		c-0.21,0.16-0.42,0.27-0.62,0.35c-0.2,0.07-0.41,0.11-0.64,0.11c-0.62,0-1.14-0.25-1.57-0.74c-0.42-0.5-0.64-1.11-0.64-1.85
		c0-0.78,0.24-1.42,0.71-1.93c0.48-0.51,1.08-0.76,1.8-0.76c0.17,0,0.34,0.02,0.53,0.07c0.18,0.05,0.38,0.12,0.61,0.21L153.87,55.07
		z M152.19,56.3c-0.1-0.06-0.2-0.1-0.29-0.12c-0.09-0.02-0.18-0.04-0.27-0.04c-0.32,0-0.59,0.13-0.8,0.4c-0.22,0.27-0.33,0.6-0.33,1
		c0,0.38,0.1,0.69,0.29,0.95c0.19,0.25,0.42,0.38,0.7,0.38c0.11,0,0.22-0.03,0.34-0.09c0.12-0.06,0.24-0.15,0.36-0.27V56.3z"/>
	<polygon class="st2" points="55.49,67.7 56.42,62.41 57.06,62.41 56.12,67.7 	"/>
	<path class="st2" d="M57.31,67.7l0.58-3.28h0.58l-0.1,0.55c0.23-0.21,0.47-0.37,0.71-0.48c0.24-0.11,0.48-0.16,0.71-0.16
		c0.31,0,0.56,0.09,0.75,0.27c0.19,0.18,0.28,0.41,0.28,0.71c0,0.06,0,0.12-0.01,0.18c-0.01,0.06-0.02,0.12-0.03,0.19l-0.36,2.03
		h-0.58l0.37-2.05c0.01-0.05,0.02-0.11,0.02-0.16c0-0.05,0.01-0.1,0.01-0.13c0-0.17-0.06-0.3-0.17-0.4
		c-0.11-0.1-0.26-0.14-0.46-0.14c-0.35,0-0.67,0.12-0.94,0.37c-0.27,0.24-0.44,0.57-0.52,0.99l-0.27,1.53H57.31z"/>
	<path class="st2" d="M61.19,67.26l0.3-0.41c0.18,0.18,0.36,0.32,0.54,0.41c0.18,0.09,0.37,0.14,0.55,0.14
		c0.19,0,0.35-0.04,0.46-0.13c0.12-0.08,0.17-0.2,0.17-0.34c0-0.11-0.04-0.21-0.12-0.3c-0.08-0.09-0.22-0.18-0.41-0.29l-0.29-0.15
		c-0.27-0.14-0.46-0.29-0.58-0.44c-0.12-0.15-0.18-0.33-0.18-0.54c0-0.28,0.11-0.51,0.32-0.69c0.22-0.18,0.49-0.27,0.83-0.27
		c0.24,0,0.46,0.05,0.67,0.14c0.21,0.09,0.41,0.23,0.6,0.41l-0.26,0.38c-0.16-0.17-0.33-0.29-0.5-0.37
		c-0.17-0.08-0.35-0.12-0.53-0.12c-0.18,0-0.33,0.04-0.44,0.13c-0.11,0.09-0.17,0.2-0.17,0.34c0,0.17,0.16,0.35,0.47,0.52
		c0.03,0.01,0.05,0.03,0.06,0.03l0.21,0.11c0.36,0.2,0.6,0.37,0.71,0.51c0.11,0.14,0.16,0.31,0.16,0.51c0,0.3-0.11,0.54-0.33,0.73
		c-0.22,0.18-0.51,0.27-0.87,0.27c-0.26,0-0.5-0.05-0.73-0.15C61.62,67.6,61.4,67.45,61.19,67.26"/>
	<path class="st2" d="M65,67.3l-0.35,1.99h-0.58l0.86-4.87h0.58l-0.08,0.43c0.19-0.19,0.38-0.32,0.56-0.4
		c0.18-0.08,0.38-0.12,0.6-0.12c0.41,0,0.73,0.14,0.97,0.41c0.24,0.27,0.37,0.64,0.37,1.1c0,0.58-0.17,1.05-0.51,1.44
		c-0.34,0.38-0.76,0.57-1.27,0.57c-0.23,0-0.43-0.04-0.61-0.12C65.38,67.64,65.19,67.5,65,67.3 M65.1,66.74
		c0.17,0.22,0.33,0.39,0.5,0.5c0.17,0.11,0.35,0.16,0.54,0.16c0.34,0,0.62-0.15,0.85-0.46c0.23-0.31,0.35-0.69,0.35-1.15
		c0-0.31-0.08-0.55-0.23-0.74c-0.15-0.19-0.35-0.28-0.6-0.28c-0.22,0-0.42,0.06-0.6,0.17c-0.18,0.11-0.38,0.3-0.6,0.56L65.1,66.74z"
		/>
	<path class="st2" d="M68.39,67.7l0.58-3.28h0.58l-0.58,3.28H68.39z M69.05,63.17c0-0.11,0.04-0.2,0.12-0.28
		c0.08-0.08,0.17-0.11,0.28-0.11c0.11,0,0.2,0.04,0.27,0.11c0.08,0.08,0.11,0.17,0.11,0.28c0,0.11-0.04,0.2-0.11,0.27
		c-0.08,0.08-0.17,0.11-0.27,0.11c-0.1,0-0.2-0.04-0.28-0.11C69.09,63.37,69.05,63.28,69.05,63.17"/>
	<path class="st2" d="M69.95,67.7l0.58-3.28h0.52l-0.1,0.6c0.21-0.24,0.43-0.41,0.65-0.52c0.22-0.11,0.46-0.16,0.72-0.16h0.05
		l-0.1,0.58c-0.43,0.01-0.77,0.13-1.01,0.36c-0.25,0.23-0.42,0.59-0.5,1.07l-0.24,1.36H69.95z"/>
	<path class="st2" d="M74.82,67.7l0.06-0.33c-0.17,0.15-0.34,0.26-0.52,0.34c-0.18,0.07-0.37,0.11-0.56,0.11
		c-0.42,0-0.75-0.15-1.02-0.44c-0.26-0.29-0.39-0.66-0.39-1.12c0-0.54,0.17-1,0.52-1.38c0.35-0.39,0.76-0.58,1.23-0.58
		c0.24,0,0.46,0.04,0.65,0.13c0.19,0.09,0.37,0.23,0.54,0.42l0.08-0.43h0.57l-0.58,3.28H74.82z M75.23,65.38
		c-0.14-0.22-0.3-0.39-0.46-0.5c-0.16-0.11-0.34-0.16-0.54-0.16c-0.34,0-0.64,0.15-0.89,0.46c-0.25,0.31-0.38,0.67-0.38,1.1
		c0,0.32,0.09,0.58,0.26,0.78c0.18,0.2,0.4,0.3,0.68,0.3c0.32,0,0.58-0.12,0.79-0.37c0.21-0.25,0.35-0.6,0.43-1.06L75.23,65.38z"/>
	<path class="st2" d="M76.37,67.7l0.58-3.28h0.58l-0.1,0.55c0.23-0.21,0.47-0.37,0.71-0.48c0.24-0.11,0.48-0.16,0.71-0.16
		c0.31,0,0.56,0.09,0.75,0.27c0.19,0.18,0.28,0.41,0.28,0.71c0,0.06,0,0.12-0.01,0.18c-0.01,0.06-0.02,0.12-0.03,0.19l-0.36,2.03
		H78.9l0.37-2.05c0.01-0.05,0.02-0.11,0.02-0.16c0-0.05,0.01-0.1,0.01-0.13c0-0.17-0.06-0.3-0.17-0.4c-0.11-0.1-0.26-0.14-0.46-0.14
		c-0.35,0-0.67,0.12-0.94,0.37s-0.44,0.57-0.52,0.99l-0.27,1.53H76.37z"/>
	<path class="st2" d="M82.94,67.7L83,67.37c-0.17,0.15-0.34,0.26-0.52,0.34s-0.37,0.11-0.56,0.11c-0.42,0-0.75-0.15-1.02-0.44
		c-0.26-0.29-0.39-0.66-0.39-1.12c0-0.54,0.17-1,0.52-1.38c0.35-0.39,0.76-0.58,1.23-0.58c0.24,0,0.46,0.04,0.65,0.13
		c0.19,0.09,0.37,0.23,0.54,0.42l0.43-2.51h0.58l-0.94,5.36H82.94z M83.35,65.38c-0.14-0.22-0.3-0.39-0.46-0.5
		c-0.16-0.11-0.34-0.16-0.54-0.16c-0.34,0-0.64,0.15-0.89,0.46c-0.25,0.31-0.38,0.67-0.38,1.1c0,0.32,0.09,0.58,0.26,0.78
		c0.18,0.2,0.4,0.3,0.68,0.3c0.32,0,0.58-0.12,0.79-0.37c0.21-0.25,0.35-0.6,0.43-1.06L83.35,65.38z"/>
	<path class="st2" d="M84.54,66.21c0-0.55,0.18-1.01,0.54-1.39s0.8-0.57,1.32-0.57c0.5,0,0.9,0.15,1.2,0.45
		c0.3,0.3,0.46,0.69,0.46,1.18c0,0.55-0.18,1.02-0.54,1.4c-0.36,0.38-0.8,0.57-1.32,0.57c-0.5,0-0.9-0.15-1.21-0.45
		C84.7,67.09,84.54,66.7,84.54,66.21 M86.41,64.68c-0.35,0-0.65,0.15-0.89,0.44c-0.25,0.29-0.37,0.65-0.37,1.07
		c0,0.36,0.1,0.66,0.3,0.89c0.2,0.23,0.45,0.34,0.76,0.34c0.35,0,0.65-0.15,0.9-0.44c0.25-0.29,0.37-0.65,0.37-1.08
		c0-0.36-0.1-0.65-0.3-0.88C86.98,64.8,86.72,64.68,86.41,64.68"/>
	<path class="st2" d="M93.61,67.48c-0.23,0.13-0.44,0.22-0.65,0.28c-0.21,0.06-0.42,0.09-0.65,0.09c-0.47,0-0.86-0.15-1.17-0.46
		c-0.31-0.31-0.46-0.7-0.46-1.18c0-0.55,0.19-1.02,0.56-1.39c0.37-0.37,0.84-0.56,1.39-0.56c0.26,0,0.5,0.04,0.73,0.13
		s0.43,0.21,0.61,0.37l-0.14,0.49c-0.21-0.18-0.42-0.31-0.61-0.4c-0.2-0.08-0.39-0.13-0.59-0.13c-0.39,0-0.71,0.14-0.97,0.42
		c-0.26,0.28-0.39,0.63-0.39,1.04c0,0.36,0.1,0.65,0.31,0.86c0.21,0.21,0.48,0.32,0.83,0.32c0.15,0,0.31-0.03,0.49-0.1
		c0.18-0.07,0.38-0.17,0.61-0.31L93.61,67.48z"/>
	<path class="st2" d="M94.14,67.7l0.58-3.28h0.52l-0.1,0.6c0.21-0.24,0.43-0.41,0.65-0.52c0.22-0.11,0.46-0.16,0.72-0.16h0.05
		l-0.1,0.58c-0.43,0.01-0.76,0.13-1.01,0.36c-0.25,0.23-0.42,0.59-0.5,1.07l-0.24,1.36H94.14z"/>
	<path class="st2" d="M99.39,67.52c-0.2,0.11-0.4,0.2-0.6,0.25c-0.2,0.06-0.4,0.08-0.6,0.08c-0.48,0-0.87-0.15-1.16-0.45
		c-0.3-0.3-0.45-0.7-0.45-1.18c0-0.54,0.18-1.01,0.54-1.39c0.36-0.38,0.8-0.57,1.31-0.57c0.46,0,0.81,0.13,1.08,0.4
		c0.26,0.27,0.39,0.64,0.39,1.11c0,0.07-0.01,0.16-0.01,0.28v0.04l-0.06,0.08h-2.65v0.1c0,0.33,0.1,0.6,0.3,0.8
		c0.2,0.2,0.46,0.3,0.78,0.3c0.23,0,0.44-0.04,0.64-0.11c0.2-0.08,0.39-0.19,0.56-0.34L99.39,67.52z M97.24,65.77h2.13v-0.11
		c0-0.3-0.08-0.54-0.25-0.71c-0.17-0.18-0.39-0.26-0.67-0.26c-0.29,0-0.54,0.1-0.76,0.29C97.47,65.18,97.32,65.44,97.24,65.77"/>
	<path class="st2" d="M102.79,67.7l0.06-0.33c-0.17,0.15-0.34,0.26-0.52,0.34c-0.18,0.07-0.37,0.11-0.56,0.11
		c-0.42,0-0.75-0.15-1.02-0.44c-0.26-0.29-0.39-0.66-0.39-1.12c0-0.54,0.17-1,0.52-1.38c0.35-0.39,0.76-0.58,1.23-0.58
		c0.24,0,0.46,0.04,0.65,0.13c0.19,0.09,0.37,0.23,0.54,0.42l0.08-0.43h0.57l-0.58,3.28H102.79z M103.2,65.38
		c-0.14-0.22-0.3-0.39-0.46-0.5c-0.16-0.11-0.34-0.16-0.54-0.16c-0.34,0-0.64,0.15-0.89,0.46c-0.25,0.31-0.38,0.67-0.38,1.1
		c0,0.32,0.09,0.58,0.26,0.78c0.18,0.2,0.4,0.3,0.68,0.3c0.32,0,0.58-0.12,0.79-0.37c0.21-0.25,0.35-0.6,0.43-1.06L103.2,65.38z"/>
	<path class="st2" d="M104.99,64.84h-0.77l0.08-0.43h0.77l0.18-1.05l0.62-0.21l-0.23,1.25h0.9l-0.07,0.43h-0.9l-0.35,2
		c0,0.01,0,0.03-0.01,0.05c-0.01,0.06-0.01,0.1-0.01,0.13c0,0.09,0.03,0.16,0.1,0.21c0.06,0.05,0.16,0.07,0.27,0.07
		c0.09,0,0.17-0.01,0.27-0.03c0.09-0.02,0.2-0.05,0.31-0.08l-0.09,0.51c-0.11,0.03-0.21,0.05-0.3,0.07
		c-0.09,0.02-0.18,0.02-0.26,0.02c-0.29,0-0.51-0.06-0.66-0.17c-0.15-0.12-0.23-0.28-0.23-0.5c0-0.06,0.01-0.14,0.03-0.26
		c0.01-0.05,0.02-0.08,0.02-0.1L104.99,64.84z"/>
	<path class="st2" d="M106.55,67.7l0.58-3.28h0.58l-0.58,3.28H106.55z M107.21,63.17c0-0.11,0.04-0.2,0.12-0.28
		c0.08-0.08,0.17-0.11,0.28-0.11c0.11,0,0.2,0.04,0.27,0.11c0.08,0.08,0.11,0.17,0.11,0.28c0,0.11-0.04,0.2-0.11,0.27
		c-0.08,0.08-0.17,0.11-0.27,0.11c-0.1,0-0.2-0.04-0.28-0.11C107.25,63.37,107.21,63.28,107.21,63.17"/>
	<polygon class="st2" points="109.22,67.87 108.05,64.41 108.67,64.41 109.42,66.76 110.71,64.41 111.26,64.41 109.31,67.87 	"/>
	<path class="st2" d="M111.29,67.7l0.58-3.28h0.58l-0.58,3.28H111.29z M111.95,63.17c0-0.11,0.04-0.2,0.12-0.28
		c0.08-0.08,0.17-0.11,0.28-0.11c0.11,0,0.2,0.04,0.27,0.11c0.08,0.08,0.11,0.17,0.11,0.28c0,0.11-0.04,0.2-0.11,0.27
		c-0.08,0.08-0.17,0.11-0.27,0.11c-0.1,0-0.2-0.04-0.28-0.11C111.99,63.37,111.95,63.28,111.95,63.17"/>
	<path class="st2" d="M115.34,67.7l0.06-0.33c-0.17,0.15-0.34,0.26-0.52,0.34c-0.18,0.07-0.37,0.11-0.56,0.11
		c-0.42,0-0.75-0.15-1.02-0.44c-0.26-0.29-0.39-0.66-0.39-1.12c0-0.54,0.17-1,0.52-1.38c0.35-0.39,0.76-0.58,1.23-0.58
		c0.24,0,0.46,0.04,0.65,0.13c0.19,0.09,0.37,0.23,0.54,0.42l0.43-2.51h0.58l-0.94,5.36H115.34z M115.75,65.38
		c-0.14-0.22-0.3-0.39-0.46-0.5c-0.16-0.11-0.34-0.16-0.54-0.16c-0.34,0-0.64,0.15-0.89,0.46c-0.25,0.31-0.38,0.67-0.38,1.1
		c0,0.32,0.09,0.58,0.26,0.78c0.18,0.2,0.4,0.3,0.68,0.3c0.32,0,0.58-0.12,0.79-0.37c0.21-0.25,0.35-0.6,0.43-1.06L115.75,65.38z"/>
	<path class="st2" d="M119.4,67.7l0.06-0.33c-0.17,0.15-0.34,0.26-0.52,0.34c-0.18,0.07-0.37,0.11-0.56,0.11
		c-0.42,0-0.75-0.15-1.02-0.44c-0.26-0.29-0.39-0.66-0.39-1.12c0-0.54,0.17-1,0.52-1.38c0.35-0.39,0.76-0.58,1.23-0.58
		c0.24,0,0.46,0.04,0.65,0.13c0.19,0.09,0.37,0.23,0.54,0.42l0.08-0.43h0.57l-0.58,3.28H119.4z M119.81,65.38
		c-0.14-0.22-0.3-0.39-0.46-0.5c-0.16-0.11-0.34-0.16-0.54-0.16c-0.34,0-0.64,0.15-0.89,0.46c-0.25,0.31-0.38,0.67-0.38,1.1
		c0,0.32,0.09,0.58,0.26,0.78c0.18,0.2,0.4,0.3,0.68,0.3c0.32,0,0.58-0.12,0.79-0.37c0.21-0.25,0.35-0.6,0.43-1.06L119.81,65.38z"/>
	<path class="st2" d="M123.44,67.7l0.06-0.33c-0.17,0.15-0.34,0.26-0.52,0.34c-0.18,0.07-0.37,0.11-0.56,0.11
		c-0.42,0-0.75-0.15-1.02-0.44c-0.26-0.29-0.39-0.66-0.39-1.12c0-0.54,0.17-1,0.52-1.38c0.35-0.39,0.76-0.58,1.23-0.58
		c0.24,0,0.46,0.04,0.65,0.13c0.19,0.09,0.37,0.23,0.54,0.42l0.43-2.51h0.58l-0.94,5.36H123.44z M123.85,65.38
		c-0.14-0.22-0.3-0.39-0.46-0.5c-0.16-0.11-0.34-0.16-0.54-0.16c-0.34,0-0.64,0.15-0.89,0.46c-0.25,0.31-0.38,0.67-0.38,1.1
		c0,0.32,0.09,0.58,0.26,0.78c0.18,0.2,0.4,0.3,0.68,0.3c0.32,0,0.58-0.12,0.79-0.37c0.21-0.25,0.35-0.6,0.43-1.06L123.85,65.38z"/>
</g>
</svg>
