<?xml version="1.0" encoding="utf-8"?>
<!-- Generator: Adobe Illustrator 25.4.1, SVG Export Plug-In . SVG Version: 6.00 Build 0)  -->
<svg version="1.1" id="Capa_1" xmlns="http://www.w3.org/2000/svg" xmlns:xlink="http://www.w3.org/1999/xlink" x="0px" y="0px"
	 viewBox="0 0 180 79" style="enable-background:new 0 0 180 79;" xml:space="preserve">
<style type="text/css">
	.st0{fill:#F3F4F5;}
	.st1{fill:#B4CAE3;}
	.st2{fill:#2DAAE4;}
	.st3{fill:#868686;}
</style>
<path class="st0" d="M140.8,77H39.2C18.5,77,1.8,60.2,1.8,39.5l0,0C1.8,18.8,18.5,2,39.2,2h101.5c20.7,0,37.5,16.8,37.5,37.5l0,0
	C178.2,60.2,161.5,77,140.8,77z"/>
<path class="st1" d="M140.8,78.7H39.2C17.6,78.7,0,61.1,0,39.5S17.6,0.3,39.2,0.3h101.5c21.6,0,39.2,17.6,39.2,39.2
	S162.4,78.7,140.8,78.7z M39.2,3.8c-19.7,0-35.7,16-35.7,35.7s16,35.7,35.7,35.7h101.5c19.7,0,35.7-16,35.7-35.7s-16-35.7-35.7-35.7
	C140.8,3.8,39.2,3.8,39.2,3.8z"/>
<g>
	<g id="SIMBOLO">
		<path id="path7" class="st2" d="M34.6,15.8c-13.1,0-23.7,10.6-23.7,23.7s10.6,23.7,23.7,23.7s23.7-10.6,23.7-23.7
			S47.7,15.8,34.6,15.8z M33.5,61.4c-12.1,0-22.1-9.8-22.1-21.9s10-21.9,22.1-21.9s21.9,9.8,21.9,21.9S45.6,61.4,33.5,61.4
			L33.5,61.4z"/>
		<path id="path9" class="st2" d="M32.4,19.3c-11.1,0-20.6,9-20.6,20.2s9.5,20.2,20.6,20.2s20.2-9,20.2-20.2S43.5,19.3,32.4,19.3
			L32.4,19.3z M31.3,57.9c-10.2,0-19.1-8.2-19.1-18.4s8.9-18.4,19.1-18.4s18.4,8.2,18.4,18.4S41.5,57.9,31.3,57.9z"/>
		<path id="path11" class="st2" d="M30.2,22.8c-9.2,0-17.5,7.5-17.5,16.7S21,56.2,30.2,56.2s16.6-7.5,16.6-16.7S39.4,22.8,30.2,22.8
			L30.2,22.8z M29.1,54.4c-8.2,0-16-6.7-16-14.9s7.8-14.9,16-14.9S44,31.3,44,39.5S37.3,54.4,29.1,54.4L29.1,54.4z"/>
		<path id="path13" class="st2" d="M28,26.4c-7.3,0-14.5,5.9-14.5,13.1S20.8,52.6,28,52.6s13.2-5.9,13.2-13.1S35.3,26.4,28,26.4z
			 M26.9,50.9c-6.3,0-12.9-5.1-12.9-11.4s6.6-11.4,12.9-11.4s11.4,5.1,11.4,11.4S33.2,50.9,26.9,50.9L26.9,50.9z"/>
		<path id="path15" class="st2" d="M25.8,29.9c-5.3,0-11.4,4.3-11.4,9.6s6.1,9.6,11.4,9.6s9.6-4.3,9.6-9.6S31.2,29.9,25.8,29.9
			L25.8,29.9z M24.7,47.4c-4.4,0-9.9-3.5-9.9-7.9s5.5-7.9,9.9-7.9s7.9,3.5,7.9,7.9S29.1,47.4,24.7,47.4z"/>
	</g>
	<g>
		<g id="DESCARTES">
			<path id="path18" class="st3" d="M66.5,27.5c4.9,0,7.3,3.7,7.3,7.5s-2.4,7.5-7.3,7.5h-5.4V27.5C61.2,27.5,66.5,27.5,66.5,27.5z
				 M66.5,40.3c3.5,0,5.2-2.6,5.2-5.3s-1.7-5.3-5.2-5.3h-3.2v10.6L66.5,40.3L66.5,40.3z"/>
			<path id="path20" class="st3" d="M77.4,40.3h6.9v2.1h-9.1V27.5h9.1v2.1h-6.9v4.2h6.8v2.2h-6.8L77.4,40.3L77.4,40.3z"/>
			<path id="path22" class="st3" d="M93.6,31.4c-0.3-1.3-1.7-1.9-3.1-1.9c-1,0-2.1,0.4-2.7,1.1c-0.3,0.4-0.4,0.9-0.4,1.4
				c0.1,1.5,1.8,1.7,3.4,1.9c2,0.3,4.6,0.8,5.2,3.2c0.1,0.3,0.1,0.7,0.1,1c0,2.9-2.9,4.5-5.5,4.5c-2.3,0-5.1-1.4-5.4-4l0-0.4l2.2,0
				l0,0.3v-0.1c0.2,1.4,1.8,2.1,3.2,2.1c1.6,0,3.4-0.9,3.4-2.4c0-0.2,0-0.3-0.1-0.5c-0.3-1.1-1.8-1.3-3.3-1.5
				c-2.3-0.2-5.1-0.8-5.3-3.9v0c-0.1-1,0.2-2,0.8-2.8c1-1.3,2.8-2,4.5-2c2.3,0,4.7,1.2,5.1,3.9L93.6,31.4L93.6,31.4z"/>
			<path id="path24" class="st3" d="M99.4,29.7c1.3-1.3,3.1-2.2,5.2-2.2c3.4,0,6.1,2.1,7,5.5h-2.1c-0.8-2.2-2.6-3.4-4.8-3.4
				c-1.4,0-2.7,0.6-3.7,1.6c-0.9,1-1.5,2.3-1.5,3.8c0,1.5,0.6,2.8,1.5,3.8c0.9,1,2.2,1.6,3.7,1.6c2.3,0,4.2-1.3,4.9-3.6h2.1
				c-0.9,3.4-3.6,5.7-7.1,5.7c-2,0-3.9-0.9-5.2-2.2c-1.3-1.4-2.1-3.2-2.1-5.3C97.2,32.9,98.1,31,99.4,29.7L99.4,29.7z"/>
			<path id="path26" class="st3" d="M121.1,38.1h-5.4c-0.6,1.4-1.3,3.2-1.8,4.4h-2.3l6-15.1h1.6l6,15.1h-2.3L121.1,38.1L121.1,38.1z
				 M116.5,36h3.7l-1.8-5.3L116.5,36z"/>
			<path id="path28" class="st3" d="M128.6,34.9h2.5c1.8,0,2.7-1.3,2.7-2.6c0-1.3-0.9-2.6-2.7-2.6h-3.3v12.8h-2.1V27.5h5.4
				c3.2,0,4.9,2.4,4.9,4.8c0,2.1-1.3,4.1-3.9,4.6l4.7,5.6H134l-5.4-6.6L128.6,34.9L128.6,34.9z"/>
			<path id="path30" class="st3" d="M140.9,42.5V29.7h-4.5v-2.2h11.2v2.2H143v12.8H140.9L140.9,42.5z"/>
			<path id="path32" class="st3" d="M150.8,40.3h6.9v2.1h-9.1V27.5h9.1v2.1h-6.9v4.2h6.8v2.2h-6.8L150.8,40.3L150.8,40.3z"/>
			<path id="path34" class="st3" d="M167.1,31.4c-0.3-1.3-1.7-1.9-3.1-1.9c-1,0-2.1,0.4-2.7,1.1c-0.3,0.4-0.4,0.9-0.4,1.4
				c0.1,1.5,1.8,1.7,3.4,1.9c2,0.3,4.6,0.8,5.2,3.2c0.1,0.3,0.1,0.7,0.1,1c0,2.9-2.9,4.5-5.5,4.5c-2.3,0-5.1-1.4-5.4-4l0-0.4l2.2,0
				l0,0.3v-0.1c0.2,1.4,1.8,2.1,3.2,2.1c1.6,0,3.4-0.9,3.4-2.4c0-0.2,0-0.3-0.1-0.5c-0.3-1.1-1.8-1.3-3.3-1.5
				c-2.3-0.2-5.1-0.8-5.3-3.9v0c-0.1-1,0.2-2,0.8-2.8c1-1.3,2.8-2,4.5-2c2.3,0,4.7,1.2,5.1,3.9L167.1,31.4L167.1,31.4z"/>
		</g>
		<g id="MATEMATICAS">
			<path id="path37" class="st2" d="M66.5,51.5v-3.2c0-0.3-0.1-0.5-0.3-0.8c-0.2-0.2-0.5-0.3-0.8-0.3c-0.7,0-1.1,0.4-1.1,1.1v3.2
				h-0.5v-3.2c0-0.3-0.1-0.6-0.3-0.8c-0.2-0.2-0.5-0.3-0.8-0.3c-0.3,0-0.6,0.1-0.8,0.3c-0.2,0.2-0.3,0.5-0.3,0.8v3.2h-0.5v-4.7h0.5
				v0.5c0.2-0.3,0.6-0.5,1.1-0.5c0.6,0,1,0.2,1.3,0.7c0.3-0.5,0.7-0.7,1.3-0.7c0.5,0,0.8,0.1,1.1,0.4c0.3,0.3,0.4,0.6,0.4,1.1v3.2
				H66.5L66.5,51.5z"/>
			<path id="path39" class="st2" d="M72.6,51.5v-0.8c-0.5,0.6-1.1,0.9-1.9,0.9c-0.7,0-1.2-0.2-1.7-0.7c-0.5-0.5-0.7-1-0.7-1.7
				c0-0.7,0.2-1.2,0.7-1.7c0.5-0.5,1-0.7,1.7-0.7c0.8,0,1.4,0.3,1.9,0.9v-0.8h0.5v4.7H72.6z M72.2,47.8c-0.4-0.4-0.8-0.6-1.4-0.6
				s-1,0.2-1.4,0.6c-0.4,0.4-0.6,0.8-0.6,1.4s0.2,1,0.6,1.4c0.4,0.4,0.8,0.6,1.4,0.6c0.5,0,1-0.2,1.4-0.6c0.4-0.4,0.6-0.8,0.6-1.4
				S72.5,48.2,72.2,47.8z"/>
			<path id="path41" class="st2" d="M75.4,47.3v4.2h-0.5v-4.2h-0.6v-0.5h0.6v-2h0.5v2h1.1v0.5H75.4z"/>
			<path id="path43" class="st2" d="M77.8,49.1c0,0.6,0.2,1.1,0.5,1.5s0.8,0.6,1.5,0.6c0.3,0,0.6,0,0.9-0.2c0.3-0.1,0.6-0.4,0.9-0.8
				l0.4,0.2c-0.3,0.6-0.8,0.9-1.4,1.1c-0.2,0.1-0.5,0.1-0.8,0.1c-0.7,0-1.3-0.2-1.7-0.7c-0.5-0.5-0.7-1-0.7-1.7
				c0-0.7,0.2-1.3,0.7-1.7s1-0.7,1.7-0.7c0.7,0,1.3,0.2,1.7,0.6c0.5,0.4,0.7,1,0.7,1.7L77.8,49.1L77.8,49.1z M81,47.6
				c-0.4-0.3-0.8-0.4-1.2-0.4c-1,0-1.6,0.5-1.9,1.4h3.8C81.6,48.2,81.4,47.8,81,47.6z"/>
			<path id="path45" class="st2" d="M88.8,51.5v-3.2c0-0.3-0.1-0.5-0.3-0.8c-0.2-0.2-0.5-0.3-0.8-0.3c-0.7,0-1.1,0.4-1.1,1.1v3.2
				h-0.5v-3.2c0-0.3-0.1-0.6-0.3-0.8c-0.2-0.2-0.5-0.3-0.8-0.3c-0.3,0-0.6,0.1-0.8,0.3c-0.2,0.2-0.3,0.5-0.3,0.8v3.2h-0.5v-4.7h0.5
				v0.5c0.2-0.3,0.6-0.5,1.1-0.5c0.6,0,1,0.2,1.3,0.7c0.3-0.5,0.7-0.7,1.3-0.7c0.5,0,0.8,0.1,1.1,0.4c0.3,0.3,0.4,0.6,0.4,1.1v3.2
				H88.8z"/>
			<path id="path47" class="st2" d="M94.9,51.5v-0.8c-0.5,0.6-1.1,0.9-1.9,0.9c-0.7,0-1.2-0.2-1.7-0.7c-0.5-0.5-0.7-1-0.7-1.7
				c0-0.7,0.2-1.2,0.7-1.7c0.5-0.5,1-0.7,1.7-0.7c0.7,0,1.4,0.3,1.9,0.9v-0.8h0.5v4.7H94.9z M94.4,47.8c-0.4-0.4-0.8-0.6-1.4-0.6
				c-0.5,0-1,0.2-1.4,0.6s-0.6,0.8-0.6,1.4s0.2,1,0.6,1.4c0.4,0.4,0.8,0.6,1.4,0.6c0.5,0,1-0.2,1.4-0.6c0.4-0.4,0.6-0.8,0.6-1.4
				S94.8,48.2,94.4,47.8z M92.9,46.2l-0.3-0.3l1.5-1.5l0.3,0.3L92.9,46.2L92.9,46.2z"/>
			<path id="path49" class="st2" d="M97.6,47.3v4.2h-0.5v-4.2h-0.6v-0.5h0.6v-2h0.5v2h1.1v0.5H97.6z"/>
			<path id="path51" class="st2" d="M100.3,46c-0.1,0-0.2,0-0.3-0.1c-0.1-0.1-0.1-0.2-0.1-0.3c0-0.2,0.1-0.3,0.4-0.4
				c0.2,0,0.3,0.1,0.4,0.4C100.7,45.9,100.5,46,100.3,46z M100.1,51.5v-4.7h0.5v4.7H100.1z"/>
			<path id="path53" class="st2" d="M104.5,51.6c-0.7,0-1.3-0.2-1.7-0.7c-0.5-0.5-0.7-1-0.7-1.7c0-0.7,0.2-1.3,0.7-1.7
				c0.5-0.5,1-0.7,1.7-0.7c0.6,0,1.1,0.1,1.4,0.4v0.6l-0.3-0.2l-0.3-0.2c-0.3-0.1-0.6-0.2-0.8-0.2c-0.6,0-1.1,0.2-1.4,0.5
				c-0.4,0.4-0.6,0.8-0.6,1.4c0,0.6,0.2,1,0.6,1.4c0.4,0.4,0.8,0.6,1.4,0.6c0.5,0,1-0.2,1.4-0.5v0.6C105.5,51.4,105,51.6,104.5,51.6
				L104.5,51.6z"/>
			<path id="path55" class="st2" d="M110.7,51.5v-0.8c-0.5,0.6-1.1,0.9-1.9,0.9c-0.7,0-1.2-0.2-1.7-0.7c-0.5-0.5-0.7-1-0.7-1.7
				c0-0.7,0.2-1.2,0.7-1.7c0.5-0.5,1-0.7,1.7-0.7c0.8,0,1.4,0.3,1.9,0.9v-0.8h0.5v4.7H110.7z M110.2,47.8c-0.4-0.4-0.8-0.6-1.4-0.6
				c-0.5,0-1,0.2-1.4,0.6c-0.4,0.4-0.6,0.8-0.6,1.4s0.2,1,0.6,1.4c0.4,0.4,0.8,0.6,1.4,0.6c0.5,0,1-0.2,1.4-0.6
				c0.4-0.4,0.6-0.8,0.6-1.4S110.6,48.2,110.2,47.8z"/>
			<path id="path57" class="st2" d="M115,51.2c-0.3,0.3-0.7,0.4-1.1,0.4c-0.7,0-1.3-0.3-1.6-1l0.4-0.2c0.1,0.2,0.3,0.4,0.5,0.5
				c0.2,0.2,0.5,0.2,0.8,0.2c0.7,0,1.1-0.3,1.1-0.9c0-0.3-0.1-0.5-0.4-0.7c-0.1,0-0.2-0.1-0.3-0.2s-0.3-0.1-0.5-0.2
				c-0.4-0.1-0.6-0.3-0.8-0.4c-0.2-0.2-0.4-0.5-0.4-0.8c0-0.3,0.1-0.6,0.4-0.8c0.2-0.2,0.5-0.3,0.9-0.3c0.5,0,1,0.2,1.3,0.5
				l-0.3,0.3c-0.3-0.3-0.6-0.4-1-0.4c-0.5,0-0.8,0.2-0.8,0.7c0,0.2,0.1,0.4,0.2,0.5c0.1,0.1,0.3,0.2,0.6,0.3
				c0.3,0.1,0.5,0.2,0.6,0.3c0.2,0.1,0.3,0.2,0.4,0.2c0.3,0.3,0.5,0.6,0.5,1C115.5,50.6,115.3,50.9,115,51.2L115,51.2z"/>
			<path id="path59" class="st2" d="M120.1,46c-0.1,0-0.2,0-0.3-0.1c-0.1-0.1-0.1-0.2-0.1-0.3c0-0.2,0.1-0.3,0.4-0.4
				c0.2,0,0.3,0.1,0.4,0.4C120.5,45.9,120.3,46,120.1,46z M119.9,51.5v-4.7h0.5v4.7H119.9z"/>
			<path id="path61" class="st2" d="M124.7,51.5v-2.8c0-1-0.5-1.5-1.3-1.5c-0.4,0-0.8,0.1-1,0.4c-0.2,0.3-0.3,0.6-0.3,1.1v2.8h-0.5
				v-4.7h0.5v0.6c0.2-0.4,0.7-0.6,1.3-0.6c0.6,0,1,0.2,1.3,0.5s0.5,0.8,0.5,1.4v2.8H124.7z"/>
			<path id="path63" class="st2" d="M127.6,47.3v4.2h-0.5v-4.2h-0.6v-0.5h0.6v-2h0.5v2h1.1v0.5H127.6z"/>
			<path id="path65" class="st2" d="M130,49.1c0,0.6,0.2,1.1,0.5,1.5s0.8,0.6,1.5,0.6c0.3,0,0.6,0,0.9-0.2c0.3-0.1,0.6-0.4,0.9-0.8
				l0.4,0.2c-0.3,0.6-0.8,0.9-1.4,1.1c-0.2,0.1-0.5,0.1-0.8,0.1c-0.7,0-1.3-0.2-1.7-0.7c-0.5-0.5-0.7-1-0.7-1.7
				c0-0.7,0.2-1.3,0.7-1.7c0.5-0.5,1-0.7,1.7-0.7c0.7,0,1.3,0.2,1.7,0.6c0.5,0.4,0.7,1,0.7,1.7L130,49.1L130,49.1z M133.2,47.6
				c-0.4-0.3-0.8-0.4-1.2-0.4c-1,0-1.6,0.5-1.9,1.4h3.8C133.7,48.2,133.5,47.8,133.2,47.6z"/>
			<path id="path67" class="st2" d="M137.8,47.5c-0.1-0.1-0.3-0.2-0.4-0.2s-0.3-0.1-0.4-0.1c-0.1,0-0.3,0-0.4,0.1
				c-0.1,0.1-0.2,0.2-0.3,0.3c-0.1,0.1-0.2,0.2-0.2,0.4s-0.1,0.3-0.1,0.4v3.1h-0.5v-4.7h0.5v0.6c0.1-0.2,0.2-0.3,0.4-0.5
				c0.2-0.1,0.3-0.2,0.5-0.2c0.2,0,0.4,0,0.6,0.1c0.2,0.1,0.3,0.2,0.5,0.3L137.8,47.5L137.8,47.5z"/>
			<path id="path69" class="st2" d="M143.1,51.5v-0.8c-0.5,0.6-1.1,0.9-1.9,0.9c-0.7,0-1.2-0.2-1.7-0.7c-0.5-0.5-0.7-1-0.7-1.7
				c0-0.7,0.2-1.2,0.7-1.7c0.5-0.5,1-0.7,1.7-0.7c0.7,0,1.4,0.3,1.9,0.9v-0.8h0.5v4.7H143.1z M142.6,47.8c-0.4-0.4-0.8-0.6-1.4-0.6
				c-0.5,0-1,0.2-1.4,0.6c-0.4,0.4-0.6,0.8-0.6,1.4s0.2,1,0.6,1.4c0.4,0.4,0.8,0.6,1.4,0.6c0.5,0,1-0.2,1.4-0.6
				c0.4-0.4,0.6-0.8,0.6-1.4S142.9,48.2,142.6,47.8z"/>
			<path id="path71" class="st2" d="M147.3,51.6c-0.7,0-1.3-0.2-1.7-0.7s-0.7-1-0.7-1.7c0-0.7,0.2-1.3,0.7-1.7
				c0.5-0.5,1-0.7,1.7-0.7c0.6,0,1.1,0.1,1.4,0.4v0.6l-0.3-0.2l-0.3-0.2c-0.3-0.1-0.6-0.2-0.8-0.2c-0.6,0-1.1,0.2-1.4,0.5
				c-0.4,0.4-0.6,0.8-0.6,1.4c0,0.6,0.2,1,0.6,1.4c0.4,0.4,0.8,0.6,1.4,0.6c0.5,0,1-0.2,1.4-0.5v0.6
				C148.3,51.4,147.8,51.6,147.3,51.6L147.3,51.6z"/>
			<path id="path73" class="st2" d="M151,47.3v4.2h-0.5v-4.2h-0.6v-0.5h0.6v-2h0.5v2h1.1v0.5H151z"/>
			<path id="path75" class="st2" d="M153.6,46c-0.1,0-0.2,0-0.3-0.1c-0.1-0.1-0.1-0.2-0.1-0.3c0-0.2,0.1-0.3,0.4-0.4
				c0.2,0,0.3,0.1,0.4,0.4C154,45.9,153.9,46,153.6,46z M153.4,51.5v-4.7h0.5v4.7H153.4z"/>
			<path id="path77" class="st2" d="M157.4,51.7l-2.2-4.9h0.5l1.7,3.7l1.7-3.7h0.5L157.4,51.7L157.4,51.7z"/>
			<path id="path79" class="st2" d="M164.7,51.5v-0.8c-0.5,0.6-1.1,0.9-1.9,0.9c-0.7,0-1.2-0.2-1.7-0.7c-0.5-0.5-0.7-1-0.7-1.7
				c0-0.7,0.2-1.2,0.7-1.7c0.5-0.5,1-0.7,1.7-0.7c0.8,0,1.4,0.3,1.9,0.9v-0.8h0.5v4.7H164.7z M164.2,47.8c-0.4-0.4-0.8-0.6-1.4-0.6
				s-1,0.2-1.4,0.6c-0.4,0.4-0.6,0.8-0.6,1.4s0.2,1,0.6,1.4c0.4,0.4,0.8,0.6,1.4,0.6c0.5,0,1-0.2,1.4-0.6c0.4-0.4,0.6-0.8,0.6-1.4
				C164.8,48.6,164.6,48.2,164.2,47.8z"/>
			<path id="path81" class="st2" d="M169,51.2c-0.3,0.3-0.7,0.4-1.1,0.4c-0.7,0-1.3-0.3-1.6-1l0.4-0.2c0.1,0.2,0.3,0.4,0.5,0.5
				c0.2,0.2,0.5,0.2,0.8,0.2c0.7,0,1.1-0.3,1.1-0.9c0-0.3-0.1-0.5-0.4-0.7c-0.1,0-0.2-0.1-0.3-0.2s-0.3-0.1-0.5-0.2
				c-0.4-0.1-0.6-0.3-0.8-0.4c-0.2-0.2-0.4-0.5-0.4-0.8c0-0.3,0.1-0.6,0.4-0.8c0.2-0.2,0.5-0.3,0.9-0.3c0.5,0,1,0.2,1.3,0.5
				l-0.3,0.3c-0.3-0.3-0.6-0.4-1-0.4c-0.5,0-0.8,0.2-0.8,0.7c0,0.2,0.1,0.4,0.2,0.5c0.1,0.1,0.3,0.2,0.6,0.3
				c0.3,0.1,0.5,0.2,0.6,0.3c0.2,0.1,0.3,0.2,0.4,0.2c0.3,0.3,0.5,0.6,0.5,1C169.4,50.6,169.3,50.9,169,51.2L169,51.2z"/>
		</g>
	</g>
</g>
</svg>
