<?xml version="1.0" encoding="utf-8"?>
<!-- Generator: Adobe Illustrator 25.2.1, SVG Export Plug-In . SVG Version: 6.00 Build 0)  -->
<svg version="1.1" id="Capa_1" xmlns="http://www.w3.org/2000/svg" xmlns:xlink="http://www.w3.org/1999/xlink" x="0px" y="0px"
	 viewBox="0 0 180 79" style="enable-background:new 0 0 180 79;" xml:space="preserve">
<style type="text/css">
	.st0{fill:#F3F4F5;}
	.st1{fill:#B4CAE3;}
	.st2{fill:#F7E72F;}
	.st3{fill:#BB2228;}
</style>
<g>
	<path class="st0" d="M140.76,76.99H39.24c-20.71,0-37.49-16.79-37.49-37.49v0c0-20.71,16.79-37.49,37.49-37.49h101.52
		c20.71,0,37.49,16.79,37.49,37.49v0C178.25,60.21,161.47,76.99,140.76,76.99z"/>
	<path class="st1" d="M140.76,78.74H39.24C17.6,78.74,0,61.14,0,39.5S17.6,0.26,39.24,0.26h101.52C162.4,0.26,180,17.86,180,39.5
		S162.4,78.74,140.76,78.74z M39.24,3.76C19.53,3.76,3.5,19.79,3.5,39.5c0,19.71,16.03,35.74,35.74,35.74h101.52
		c19.71,0,35.74-16.03,35.74-35.74c0-19.71-16.03-35.74-35.74-35.74H39.24z"/>
	<g>
		<g>
			<g>
				<path class="st2" d="M39.56,23.08c0,0,6.29,3.13,11.21,11.21c0,0,4.1-6.49,4.1-15.31C54.87,18.98,46.97,18.77,39.56,23.08z"/>
				<path d="M50.49,34.46c-4.87-8.01-11.07-11.09-11.08-11.09l0,0l-0.54-0.27l0.52-0.3c6.82-3.97,14-4.14,15.28-4.15l0,0
					c0.13,0,0.2,0,0.2,0l0,0l0.32,0.01v0.31c-0.01,8.93-4.13,15.46-4.15,15.49l0,0l-0.28,0.45L50.49,34.46L50.49,34.46z
					 M50.76,33.66c0.88-1.6,3.7-7.16,3.78-14.35l0,0c-1.5,0.01-8.03,0.29-14.31,3.77l0,0C41.81,24,46.69,27.19,50.76,33.66
					L50.76,33.66z"/>
			</g>
			<g>
				<path class="st2" d="M19.15,34.21c0,0,3.13-6.3,11.22-11.21c0,0-6.48-4.1-15.31-4.1C15.06,18.9,14.84,26.8,19.15,34.21z"/>
				<path d="M18.87,34.37c-3.97-6.82-4.14-14.01-4.14-15.28l0,0c0-0.13,0-0.2,0-0.2l0,0l0.01-0.32h0.31
					c8.93,0,15.46,4.13,15.49,4.15l0,0L30.99,23l-0.45,0.28c-8.01,4.87-11.08,11.07-11.09,11.08l0,0l-0.27,0.54L18.87,34.37
					L18.87,34.37z M19.16,34.21l0.28-0.16L19.16,34.21L19.16,34.21z M19.15,33.54c0.92-1.58,4.12-6.46,10.58-10.53l0,0
					c-0.66-0.37-2-1.06-3.85-1.76l0,0c-2.62-0.99-6.28-1.97-10.5-2.02l0,0C15.39,20.73,15.67,27.26,19.15,33.54L19.15,33.54z"/>
			</g>
			<g>
				<path class="st2" d="M50.72,43.35c0,0-3.13,6.29-11.21,11.21c0,0,6.49,4.1,15.31,4.1C54.81,58.66,55.03,50.76,50.72,43.35z"/>
				<path d="M54.81,58.98c-8.93-0.01-15.46-4.14-15.49-4.15l0,0l-0.44-0.28l0.45-0.27c8.01-4.87,11.09-11.06,11.09-11.08l0,0
					l0.27-0.54L51,43.18c3.96,6.82,4.14,14,4.14,15.28l0,0c0,0.13,0,0.2,0,0.2l0,0l-0.01,0.32H54.81L54.81,58.98z M43.98,56.3
					c2.62,0.99,6.28,1.97,10.5,2.02l0,0c-0.01-1.51-0.29-8.03-3.77-14.31l0,0c-0.92,1.58-4.12,6.46-10.58,10.53l0,0
					C40.8,54.91,42.14,55.61,43.98,56.3L43.98,56.3z M50.43,43.51l0.28-0.16L50.43,43.51L50.43,43.51z"/>
			</g>
			<g>
				<path class="st2" d="M30.39,54.56c0,0-6.29-3.13-11.21-11.22c0,0-4.1,6.49-4.1,15.31C15.08,58.66,22.98,58.88,30.39,54.56z"/>
				<path d="M15.07,58.99l-0.32-0.01v-0.32c0.01-8.93,4.13-15.46,4.15-15.49l0,0l0.28-0.44l0.28,0.45
					c4.87,8.01,11.06,11.08,11.08,11.09l0,0l-0.15,0.29l0.15-0.29l0.54,0.27l-0.53,0.31c-6.82,3.96-14,4.14-15.28,4.14l0,0
					C15.14,58.99,15.07,58.99,15.07,58.99L15.07,58.99z M15.41,58.33c1.5-0.01,8.03-0.29,14.31-3.77l0,0
					c-1.58-0.92-6.46-4.12-10.53-10.58l0,0C18.3,45.58,15.49,51.14,15.41,58.33L15.41,58.33z"/>
			</g>
			<g>
				<g>
					<path class="st3" d="M42.88,30.86c0,0-6.66-2.24-15.86,0c0,0,1.69-7.48,7.93-13.73C34.95,17.14,40.69,22.57,42.88,30.86z"/>
					<path d="M42.77,31.17c-0.01,0.01-2.9-0.98-7.55-0.98l0,0c-2.33,0-5.08,0.24-8.12,0.99l0,0l-0.51,0.12l0.12-0.51
						c0.01-0.03,1.7-7.57,8.01-13.88l0,0l0.22-0.23l0.23,0.22c0.02,0.02,5.8,5.48,8.02,13.88l0,0l-0.32,0.09l0.1-0.31l-0.1,0.31
						l0.32-0.09l0.15,0.59L42.77,31.17L42.77,31.17z M27.47,30.42c2.88-0.66,5.51-0.88,7.75-0.88l0,0c3.54,0,6.1,0.56,7.19,0.84l0,0
						c-1.99-6.92-6.4-11.72-7.46-12.79l0,0C29.91,22.75,27.97,28.67,27.47,30.42L27.47,30.42z"/>
				</g>
				<g>
					<path class="st3" d="M42.88,30.86c0,0,2.24,6.66,0,15.86c0,0,7.49-1.69,13.72-7.93C56.6,38.79,51.17,33.05,42.88,30.86z"/>
					<path d="M42.56,46.64c0.74-3.04,0.98-5.8,0.98-8.12l0,0c0-4.65-0.97-7.55-0.98-7.56l0,0l-0.19-0.57l0.58,0.15
						c8.4,2.22,13.86,8,13.88,8.02l0,0l0.22,0.23l-0.22,0.23c-6.32,6.31-13.86,8.01-13.89,8.02l0,0l-0.52,0.12L42.56,46.64
						L42.56,46.64z M44.2,38.52c0,2.23-0.22,4.85-0.88,7.74l0,0c1.76-0.5,7.67-2.44,12.81-7.47l0,0c-1.07-1.04-5.86-5.47-12.78-7.46
						l0,0C43.64,32.42,44.2,34.98,44.2,38.52L44.2,38.52z M42.79,31.18l0.08-0.31L42.79,31.18L42.79,31.18z"/>
				</g>
				<g>
					<path class="st3" d="M27.02,46.72c0,0,6.67,2.24,15.86,0c0,0-1.69,7.48-7.93,13.72C34.95,60.44,29.21,55.01,27.02,46.72z"/>
					<path d="M34.72,60.68c-0.02-0.02-5.8-5.48-8.02-13.88l0,0l0.32-0.08L26.7,46.8l-0.15-0.58l0.57,0.19
						c0.01-0.01,2.9,0.97,7.56,0.97l0,0c2.33,0,5.08-0.25,8.12-0.98l0,0l0.51-0.13l-0.12,0.52c-0.01,0.03-1.7,7.57-8.01,13.88l0,0
						l-0.23,0.22L34.72,60.68L34.72,60.68z M34.94,59.98c5.04-5.15,6.99-11.07,7.48-12.82l0,0c-2.88,0.65-5.51,0.88-7.74,0.88l0,0
						c-3.54,0-6.11-0.56-7.19-0.84l0,0C29.48,54.12,33.9,58.91,34.94,59.98L34.94,59.98z"/>
				</g>
				<g>
					<path class="st3" d="M27.02,46.72c0,0-2.24-6.67,0-15.86c0,0-7.48,1.69-13.73,7.93C13.3,38.79,18.73,44.53,27.02,46.72z"/>
					<path d="M26.94,47.04c-8.39-2.22-13.85-8-13.88-8.02l0,0l-0.22-0.23l0.22-0.22c6.31-6.31,13.85-8,13.88-8.02l0,0l0.52-0.12
						l-0.13,0.51c-0.74,3.04-0.99,5.8-0.99,8.12l0,0c0,4.65,0.98,7.54,0.98,7.55l0,0l-0.31,0.1l0.08-0.31l-0.08,0.31l0.31-0.1
						l0.19,0.57L26.94,47.04L26.94,47.04z M26.54,46.25c-0.29-1.09-0.84-3.65-0.84-7.19l0,0c0-2.24,0.22-4.86,0.88-7.74l0,0
						c-1.76,0.5-7.67,2.44-12.82,7.47l0,0C14.83,39.83,19.63,44.26,26.54,46.25L26.54,46.25z"/>
				</g>
			</g>
		</g>
		<g>
			<g>
				<path d="M60.83,33.12V18.41h7.47l0.61,2.69h-5.2v3.39h3.88v2.59h-3.88v5.85L60.83,33.12z"/>
				<path d="M79.46,31.73c-0.73,0.48-1.48,0.84-2.23,1.08c-0.75,0.24-1.53,0.36-2.34,0.36c-0.8,0-1.54-0.14-2.23-0.41
					c-0.69-0.27-1.31-0.67-1.86-1.2c-0.55-0.53-0.98-1.14-1.27-1.82c-0.29-0.68-0.44-1.41-0.44-2.17c0-0.78,0.14-1.51,0.43-2.18
					c0.28-0.67,0.71-1.28,1.28-1.82c0.55-0.54,1.16-0.94,1.83-1.21s1.42-0.4,2.25-0.4c1.12,0,2.13,0.27,3.02,0.82
					c0.89,0.55,1.62,1.35,2.2,2.4l-7.47,4.64c0.32,0.3,0.68,0.53,1.08,0.68c0.4,0.15,0.83,0.23,1.31,0.23c0.48,0,0.99-0.1,1.53-0.3
					c0.54-0.2,1.15-0.51,1.83-0.95L79.46,31.73z M71.75,27.94l4.86-2.98c-0.21-0.24-0.47-0.42-0.77-0.54c-0.3-0.12-0.63-0.18-1-0.18
					c-0.89,0-1.63,0.3-2.23,0.91c-0.59,0.61-0.89,1.38-0.89,2.31c0,0.13,0,0.23,0.01,0.29C71.74,27.82,71.75,27.88,71.75,27.94z"/>
				<path d="M80.47,31.53l1.64-1.69c0.36,0.38,0.73,0.66,1.11,0.84c0.38,0.18,0.8,0.27,1.24,0.27c0.48,0,0.85-0.1,1.13-0.29
					c0.27-0.19,0.41-0.46,0.41-0.8c0-0.45-0.48-0.81-1.43-1.09c-0.35-0.1-0.62-0.19-0.82-0.26c-1.04-0.35-1.79-0.78-2.25-1.29
					c-0.46-0.51-0.69-1.16-0.69-1.95c0-0.99,0.37-1.79,1.1-2.41c0.73-0.62,1.69-0.94,2.86-0.94c0.73,0,1.41,0.15,2.05,0.44
					c0.64,0.29,1.25,0.73,1.83,1.33l-1.81,1.45c-0.32-0.36-0.64-0.62-0.97-0.79c-0.32-0.17-0.66-0.26-1.01-0.26
					c-0.38,0-0.69,0.09-0.91,0.27s-0.33,0.42-0.33,0.72c0,0.3,0.14,0.55,0.41,0.75c0.27,0.2,0.88,0.43,1.82,0.7
					c1.1,0.34,1.87,0.74,2.32,1.22c0.45,0.48,0.67,1.13,0.67,1.94c0,1.06-0.39,1.92-1.16,2.57c-0.77,0.65-1.8,0.98-3.08,0.98
					c-0.79,0-1.54-0.15-2.24-0.44C81.67,32.52,81.04,32.09,80.47,31.53z"/>
				<path d="M95.94,33.17c-0.05,0-0.12,0-0.21,0.01c-0.36,0.02-0.6,0.03-0.72,0.03c-1.42,0-2.45-0.36-3.11-1.09
					c-0.65-0.73-0.98-1.89-0.98-3.48v-4.08h-1.7l0.65-2.33h1.05v-1.75l2.68-1.31v3.05h2.48v2.33H93.6v4.1
					c0,0.83,0.14,1.39,0.42,1.69c0.28,0.29,0.79,0.44,1.53,0.44c0.23,0,0.42,0,0.58-0.01c0.16,0,0.32-0.01,0.47-0.02L95.94,33.17z"
					/>
				<path d="M98.97,21.1l-1.79-1.83l1.79-1.79l1.83,1.79L98.97,21.1z M97.58,33.1V22.22l2.71-0.17v10.88L97.58,33.1z"/>
				<path d="M106.22,33.42l-5.37-10.93l2.67-0.44l2.21,4.49c0.09,0.19,0.18,0.43,0.26,0.72s0.16,0.62,0.23,1
					c0.05-0.27,0.11-0.53,0.19-0.8c0.08-0.26,0.18-0.54,0.29-0.84l2.01-4.57l2.66,0.44L106.22,33.42z"/>
				<path d="M117.93,33.17v-1.1c-0.34,0.37-0.75,0.65-1.21,0.83c-0.47,0.18-0.99,0.27-1.58,0.27c-1.14,0-2.07-0.35-2.8-1.06
					c-0.73-0.71-1.09-1.61-1.09-2.71c0-1.1,0.36-1.99,1.09-2.66c0.73-0.67,1.69-1,2.89-1c0.51,0,0.97,0.07,1.4,0.2
					c0.42,0.13,0.81,0.32,1.15,0.58v-0.9c0-0.46-0.18-0.8-0.53-1.03c-0.35-0.23-0.89-0.34-1.62-0.34c-0.6,0-1.15,0.05-1.68,0.16
					c-0.52,0.11-0.99,0.27-1.42,0.48l0.61-2.59c0.59-0.12,1.14-0.21,1.64-0.27c0.5-0.06,0.97-0.09,1.39-0.09
					c1.43,0,2.47,0.29,3.13,0.86c0.66,0.57,1,1.47,1,2.7v7.45L117.93,33.17z M113.91,29.32c0,0.49,0.17,0.88,0.51,1.16
					c0.34,0.28,0.82,0.42,1.43,0.42c0.6,0,1.06-0.14,1.4-0.41c0.34-0.27,0.51-0.65,0.51-1.13c0-0.49-0.17-0.88-0.5-1.16
					c-0.34-0.28-0.8-0.42-1.39-0.42c-0.62,0-1.1,0.14-1.44,0.41C114.09,28.46,113.91,28.84,113.91,29.32z"/>
				<path d="M122.46,33.1V18.24l2.69-0.16v14.86L122.46,33.1z"/>
				<path d="M59.54,50.77l2.86-14.94l4.84,9.76l4.82-9.76l2.87,14.94l-2.85,0.32l-1.17-7.27l-3.67,7.27l-3.68-7.27l-1.18,7.27
					L59.54,50.77z"/>
				<path d="M82,51.01v-1.1c-0.34,0.37-0.75,0.65-1.21,0.83c-0.47,0.18-0.99,0.27-1.58,0.27c-1.14,0-2.07-0.35-2.8-1.06
					c-0.73-0.71-1.09-1.61-1.09-2.71c0-1.1,0.36-1.99,1.09-2.66c0.73-0.67,1.69-1,2.89-1c0.51,0,0.97,0.07,1.4,0.2
					c0.42,0.13,0.81,0.32,1.15,0.58v-0.9c0-0.46-0.18-0.8-0.53-1.03s-0.89-0.34-1.62-0.34c-0.6,0-1.15,0.05-1.68,0.16
					c-0.52,0.11-0.99,0.27-1.42,0.48l0.61-2.59c0.59-0.12,1.14-0.21,1.64-0.27c0.5-0.06,0.97-0.09,1.39-0.09
					c1.43,0,2.47,0.29,3.13,0.86c0.66,0.57,1,1.47,1,2.7v7.45L82,51.01z M77.98,47.15c0,0.49,0.17,0.88,0.51,1.16
					c0.34,0.28,0.82,0.42,1.43,0.42c0.6,0,1.06-0.14,1.4-0.41c0.34-0.27,0.51-0.65,0.51-1.13c0-0.49-0.17-0.88-0.5-1.16
					c-0.34-0.28-0.8-0.42-1.39-0.42c-0.62,0-1.1,0.14-1.44,0.41C78.15,46.3,77.98,46.67,77.98,47.15z"/>
				<path d="M91.86,51.01c-0.05,0-0.12,0-0.21,0.01c-0.36,0.02-0.6,0.03-0.72,0.03c-1.42,0-2.45-0.36-3.11-1.09
					c-0.65-0.73-0.98-1.89-0.98-3.48V42.4h-1.7l0.65-2.33h1.05v-1.75l2.68-1.31v3.05H92v2.33h-2.48v4.1c0,0.83,0.14,1.39,0.42,1.69
					c0.28,0.29,0.79,0.44,1.53,0.44c0.23,0,0.42,0,0.58-0.01c0.16,0,0.32-0.01,0.47-0.02L91.86,51.01z"/>
				<path d="M103.14,49.57c-0.73,0.48-1.48,0.84-2.23,1.08c-0.75,0.24-1.53,0.36-2.34,0.36c-0.8,0-1.54-0.14-2.23-0.41
					c-0.69-0.27-1.31-0.67-1.86-1.2c-0.55-0.53-0.98-1.14-1.27-1.82c-0.29-0.68-0.44-1.41-0.44-2.17c0-0.78,0.14-1.51,0.43-2.18
					c0.28-0.67,0.71-1.28,1.28-1.82c0.55-0.54,1.16-0.94,1.83-1.21c0.67-0.26,1.42-0.4,2.25-0.4c1.12,0,2.13,0.27,3.02,0.82
					c0.89,0.55,1.62,1.35,2.2,2.4l-7.47,4.64c0.32,0.3,0.68,0.53,1.08,0.68c0.4,0.15,0.83,0.23,1.31,0.23c0.48,0,0.99-0.1,1.53-0.3
					c0.54-0.2,1.15-0.51,1.83-0.95L103.14,49.57z M95.43,45.78l4.86-2.98c-0.21-0.24-0.47-0.42-0.77-0.54
					c-0.3-0.12-0.63-0.18-1-0.18c-0.89,0-1.63,0.3-2.23,0.91c-0.59,0.61-0.89,1.38-0.89,2.31c0,0.13,0,0.23,0.01,0.29
					C95.42,45.66,95.43,45.72,95.43,45.78z"/>
				<path d="M104.78,50.94V40.06l2.47-0.17v1.56c0.42-0.57,0.88-0.99,1.38-1.26c0.5-0.27,1.07-0.41,1.71-0.41
					c0.64,0,1.21,0.15,1.69,0.46c0.48,0.3,0.84,0.73,1.06,1.29c0.47-0.6,0.95-1.04,1.46-1.33c0.51-0.28,1.08-0.42,1.71-0.42
					c1.01,0,1.78,0.34,2.31,1.01c0.53,0.67,0.79,1.66,0.79,2.97v7.01l-2.68,0.16v-6.86c0-0.66-0.11-1.15-0.33-1.46
					c-0.22-0.31-0.57-0.46-1.05-0.46c-0.63,0-1.11,0.22-1.43,0.66c-0.32,0.44-0.48,1.09-0.48,1.95v6l-2.63,0.16v-6.86
					c0-0.67-0.11-1.16-0.33-1.46c-0.22-0.3-0.57-0.46-1.04-0.46c-0.64,0-1.12,0.22-1.45,0.66c-0.33,0.44-0.49,1.09-0.49,1.95v6
					L104.78,50.94z"/>
				<path d="M127.47,51.01v-1.1c-0.34,0.37-0.75,0.65-1.21,0.83c-0.47,0.18-0.99,0.27-1.58,0.27c-1.14,0-2.07-0.35-2.8-1.06
					c-0.73-0.71-1.09-1.61-1.09-2.71c0-1.1,0.36-1.99,1.09-2.66c0.73-0.67,1.69-1,2.89-1c0.51,0,0.97,0.07,1.4,0.2
					c0.42,0.13,0.81,0.32,1.15,0.58v-0.9c0-0.46-0.18-0.8-0.53-1.03s-0.89-0.34-1.62-0.34c-0.6,0-1.15,0.05-1.68,0.16
					c-0.52,0.11-0.99,0.27-1.42,0.48l0.61-2.59c0.59-0.12,1.14-0.21,1.64-0.27c0.5-0.06,0.97-0.09,1.39-0.09
					c1.43,0,2.47,0.29,3.13,0.86c0.66,0.57,1,1.47,1,2.7v7.45L127.47,51.01z M123.45,47.15c0,0.49,0.17,0.88,0.51,1.16
					c0.34,0.28,0.82,0.42,1.43,0.42c0.6,0,1.06-0.14,1.4-0.41c0.34-0.27,0.51-0.65,0.51-1.13c0-0.49-0.17-0.88-0.5-1.16
					c-0.34-0.28-0.8-0.42-1.39-0.42c-0.62,0-1.1,0.14-1.44,0.41C123.62,46.3,123.45,46.67,123.45,47.15z M124.35,38.64l2.1-3.56
					h2.28l-3.03,3.56H124.35z"/>
				<path d="M137.33,51.01c-0.05,0-0.12,0-0.21,0.01c-0.36,0.02-0.6,0.03-0.72,0.03c-1.42,0-2.45-0.36-3.11-1.09
					c-0.65-0.73-0.98-1.89-0.98-3.48V42.4h-1.7l0.65-2.33h1.05v-1.75l2.68-1.31v3.05h2.48v2.33h-2.48v4.1
					c0,0.83,0.14,1.39,0.42,1.69c0.28,0.29,0.79,0.44,1.53,0.44c0.23,0,0.42,0,0.58-0.01c0.16,0,0.32-0.01,0.47-0.02L137.33,51.01z"
					/>
				<path d="M140.36,38.94l-1.79-1.83l1.79-1.79l1.83,1.79L140.36,38.94z M138.97,50.94V40.06l2.71-0.17v10.88L138.97,50.94z"/>
				<path d="M152.95,49.65c-0.59,0.46-1.21,0.8-1.85,1.02c-0.65,0.22-1.33,0.33-2.06,0.33c-1.63,0-2.99-0.54-4.06-1.61
					c-1.08-1.07-1.62-2.4-1.62-3.99c0-0.77,0.15-1.5,0.44-2.19c0.29-0.7,0.72-1.3,1.26-1.82c0.52-0.51,1.12-0.91,1.8-1.18
					c0.68-0.27,1.4-0.41,2.18-0.41c0.73,0,1.42,0.1,2.07,0.31c0.65,0.21,1.26,0.53,1.84,0.95l-1.45,2.07
					c-0.42-0.3-0.81-0.52-1.19-0.66c-0.37-0.14-0.77-0.21-1.18-0.21c-0.92,0-1.66,0.29-2.22,0.86c-0.56,0.58-0.84,1.33-0.84,2.27
					c0,0.89,0.29,1.63,0.87,2.2c0.58,0.58,1.32,0.87,2.2,0.87c0.36,0,0.73-0.07,1.1-0.2c0.37-0.13,0.79-0.35,1.26-0.64L152.95,49.65
					z"/>
				<path d="M153.55,45.41c0-0.77,0.14-1.5,0.43-2.18c0.29-0.68,0.71-1.28,1.27-1.82c0.54-0.52,1.16-0.92,1.86-1.19
					c0.7-0.27,1.44-0.41,2.22-0.41c0.78,0,1.53,0.14,2.24,0.42c0.71,0.28,1.34,0.68,1.9,1.21c0.55,0.53,0.97,1.13,1.25,1.8
					c0.29,0.67,0.43,1.4,0.43,2.17c0,0.77-0.14,1.5-0.43,2.18c-0.29,0.68-0.71,1.29-1.25,1.81c-0.53,0.51-1.16,0.91-1.88,1.19
					s-1.47,0.42-2.26,0.42c-0.79,0-1.54-0.14-2.23-0.41c-0.69-0.27-1.31-0.67-1.85-1.2c-0.56-0.54-0.98-1.15-1.27-1.84
					C153.7,46.88,153.55,46.16,153.55,45.41z M156.29,45.41c0,0.9,0.29,1.65,0.88,2.25c0.59,0.6,1.31,0.9,2.17,0.9
					c0.84,0,1.57-0.31,2.17-0.93c0.6-0.62,0.9-1.36,0.9-2.23c0-0.91-0.29-1.66-0.87-2.25c-0.58-0.59-1.32-0.88-2.2-0.88
					c-0.86,0-1.59,0.3-2.17,0.89C156.58,43.75,156.29,44.5,156.29,45.41z"/>
			</g>
			<g>
				<path d="M59.64,60.58v-5.43l0.77-0.08v5.44L59.64,60.58z"/>
				<path d="M61.24,60.58v-4.01l0.74-0.07v0.58c0.13-0.19,0.29-0.34,0.47-0.44c0.19-0.1,0.39-0.15,0.61-0.15
					c0.45,0,0.78,0.14,0.99,0.41c0.21,0.27,0.32,0.7,0.32,1.28v2.34l-0.74,0.07v-2.46c0-0.37-0.06-0.63-0.17-0.78
					c-0.11-0.15-0.3-0.23-0.56-0.23c-0.32,0-0.55,0.1-0.7,0.3c-0.15,0.2-0.23,0.52-0.23,0.94v2.15L61.24,60.58z"/>
				<path d="M64.82,59.96l0.49-0.44c0.13,0.15,0.27,0.26,0.4,0.33c0.13,0.07,0.28,0.1,0.44,0.1c0.2,0,0.36-0.05,0.48-0.15
					s0.18-0.24,0.18-0.41c0-0.23-0.22-0.41-0.67-0.53c-0.12-0.04-0.22-0.06-0.29-0.09c-0.34-0.1-0.59-0.24-0.74-0.42
					s-0.22-0.4-0.22-0.69c0-0.35,0.12-0.63,0.36-0.85c0.24-0.22,0.56-0.33,0.94-0.33c0.23,0,0.45,0.05,0.66,0.14
					c0.21,0.09,0.4,0.23,0.57,0.42l-0.43,0.48c-0.15-0.14-0.29-0.24-0.41-0.3c-0.12-0.06-0.25-0.09-0.39-0.09
					c-0.17,0-0.31,0.05-0.42,0.14c-0.11,0.09-0.16,0.21-0.16,0.35c0,0.24,0.27,0.43,0.8,0.57c0.09,0.02,0.16,0.04,0.21,0.05
					c0.29,0.08,0.52,0.22,0.69,0.42c0.16,0.2,0.25,0.44,0.25,0.71c0,0.35-0.13,0.65-0.38,0.88c-0.26,0.24-0.58,0.35-0.97,0.35
					c-0.31,0-0.57-0.05-0.8-0.16C65.17,60.34,64.98,60.18,64.82,59.96z"/>
				<path d="M68.99,55.39v1.18h1.05v0.67h-1.05v1.59c0,0.48,0.06,0.78,0.17,0.9c0.11,0.12,0.32,0.18,0.64,0.18
					c0.07,0,0.14-0.01,0.21-0.02c0.07-0.01,0.15-0.03,0.22-0.05l-0.19,0.71c-0.09,0.01-0.17,0.02-0.25,0.03
					c-0.08,0.01-0.14,0.01-0.2,0.01c-0.5,0-0.85-0.13-1.05-0.38c-0.21-0.26-0.31-0.71-0.31-1.37v-1.59h-0.58l0.19-0.67h0.39v-1
					L68.99,55.39z"/>
				<path d="M71,56.09l-0.52-0.63l0.51-0.62l0.5,0.62L71,56.09z M70.6,60.58v-4.01l0.75-0.07v4.02L70.6,60.58z"/>
				<path d="M73.07,55.39v1.18h1.05v0.67h-1.05v1.59c0,0.48,0.06,0.78,0.17,0.9c0.11,0.12,0.32,0.18,0.64,0.18
					c0.07,0,0.14-0.01,0.21-0.02c0.07-0.01,0.15-0.03,0.22-0.05l-0.19,0.71c-0.09,0.01-0.17,0.02-0.25,0.03
					c-0.08,0.01-0.14,0.01-0.2,0.01c-0.5,0-0.85-0.13-1.05-0.38c-0.21-0.26-0.31-0.71-0.31-1.37v-1.59h-0.58l0.19-0.67h0.39v-1
					L73.07,55.39z"/>
				<path d="M77.73,56.49v4.02l-0.74,0.07V60c-0.12,0.19-0.28,0.34-0.47,0.44c-0.19,0.11-0.39,0.16-0.62,0.16
					c-0.44,0-0.78-0.14-0.99-0.42c-0.22-0.28-0.33-0.7-0.33-1.28v-2.34l0.74-0.07v2.47c0,0.36,0.06,0.62,0.17,0.78
					c0.11,0.16,0.3,0.23,0.57,0.23c0.32,0,0.55-0.1,0.7-0.3c0.15-0.2,0.22-0.52,0.22-0.94v-2.16L77.73,56.49z"/>
				<path d="M79.36,55.39v1.18h1.05v0.67h-1.05v1.59c0,0.48,0.06,0.78,0.17,0.9c0.11,0.12,0.32,0.18,0.64,0.18
					c0.07,0,0.14-0.01,0.21-0.02c0.07-0.01,0.15-0.03,0.22-0.05l-0.19,0.71c-0.09,0.01-0.17,0.02-0.25,0.03
					c-0.08,0.01-0.14,0.01-0.2,0.01c-0.5,0-0.85-0.13-1.05-0.38s-0.31-0.71-0.31-1.37v-1.59h-0.58l0.19-0.67h0.39v-1L79.36,55.39z"
					/>
				<path d="M80.71,58.53c0-0.28,0.05-0.55,0.16-0.8c0.11-0.25,0.26-0.47,0.47-0.67c0.2-0.19,0.43-0.34,0.68-0.44
					c0.25-0.1,0.52-0.15,0.81-0.15c0.28,0,0.55,0.05,0.81,0.15c0.26,0.1,0.49,0.25,0.68,0.43c0.2,0.19,0.36,0.42,0.46,0.67
					c0.11,0.25,0.16,0.52,0.16,0.8c0,0.29-0.05,0.56-0.16,0.81c-0.11,0.25-0.26,0.47-0.47,0.67c-0.2,0.19-0.43,0.34-0.68,0.44
					c-0.25,0.1-0.52,0.15-0.81,0.15c-0.29,0-0.56-0.05-0.82-0.15c-0.25-0.1-0.48-0.25-0.67-0.44c-0.2-0.2-0.36-0.42-0.47-0.67
					C80.76,59.09,80.71,58.82,80.71,58.53z M81.47,58.53c0,0.4,0.13,0.73,0.38,0.99c0.26,0.26,0.58,0.39,0.97,0.39
					c0.39,0,0.71-0.13,0.97-0.4c0.26-0.26,0.39-0.59,0.39-0.99c0-0.4-0.13-0.73-0.39-0.99c-0.26-0.26-0.58-0.39-0.97-0.39
					c-0.39,0-0.71,0.13-0.97,0.39C81.6,57.8,81.47,58.14,81.47,58.53z"/>
				<path d="M90.79,59.97c-0.2,0.21-0.42,0.37-0.65,0.47s-0.49,0.15-0.76,0.15c-0.26,0-0.51-0.05-0.75-0.15
					c-0.24-0.1-0.45-0.24-0.64-0.43c-0.2-0.19-0.36-0.42-0.47-0.67c-0.11-0.26-0.16-0.53-0.16-0.81c0-0.29,0.05-0.56,0.16-0.81
					c0.11-0.25,0.26-0.47,0.47-0.67c0.2-0.19,0.42-0.34,0.67-0.44c0.25-0.1,0.5-0.15,0.77-0.15c0.26,0,0.5,0.05,0.74,0.15
					c0.23,0.1,0.44,0.26,0.63,0.46v-2.02L91.54,55v5.51l-0.74,0.09V59.97z M88.13,58.54c0,0.39,0.13,0.72,0.38,0.99
					c0.26,0.26,0.57,0.39,0.95,0.39c0.38,0,0.69-0.13,0.95-0.39c0.25-0.26,0.38-0.59,0.38-0.99c0-0.4-0.13-0.73-0.38-0.99
					c-0.25-0.26-0.57-0.39-0.95-0.39c-0.38,0-0.7,0.13-0.95,0.4C88.26,57.82,88.13,58.15,88.13,58.54z"/>
				<path d="M95.82,59.99c-0.27,0.2-0.54,0.36-0.82,0.46s-0.55,0.16-0.82,0.16c-0.29,0-0.56-0.05-0.82-0.15
					c-0.25-0.1-0.48-0.25-0.67-0.44c-0.2-0.2-0.36-0.42-0.47-0.67c-0.11-0.25-0.16-0.52-0.16-0.8c0-0.28,0.05-0.55,0.16-0.81
					c0.11-0.26,0.26-0.48,0.45-0.67c0.2-0.2,0.41-0.34,0.66-0.44c0.24-0.1,0.5-0.15,0.79-0.15c0.39,0,0.73,0.09,1.04,0.27
					c0.31,0.18,0.56,0.44,0.75,0.78l-2.87,1.77c0.1,0.18,0.26,0.33,0.46,0.44c0.2,0.11,0.43,0.17,0.67,0.17
					c0.22,0,0.45-0.05,0.7-0.16c0.25-0.11,0.51-0.27,0.79-0.49L95.82,59.99z M92.84,58.63l2-1.22c-0.1-0.09-0.21-0.16-0.33-0.2
					c-0.12-0.04-0.25-0.07-0.38-0.07c-0.38,0-0.69,0.13-0.93,0.39c-0.24,0.26-0.36,0.61-0.36,1.03V58.63z"/>
				<path d="M98.14,60.51l1.07-5.47l1.89,4.02l1.8-4.02l1.13,5.47l-0.77,0.08l-0.64-3.36l-1.51,3.36l-1.62-3.36l-0.61,3.36
					L98.14,60.51z"/>
				<path d="M106.85,60.16c-0.15,0.15-0.32,0.26-0.51,0.34c-0.19,0.08-0.4,0.12-0.63,0.12c-0.46,0-0.82-0.13-1.08-0.38
					c-0.27-0.25-0.4-0.6-0.4-1.03c0-0.43,0.14-0.78,0.42-1.05s0.63-0.41,1.06-0.41c0.21,0,0.4,0.03,0.57,0.09s0.34,0.15,0.49,0.27
					V57.8c0-0.24-0.07-0.41-0.22-0.52c-0.15-0.11-0.38-0.16-0.7-0.16c-0.17,0-0.34,0.02-0.53,0.07c-0.19,0.05-0.4,0.12-0.63,0.22
					l0.18-0.77c0.22-0.06,0.43-0.1,0.62-0.13c0.19-0.03,0.37-0.04,0.53-0.04c0.52,0,0.89,0.12,1.12,0.37
					c0.23,0.25,0.35,0.65,0.35,1.2v2.47l-0.65,0.11V60.16z M104.96,59.18c0,0.23,0.08,0.42,0.23,0.56c0.16,0.14,0.36,0.21,0.62,0.21
					c0.31,0,0.55-0.07,0.73-0.21c0.18-0.14,0.26-0.33,0.26-0.57c0-0.24-0.08-0.43-0.25-0.58c-0.17-0.15-0.39-0.22-0.67-0.22
					c-0.28,0-0.5,0.07-0.67,0.22S104.96,58.94,104.96,59.18z"/>
				<path d="M109.1,55.39v1.18h1.05v0.67h-1.05v1.59c0,0.48,0.06,0.78,0.17,0.9c0.11,0.12,0.32,0.18,0.64,0.18
					c0.07,0,0.14-0.01,0.21-0.02c0.07-0.01,0.15-0.03,0.22-0.05l-0.19,0.71c-0.09,0.01-0.17,0.02-0.25,0.03
					c-0.08,0.01-0.14,0.01-0.2,0.01c-0.5,0-0.85-0.13-1.05-0.38c-0.21-0.26-0.31-0.71-0.31-1.37v-1.59h-0.58l0.19-0.67h0.39v-1
					L109.1,55.39z"/>
				<path d="M114.19,59.99c-0.27,0.2-0.54,0.36-0.82,0.46s-0.55,0.16-0.82,0.16c-0.29,0-0.56-0.05-0.82-0.15
					c-0.25-0.1-0.48-0.25-0.67-0.44c-0.2-0.2-0.36-0.42-0.47-0.67c-0.11-0.25-0.16-0.52-0.16-0.8c0-0.28,0.05-0.55,0.16-0.81
					c0.11-0.26,0.26-0.48,0.45-0.67c0.2-0.2,0.41-0.34,0.66-0.44c0.24-0.1,0.5-0.15,0.79-0.15c0.39,0,0.73,0.09,1.04,0.27
					c0.31,0.18,0.56,0.44,0.75,0.78l-2.87,1.77c0.1,0.18,0.26,0.33,0.46,0.44c0.2,0.11,0.43,0.17,0.67,0.17
					c0.22,0,0.45-0.05,0.7-0.16c0.25-0.11,0.51-0.27,0.79-0.49L114.19,59.99z M111.21,58.63l2-1.22c-0.1-0.09-0.21-0.16-0.33-0.2
					c-0.12-0.04-0.25-0.07-0.38-0.07c-0.38,0-0.69,0.13-0.93,0.39c-0.24,0.26-0.36,0.61-0.36,1.03V58.63z"/>
				<path d="M114.75,60.58v-4.01l0.73-0.07v0.56c0.12-0.19,0.28-0.33,0.46-0.43c0.18-0.1,0.38-0.15,0.59-0.15
					c0.22,0,0.43,0.06,0.61,0.17c0.18,0.11,0.33,0.27,0.44,0.47c0.16-0.21,0.34-0.37,0.53-0.48c0.19-0.11,0.4-0.16,0.61-0.16
					c0.42,0,0.73,0.14,0.93,0.41c0.2,0.28,0.3,0.7,0.3,1.28v2.34l-0.72,0.07v-2.46c0-0.36-0.05-0.62-0.16-0.78
					c-0.11-0.15-0.28-0.23-0.52-0.23c-0.29,0-0.51,0.1-0.64,0.3c-0.13,0.2-0.2,0.51-0.2,0.95v2.15L117,60.58v-2.46
					c0-0.36-0.05-0.62-0.16-0.78c-0.11-0.15-0.28-0.23-0.52-0.23c-0.29,0-0.5,0.1-0.64,0.3c-0.14,0.2-0.2,0.51-0.2,0.94v2.15
					L114.75,60.58z"/>
				<path d="M123.08,60.16c-0.15,0.15-0.32,0.26-0.51,0.34c-0.19,0.08-0.4,0.12-0.63,0.12c-0.46,0-0.82-0.13-1.08-0.38
					c-0.27-0.25-0.4-0.6-0.4-1.03c0-0.43,0.14-0.78,0.42-1.05c0.28-0.27,0.63-0.41,1.06-0.41c0.21,0,0.4,0.03,0.57,0.09
					c0.17,0.06,0.33,0.15,0.49,0.27V57.8c0-0.24-0.07-0.41-0.22-0.52c-0.15-0.11-0.38-0.16-0.7-0.16c-0.17,0-0.34,0.02-0.53,0.07
					c-0.19,0.05-0.4,0.12-0.63,0.22l0.18-0.77c0.22-0.06,0.43-0.1,0.62-0.13c0.19-0.03,0.37-0.04,0.53-0.04
					c0.52,0,0.89,0.12,1.13,0.37c0.23,0.25,0.35,0.65,0.35,1.2v2.47l-0.65,0.11V60.16z M121.19,59.18c0,0.23,0.08,0.42,0.23,0.56
					c0.16,0.14,0.36,0.21,0.62,0.21c0.31,0,0.55-0.07,0.73-0.21c0.18-0.14,0.26-0.33,0.26-0.57c0-0.24-0.08-0.43-0.25-0.58
					c-0.17-0.15-0.39-0.22-0.67-0.22c-0.28,0-0.5,0.07-0.67,0.22C121.28,58.75,121.19,58.94,121.19,59.18z M121.75,56.05l0.8-1.33
					h0.68l-1.07,1.33H121.75z"/>
				<path d="M125.34,55.39v1.18h1.05v0.67h-1.05v1.59c0,0.48,0.06,0.78,0.17,0.9c0.11,0.12,0.32,0.18,0.64,0.18
					c0.07,0,0.14-0.01,0.21-0.02c0.07-0.01,0.15-0.03,0.22-0.05l-0.19,0.71c-0.09,0.01-0.17,0.02-0.25,0.03
					c-0.08,0.01-0.14,0.01-0.2,0.01c-0.5,0-0.85-0.13-1.05-0.38c-0.21-0.26-0.31-0.71-0.31-1.37v-1.59H124l0.19-0.67h0.39v-1
					L125.34,55.39z"/>
				<path d="M127.35,56.09l-0.52-0.63l0.51-0.62l0.5,0.62L127.35,56.09z M126.95,60.58v-4.01l0.75-0.07v4.02L126.95,60.58z"/>
				<path d="M131.81,59.96c-0.24,0.22-0.47,0.38-0.71,0.48c-0.24,0.1-0.49,0.16-0.76,0.16c-0.26,0-0.51-0.05-0.75-0.15
					c-0.24-0.1-0.45-0.25-0.65-0.44c-0.21-0.21-0.36-0.43-0.47-0.68c-0.11-0.25-0.16-0.51-0.16-0.79c0-0.28,0.05-0.55,0.16-0.8
					c0.11-0.25,0.26-0.47,0.47-0.67c0.19-0.19,0.41-0.33,0.66-0.43c0.25-0.1,0.5-0.15,0.76-0.15c0.28,0,0.53,0.05,0.76,0.14
					c0.23,0.09,0.44,0.23,0.62,0.42l-0.45,0.51c-0.12-0.12-0.26-0.22-0.41-0.28c-0.15-0.06-0.31-0.1-0.48-0.1
					c-0.38,0-0.69,0.13-0.94,0.39s-0.38,0.58-0.38,0.97c0,0.38,0.12,0.7,0.37,0.97c0.25,0.26,0.55,0.4,0.9,0.4
					c0.18,0,0.35-0.03,0.51-0.1c0.16-0.07,0.31-0.18,0.47-0.33L131.81,59.96z"/>
				<path d="M134.64,60.16c-0.15,0.15-0.32,0.26-0.51,0.34c-0.19,0.08-0.4,0.12-0.63,0.12c-0.46,0-0.82-0.13-1.08-0.38
					c-0.27-0.25-0.4-0.6-0.4-1.03c0-0.43,0.14-0.78,0.42-1.05s0.63-0.41,1.06-0.41c0.21,0,0.4,0.03,0.57,0.09s0.34,0.15,0.49,0.27
					V57.8c0-0.24-0.07-0.41-0.22-0.52c-0.15-0.11-0.38-0.16-0.7-0.16c-0.17,0-0.34,0.02-0.53,0.07s-0.4,0.12-0.63,0.22l0.18-0.77
					c0.22-0.06,0.43-0.1,0.62-0.13c0.19-0.03,0.37-0.04,0.53-0.04c0.52,0,0.89,0.12,1.12,0.37c0.23,0.25,0.35,0.65,0.35,1.2v2.47
					l-0.65,0.11V60.16z M132.76,59.18c0,0.23,0.08,0.42,0.23,0.56c0.16,0.14,0.36,0.21,0.62,0.21c0.31,0,0.55-0.07,0.73-0.21
					c0.18-0.14,0.26-0.33,0.26-0.57c0-0.24-0.08-0.43-0.25-0.58c-0.17-0.15-0.39-0.22-0.67-0.22c-0.28,0-0.5,0.07-0.67,0.22
					C132.84,58.75,132.76,58.94,132.76,59.18z"/>
				<path d="M135.72,59.96l0.49-0.44c0.13,0.15,0.27,0.26,0.4,0.33c0.13,0.07,0.28,0.1,0.44,0.1c0.2,0,0.36-0.05,0.48-0.15
					s0.18-0.24,0.18-0.41c0-0.23-0.22-0.41-0.67-0.53c-0.12-0.04-0.22-0.06-0.29-0.09c-0.34-0.1-0.59-0.24-0.74-0.42
					s-0.22-0.4-0.22-0.69c0-0.35,0.12-0.63,0.36-0.85c0.24-0.22,0.56-0.33,0.94-0.33c0.23,0,0.45,0.05,0.66,0.14
					c0.21,0.09,0.4,0.23,0.57,0.42l-0.43,0.48c-0.15-0.14-0.29-0.24-0.41-0.3c-0.12-0.06-0.25-0.09-0.39-0.09
					c-0.17,0-0.31,0.05-0.42,0.14c-0.11,0.09-0.16,0.21-0.16,0.35c0,0.24,0.27,0.43,0.8,0.57c0.09,0.02,0.16,0.04,0.21,0.05
					c0.29,0.08,0.52,0.22,0.69,0.42c0.16,0.2,0.25,0.44,0.25,0.71c0,0.35-0.13,0.65-0.38,0.88c-0.26,0.24-0.58,0.35-0.97,0.35
					c-0.31,0-0.57-0.05-0.8-0.16S135.88,60.18,135.72,59.96z"/>
				<path d="M138.6,61.91l0.71-2.32l0.8-0.12l-0.95,2.44H138.6z"/>
				<path d="M143.16,55.14l0.78-0.08v3.59c0,0.44,0.09,0.75,0.26,0.94c0.17,0.19,0.45,0.28,0.85,0.28c0.4,0,0.68-0.09,0.85-0.28
					c0.17-0.19,0.26-0.5,0.26-0.94v-3.52l0.77-0.08v3.68c0,0.6-0.16,1.06-0.48,1.38s-0.79,0.48-1.4,0.48c-0.61,0-1.08-0.16-1.4-0.48
					c-0.32-0.32-0.48-0.78-0.48-1.38V55.14z"/>
				<path d="M147.91,60.6v-5.56l3.48,3.69v-3.58l0.78-0.1v5.56l-3.49-3.69v3.59L147.91,60.6z"/>
				<path d="M152.87,60.41l2.73-5.43l2.73,5.42l-0.75,0.2l-0.94-1.89h-2.12l-0.94,1.89L152.87,60.41z M154.83,58.06h1.49l-0.75-1.53
					L154.83,58.06z"/>
				<path d="M159.03,60.51l1.07-5.47l1.89,4.02l1.8-4.02l1.13,5.47l-0.77,0.08l-0.64-3.36L162,60.59l-1.62-3.36l-0.61,3.36
					L159.03,60.51z"/>
			</g>
		</g>
	</g>
</g>
</svg>
