<?xml version="1.0" encoding="utf-8"?>
<!-- Generator: Adobe Illustrator 25.2.1, SVG Export Plug-In . SVG Version: 6.00 Build 0)  -->
<svg version="1.1" id="Capa_1" xmlns="http://www.w3.org/2000/svg" xmlns:xlink="http://www.w3.org/1999/xlink" x="0px" y="0px"
	 viewBox="0 0 180 79" style="enable-background:new 0 0 180 79;" xml:space="preserve">
<style type="text/css">
	.st0{fill:#F3F4F5;}
	.st1{fill:#B4CAE3;}
	.st2{fill:url(#SVGID_1_);}
	.st3{fill:url(#SVGID_2_);}
	.st4{fill:url(#SVGID_3_);}
	.st5{fill:url(#SVGID_4_);}
	.st6{fill:url(#SVGID_5_);}
	.st7{fill:url(#SVGID_6_);}
	.st8{fill:url(#SVGID_7_);}
	.st9{fill:url(#SVGID_8_);}
	.st10{fill:url(#SVGID_9_);}
	.st11{fill:url(#SVGID_10_);}
	.st12{fill:url(#SVGID_11_);}
	.st13{fill:url(#SVGID_12_);}
	.st14{fill:url(#SVGID_13_);}
	.st15{fill:url(#SVGID_14_);}
	.st16{fill:#204199;}
</style>
<g>
	<path class="st0" d="M140.76,76.99H39.24c-20.71,0-37.49-16.79-37.49-37.49v0c0-20.71,16.79-37.49,37.49-37.49h101.52
		c20.71,0,37.49,16.79,37.49,37.49v0C178.25,60.21,161.47,76.99,140.76,76.99z"/>
	<path class="st1" d="M140.76,78.74H39.24C17.6,78.74,0,61.14,0,39.5S17.6,0.26,39.24,0.26h101.52C162.4,0.26,180,17.86,180,39.5
		S162.4,78.74,140.76,78.74z M39.24,3.76C19.53,3.76,3.5,19.79,3.5,39.5c0,19.71,16.03,35.74,35.74,35.74h101.52
		c19.71,0,35.74-16.03,35.74-35.74c0-19.71-16.03-35.74-35.74-35.74H39.24z"/>
</g>
<g>
	<g>
		<linearGradient id="SVGID_1_" gradientUnits="userSpaceOnUse" x1="144.3064" y1="59.5618" x2="144.3064" y2="12.0016">
			<stop  offset="0.1057" style="stop-color:#204199"/>
			<stop  offset="0.461" style="stop-color:#A21D21"/>
			<stop  offset="0.8124" style="stop-color:#0D743B"/>
		</linearGradient>
		<path class="st2" d="M163.35,59.56c-0.1-0.07-10.04-7.24-24.2-9.09c-2.49-0.32-4.56-0.52-6.29-0.62
			c-2.67,1.18-5.22,1.62-6.54,1.52c-0.6-0.04-1.05-0.25-1.18-0.53c-0.07-0.15-0.05-0.31,0.06-0.45c0.48-0.65,2.76-1.1,7.6-0.82
			c2.86-1.25,5.91-3.37,7.59-6.78c3.59-7.27-0.5-17.86-11.84-30.61l0.2-0.18c7.97,8.96,16.49,21.59,11.88,30.92
			c-1.58,3.2-4.43,5.36-7.24,6.69c1.65,0.11,3.57,0.3,5.79,0.59c14.23,1.85,24.22,9.06,24.32,9.14L163.35,59.56z M130.13,49.77
			c-3.11,0-4.43,0.41-4.71,0.79c-0.06,0.08-0.05,0.13-0.03,0.17c0.07,0.15,0.4,0.33,0.95,0.37c0.94,0.07,3.28-0.25,5.87-1.28
			C131.44,49.78,130.75,49.77,130.13,49.77z"/>
		<linearGradient id="SVGID_2_" gradientUnits="userSpaceOnUse" x1="143.4772" y1="59.6133" x2="143.4772" y2="12.0145">
			<stop  offset="0.1057" style="stop-color:#204199"/>
			<stop  offset="0.461" style="stop-color:#A21D21"/>
			<stop  offset="0.8124" style="stop-color:#0D743B"/>
		</linearGradient>
		<path class="st3" d="M160.13,59.61l-0.05-0.27c0.03-0.01,0.04-0.01,0.04-0.05c-0.01-1.08-6.82-7.81-19.45-9.97
			c-4.1-0.7-7.07-0.93-9.18-0.91c-1.85,0.76-3.43,1.18-4.18,1.35c-0.31,0.07-0.57,0.02-0.69-0.14c-0.08-0.11-0.08-0.26,0.01-0.4
			c0.3-0.47,1.66-1.04,4.75-1.08c3.68-1.53,8.55-4.47,10.21-9.7c2.17-6.82-1.51-15.65-10.94-26.24l0.2-0.18
			c9.49,10.67,13.19,19.59,10.99,26.51c-1.1,3.46-3.64,6.33-7.56,8.53c-0.74,0.42-1.48,0.78-2.19,1.09c2.11,0.03,4.92,0.28,8.6,0.91
			c13.02,2.23,19.67,9.08,19.68,10.24C160.39,59.46,160.3,59.58,160.13,59.61z M130.66,48.43c-2.55,0.11-3.59,0.61-3.8,0.94
			c-0.01,0.02-0.04,0.07-0.02,0.09c0.03,0.04,0.17,0.09,0.4,0.03C127.82,49.36,129.09,49.03,130.66,48.43z"/>
		<linearGradient id="SVGID_3_" gradientUnits="userSpaceOnUse" x1="142.7457" y1="59.6417" x2="142.7457" y2="12.0274">
			<stop  offset="0.1057" style="stop-color:#204199"/>
			<stop  offset="0.461" style="stop-color:#A21D21"/>
			<stop  offset="0.8124" style="stop-color:#0D743B"/>
		</linearGradient>
		<path class="st4" d="M156.81,59.64l-0.05-0.27c0.49-0.1,0.6-0.51,0.6-0.84c0.02-2.08-4.32-8.03-15.19-10.38
			c-7.52-1.62-11.39-1.15-13.04-0.56c-0.4,0.21-0.7,0.38-0.82,0.5c-0.16,0.17-0.28,0.22-0.37,0.16l-0.1-0.06l0.04-0.13
			c0-0.01,0.17-0.21,0.64-0.46c0.35-0.21,0.88-0.46,1.56-0.78c3.55-1.7,10.95-5.22,12.4-12.41c1.23-6.09-2.04-13.56-9.73-22.21
			l0.2-0.18c7.75,8.71,11.04,16.26,9.79,22.44c-1.47,7.26-8.83,10.83-12.46,12.56c2.03-0.41,5.65-0.5,11.93,0.86
			c10.31,2.23,15.43,8.03,15.4,10.65C157.63,59.14,157.33,59.54,156.81,59.64z"/>
		<linearGradient id="SVGID_4_" gradientUnits="userSpaceOnUse" x1="142.2771" y1="59.6695" x2="142.2771" y2="12.0402">
			<stop  offset="0.1057" style="stop-color:#204199"/>
			<stop  offset="0.461" style="stop-color:#A21D21"/>
			<stop  offset="0.8124" style="stop-color:#0D743B"/>
		</linearGradient>
		<path class="st5" d="M153.49,59.67l-0.05-0.27c1.09-0.21,1.77-1.12,1.82-2.43c0.11-3.29-3.46-7.81-11.57-9.97
			c-8.92-2.37-12.49-0.88-13.84-0.32c-0.39,0.16-0.58,0.24-0.73,0.14c-0.13-0.09-0.12-0.27-0.1-0.44c0.06-0.62,1.23-1.32,3-2.38
			c3.81-2.29,10.18-6.11,11.21-12.83c0.83-5.4-1.99-11.78-8.36-18.95l0.2-0.18c6.43,7.23,9.27,13.68,8.43,19.17
			c-1.05,6.84-7.49,10.71-11.34,13.02c-1.58,0.95-2.82,1.7-2.87,2.17c-0.02,0.15,0,0.19,0,0.2c0.03-0.01,0.24-0.09,0.45-0.18
			c1.37-0.57,5-2.09,14.01,0.31c8.25,2.2,11.89,6.85,11.77,10.25C155.48,58.43,154.72,59.43,153.49,59.67z"/>
		<linearGradient id="SVGID_5_" gradientUnits="userSpaceOnUse" x1="142.0778" y1="59.6979" x2="142.0778" y2="12.0531">
			<stop  offset="0.1057" style="stop-color:#204199"/>
			<stop  offset="0.461" style="stop-color:#A21D21"/>
			<stop  offset="0.8124" style="stop-color:#0D743B"/>
		</linearGradient>
		<path class="st6" d="M150.17,59.7l-0.05-0.27c2.11-0.41,3.67-2.3,3.81-4.61c0.09-1.42-0.29-6.27-8.73-8.99
			c-7.58-2.44-11.43-1.23-13.28-0.65c-0.76,0.24-1.22,0.38-1.56,0.2c-0.18-0.1-0.31-0.28-0.39-0.57c-0.3-1.02,1.37-2.17,3.69-3.77
			c3.82-2.63,9.6-6.6,10.36-12.86c0.57-4.7-1.8-10.07-7.03-15.96l0.2-0.18c5.29,5.95,7.68,11.39,7.1,16.17
			c-0.77,6.38-6.61,10.39-10.47,13.05c-2.14,1.47-3.82,2.63-3.58,3.46c0.06,0.22,0.15,0.34,0.26,0.41c0.24,0.13,0.68-0.01,1.34-0.22
			c1.88-0.59,5.78-1.82,13.45,0.65c8.62,2.78,9,7.79,8.92,9.26C154.06,57.27,152.4,59.27,150.17,59.7z"/>
		<linearGradient id="SVGID_6_" gradientUnits="userSpaceOnUse" x1="142.1921" y1="59.7258" x2="142.1921" y2="12.0659">
			<stop  offset="0.1057" style="stop-color:#204199"/>
			<stop  offset="0.461" style="stop-color:#A21D21"/>
			<stop  offset="0.8124" style="stop-color:#0D743B"/>
		</linearGradient>
		<path class="st7" d="M146.85,59.73l-0.05-0.27c3.37-0.65,6.24-3.68,6.52-6.9c0.17-1.93-0.46-5.52-6.6-7.89
			c-6.65-2.56-10.46-1.54-12.73-0.93c-1.53,0.41-2.45,0.66-3.06-0.52c-0.78-1.5,1.32-3.07,4.22-5.24c3.85-2.88,9.12-6.82,9.7-12.57
			c0.4-3.99-1.53-8.42-5.76-13.17l0.2-0.18c4.28,4.81,6.24,9.31,5.82,13.38c-0.59,5.87-5.92,9.85-9.81,12.77
			c-2.69,2.01-4.81,3.6-4.14,4.89c0.51,0.98,1.25,0.78,2.74,0.38c2.31-0.62,6.17-1.65,12.9,0.94c6.31,2.43,6.95,6.16,6.78,8.17
			C153.3,55.91,150.34,59.05,146.85,59.73z"/>
		<linearGradient id="SVGID_7_" gradientUnits="userSpaceOnUse" x1="142.5462" y1="59.7542" x2="142.5462" y2="12.0788">
			<stop  offset="0.1057" style="stop-color:#204199"/>
			<stop  offset="0.461" style="stop-color:#A21D21"/>
			<stop  offset="0.8124" style="stop-color:#0D743B"/>
		</linearGradient>
		<path class="st8" d="M143.53,59.75l-0.05-0.27c4.83-0.94,9.31-5.08,9.78-9.04c0.24-2.01-0.44-4.84-5.03-6.93
			c-5.9-2.7-9.69-1.79-12.2-1.19c-1.84,0.44-3.18,0.76-4.15-0.7c-1.36-2.05,1.3-4.13,4.68-6.77c3.89-3.04,8.73-6.82,9.21-12.01
			c0.3-3.33-1.19-6.79-4.56-10.58l0.2-0.18c3.42,3.85,4.93,7.37,4.62,10.79c-0.48,5.31-5.38,9.14-9.31,12.21
			c-3.26,2.55-5.84,4.56-4.62,6.4c0.87,1.31,1.99,1.04,3.86,0.59c2.55-0.61,6.4-1.53,12.38,1.2c4.74,2.17,5.44,5.12,5.19,7.22
			C153.05,54.55,148.47,58.8,143.53,59.75z"/>
		<linearGradient id="SVGID_8_" gradientUnits="userSpaceOnUse" x1="143.0644" y1="59.782" x2="143.0644" y2="12.0917">
			<stop  offset="0.1057" style="stop-color:#204199"/>
			<stop  offset="0.461" style="stop-color:#A21D21"/>
			<stop  offset="0.8124" style="stop-color:#0D743B"/>
		</linearGradient>
		<path class="st9" d="M140.21,59.78l-0.05-0.27c6.93-1.34,12.81-6.9,13.43-10.98c0.38-2.49-0.95-4.62-3.85-6.19
			c-5.25-2.83-8.97-2.01-11.69-1.42c-2.16,0.47-3.87,0.85-5.22-0.92c-2.06-2.69,1.27-5.3,5.12-8.33c3.94-3.1,8.41-6.61,8.82-11.2
			c0.24-2.64-0.89-5.33-3.45-8.2l0.2-0.18c2.61,2.94,3.76,5.69,3.52,8.41c-0.42,4.71-4.94,8.26-8.92,11.39
			c-3.89,3.06-6.97,5.48-5.07,7.95c1.25,1.63,2.8,1.29,4.94,0.82c2.76-0.61,6.54-1.44,11.88,1.44c3.01,1.62,4.39,3.86,3.99,6.47
			C153.09,53.63,146.02,58.66,140.21,59.78z"/>
		<linearGradient id="SVGID_9_" gradientUnits="userSpaceOnUse" x1="143.6907" y1="59.8104" x2="143.6907" y2="12.1051">
			<stop  offset="0.1057" style="stop-color:#204199"/>
			<stop  offset="0.461" style="stop-color:#A21D21"/>
			<stop  offset="0.8124" style="stop-color:#0D743B"/>
		</linearGradient>
		<path class="st10" d="M136.89,59.81l-0.05-0.27c3.56-0.69,7.68-2.52,11.03-4.89c3.6-2.55,5.85-5.34,6.32-7.84
			c0.42-2.23-0.57-4.12-2.94-5.62c-4.67-2.97-8.29-2.22-11.2-1.63c-2.53,0.52-4.53,0.93-6.28-1.15c-0.73-0.87-1.04-1.75-0.94-2.68
			c0.26-2.41,3.33-4.76,6.57-7.24c3.8-2.91,8.11-6.21,8.48-10.14c0.19-1.99-0.62-3.97-2.46-6.05l0.2-0.18
			c1.9,2.14,2.73,4.19,2.53,6.26c-0.38,4.04-4.74,7.38-8.59,10.33c-3.19,2.45-6.21,4.76-6.46,7.06c-0.09,0.86,0.19,1.67,0.88,2.48
			c1.64,1.96,3.57,1.56,6.01,1.06c2.96-0.61,6.64-1.36,11.4,1.67c2.48,1.57,3.51,3.56,3.06,5.9
			C153.41,52.44,144.15,58.4,136.89,59.81z"/>
		<linearGradient id="SVGID_10_" gradientUnits="userSpaceOnUse" x1="144.3868" y1="59.8383" x2="144.3868" y2="12.1179">
			<stop  offset="0.1057" style="stop-color:#204199"/>
			<stop  offset="0.461" style="stop-color:#A21D21"/>
			<stop  offset="0.8124" style="stop-color:#0D743B"/>
		</linearGradient>
		<path class="st11" d="M133.57,59.84l-0.05-0.27c8.62-1.67,20.12-8.44,21.47-14.35c0.46-2.01-0.29-3.76-2.22-5.2
			c-4.15-3.1-7.64-2.42-10.72-1.83c-2.77,0.53-5.17,1-7.32-1.4c-1.02-1.13-1.45-2.25-1.32-3.43c0.31-2.85,3.85-5.41,7.61-8.12
			c3.83-2.76,7.78-5.61,8.14-8.81c0.15-1.39-0.37-2.74-1.61-4.13l0.2-0.18c1.29,1.45,1.84,2.87,1.68,4.35
			c-0.37,3.32-4.37,6.21-8.25,9c-3.7,2.67-7.2,5.19-7.5,7.92c-0.12,1.1,0.29,2.15,1.25,3.22c2.05,2.28,4.37,1.83,7.06,1.32
			c3.14-0.6,6.69-1.29,10.94,1.88c2.03,1.51,2.81,3.36,2.33,5.48C153.88,51.28,142.27,58.15,133.57,59.84z"/>
		<linearGradient id="SVGID_11_" gradientUnits="userSpaceOnUse" x1="143.2855" y1="59.8667" x2="143.2855" y2="12.1308">
			<stop  offset="0.1057" style="stop-color:#204199"/>
			<stop  offset="0.461" style="stop-color:#A21D21"/>
			<stop  offset="0.8124" style="stop-color:#0D743B"/>
		</linearGradient>
		<path class="st12" d="M130.25,59.87l-0.05-0.27c10.24-1.99,23.99-9.5,25.72-15.85c0.5-1.85-0.05-3.5-1.64-4.89
			c-3.66-3.22-7.02-2.61-10.26-2.02c-2.97,0.54-5.78,1.06-8.35-1.66c-1.35-1.42-1.92-2.82-1.75-4.26c0.39-3.33,4.76-6.18,8.97-8.92
			c3.77-2.46,7.34-4.78,7.66-7.19c0.11-0.85-0.18-1.67-0.91-2.49l0.2-0.18c0.77,0.87,1.1,1.78,0.98,2.71
			c-0.34,2.53-3.96,4.89-7.78,7.39c-4.16,2.71-8.47,5.52-8.85,8.73c-0.16,1.36,0.39,2.68,1.67,4.04c2.47,2.61,5.2,2.11,8.1,1.58
			c3.15-0.58,6.73-1.23,10.49,2.08c1.67,1.47,2.26,3.21,1.72,5.17C154.43,50.26,140.57,57.87,130.25,59.87z"/>
		<linearGradient id="SVGID_12_" gradientUnits="userSpaceOnUse" x1="142.1678" y1="59.8946" x2="142.1678" y2="12.1436">
			<stop  offset="0.1057" style="stop-color:#204199"/>
			<stop  offset="0.461" style="stop-color:#A21D21"/>
			<stop  offset="0.8124" style="stop-color:#0D743B"/>
		</linearGradient>
		<path class="st13" d="M126.93,59.89l-0.05-0.27c11.87-2.3,27.92-10.51,30.06-17.26c0.55-1.74,0.16-3.31-1.15-4.68
			c-3.22-3.35-6.57-2.76-9.82-2.2c-3.13,0.54-6.37,1.11-9.36-1.93c-1.7-1.74-2.44-3.49-2.2-5.19c0.57-3.91,6.05-6.96,10.88-9.66
			c3.53-1.97,6.58-3.67,6.85-5.23c0.07-0.41-0.06-0.79-0.39-1.16l0.2-0.18c0.39,0.44,0.54,0.9,0.46,1.39
			c-0.29,1.69-3.39,3.42-6.98,5.42c-4.78,2.67-10.2,5.69-10.74,9.46c-0.24,1.64,0.46,3.26,2.12,4.96c2.89,2.93,5.92,2.4,9.12,1.85
			c3.32-0.58,6.74-1.17,10.06,2.28c1.39,1.44,1.8,3.11,1.21,4.95C154.85,49.86,137.43,57.86,126.93,59.89z"/>
		<linearGradient id="SVGID_13_" gradientUnits="userSpaceOnUse" x1="141.0921" y1="59.923" x2="141.0921" y2="12.1565">
			<stop  offset="0.1057" style="stop-color:#204199"/>
			<stop  offset="0.461" style="stop-color:#A21D21"/>
			<stop  offset="0.8124" style="stop-color:#0D743B"/>
		</linearGradient>
		<path class="st14" d="M123.61,59.92l-0.05-0.27c11.86-2.3,31.65-10.89,34.47-18.6c0.61-1.66,0.36-3.18-0.73-4.53
			c-2.8-3.47-6-2.93-9.39-2.37c-3.41,0.57-6.94,1.16-10.35-2.2c-2.15-2.12-3.05-4.22-2.68-6.22c0.88-4.69,8.39-7.94,13.87-10.31
			c2.7-1.17,5.04-2.18,5.18-2.85c0.01-0.05,0.02-0.14-0.07-0.24l0.2-0.18c0.13,0.14,0.18,0.31,0.14,0.48
			c-0.18,0.8-2.34,1.74-5.34,3.04c-5.42,2.35-12.85,5.56-13.71,10.11c-0.36,1.9,0.52,3.91,2.6,5.97c3.32,3.26,6.77,2.69,10.11,2.13
			c3.47-0.58,6.75-1.13,9.65,2.47c1.15,1.43,1.41,3.04,0.77,4.79C155.43,48.94,135.53,57.61,123.61,59.92z"/>
		<linearGradient id="SVGID_14_" gradientUnits="userSpaceOnUse" x1="140.0497" y1="59.9508" x2="140.0497" y2="12.1254">
			<stop  offset="0.1057" style="stop-color:#204199"/>
			<stop  offset="0.461" style="stop-color:#A21D21"/>
			<stop  offset="0.8124" style="stop-color:#0D743B"/>
		</linearGradient>
		<path class="st15" d="M120.29,59.95l-0.05-0.27c13.27-2.57,35.56-11.82,38.92-19.89c0.67-1.61,0.55-3.1-0.35-4.44
			c-2.41-3.6-5.46-3.1-8.98-2.53c-3.51,0.57-7.49,1.21-11.33-2.48c-2.77-2.67-3.81-5.23-3.08-7.61c0.93-3.07,4.7-5.78,11.18-8.08
			c4.81-1.7,9.4-2.52,9.45-2.53l0.05,0.27c-0.18,0.03-18.24,3.29-20.41,10.41c-0.69,2.28,0.32,4.75,3.01,7.33
			c3.74,3.6,7.48,2.99,11.09,2.41c3.47-0.56,6.75-1.09,9.26,2.65c0.95,1.42,1.08,3,0.37,4.69c-1.53,3.69-7.1,7.98-15.68,12.09
			C136.34,55.53,127.36,58.58,120.29,59.95z"/>
	</g>
	<g>
		<path class="st16" d="M16.49,27.55h6.76v26.99H33.4v5.42H16.49V27.55z"/>
		<path class="st16" d="M35.2,43.62c0-4.7,2.73-7.04,8.2-7.04c3.21,0,5.53,0.57,6.98,1.69c1.44,1.13,2.16,3.09,2.16,5.88v11.8
			c0,1.41,0.09,2.74,0.28,4.01h-5.88l-0.28-3.17c-1.28,2.44-3.24,3.65-5.88,3.65c-4.04,0-6.06-2.43-6.06-7.29
			c0-2.79,0.74-4.8,2.21-6.03c1.47-1.23,4.15-1.85,8.03-1.85h1.31v-1.89c0-1.07-0.17-1.88-0.5-2.42c-0.34-0.56-0.97-0.84-1.9-0.84
			c-0.92,0-1.55,0.29-1.88,0.86c-0.34,0.56-0.5,1.44-0.5,2.64H35.2z M46.26,48.81c-2.09,0-3.49,0.26-4.2,0.79
			c-0.71,0.51-1.07,1.55-1.07,3.1c0,2.51,0.79,3.76,2.36,3.76c1.94,0,2.91-1.58,2.91-4.75V48.81z"/>
		<path class="st16" d="M56.68,49.89h6.76c0,2.2,0.26,3.7,0.79,4.49c0.52,0.78,1.49,1.17,2.89,1.17c1.04,0,1.85-0.29,2.45-0.88
			c0.6-0.59,0.9-1.52,0.9-2.8c0-0.87-0.31-1.69-0.92-2.47c-0.61-0.79-1.71-1.64-3.28-2.55l-4.35-2.62c-1.52-0.91-2.71-2.08-3.59-3.5
			c-0.86-1.44-1.29-3.03-1.29-4.78c0-5.94,3.54-8.92,10.61-8.92c6.23,0,9.34,2.88,9.34,8.63c0,0.4,0,0.81,0,1.23h-6.65
			c0-1.66-0.24-2.9-0.72-3.72c-0.47-0.82-1.22-1.23-2.25-1.23c-1.14,0-2,0.28-2.58,0.84c-0.58,0.56-0.87,1.39-0.87,2.51
			c0.03,1,0.4,1.9,1.12,2.71c0.71,0.81,1.84,1.63,3.39,2.47l1.62,0.92c2.07,1.25,3.81,2.58,5.21,3.98c1.4,1.41,2.1,3.35,2.1,5.83
			c0,3.04-0.95,5.34-2.84,6.91c-1.9,1.56-4.74,2.33-8.53,2.33c-6.18,0-9.27-3.02-9.27-9.05C56.68,50.94,56.68,50.43,56.68,49.89z"/>
		<path class="st16" d="M80.79,48.22c0-4.61,0.77-7.7,2.3-9.27c1.53-1.58,3.88-2.38,7.04-2.38c3,0,5.29,0.79,6.85,2.36
			c1.56,1.56,2.34,4.65,2.34,9.29c0,4.9-0.77,8.17-2.3,9.8c-1.53,1.61-3.83,2.42-6.89,2.42c-3.38,0-5.79-0.89-7.22-2.66
			c-1.41-1.78-2.12-4.51-2.12-8.21V48.22z M87.07,48.06c0,3.46,0.2,5.73,0.59,6.8c0.41,1.07,1.23,1.61,2.47,1.61
			c1.14,0,1.9-0.55,2.3-1.65c0.41-1.1,0.61-3.35,0.61-6.76c0-3.13-0.22-5.16-0.66-6.1c-0.42-0.95-1.17-1.43-2.25-1.43
			c-1.27,0-2.1,0.54-2.49,1.61c-0.38,1.06-0.57,2.55-0.57,4.49V48.06z"/>
		<path class="st16" d="M103.39,27.55h6.76v26.99h10.15v5.42h-16.91V27.55z"/>
	</g>
</g>
</svg>
