<?xml version="1.0" encoding="utf-8"?>
<!-- Generator: Adobe Illustrator 26.0.1, SVG Export Plug-In . SVG Version: 6.00 Build 0)  -->
<svg version="1.1" id="Capa_1" xmlns="http://www.w3.org/2000/svg" xmlns:xlink="http://www.w3.org/1999/xlink" x="0px" y="0px"
	 viewBox="0 0 180 79" style="enable-background:new 0 0 180 79;" xml:space="preserve">
<style type="text/css">
	.st0{fill:#F3F4F5;}
	.st1{fill:#B4CAE3;}
	.st2{fill:#91C3E6;}
</style>
<path class="st0" d="M140.8,77H39.2C18.5,77,1.7,60.2,1.7,39.5v0C1.7,18.8,18.5,2,39.2,2h101.5c20.7,0,37.5,16.8,37.5,37.5v0
	C178.3,60.2,161.5,77,140.8,77z"/>
<path class="st1" d="M140.8,78.7H39.2C17.6,78.7,0,61.1,0,39.5S17.6,0.3,39.2,0.3h101.5c21.6,0,39.2,17.6,39.2,39.2
	S162.4,78.7,140.8,78.7z M39.2,3.8c-19.7,0-35.7,16-35.7,35.7c0,19.7,16,35.7,35.7,35.7h101.5c19.7,0,35.7-16,35.7-35.7
	c0-19.7-16-35.7-35.7-35.7H39.2z"/>
<g>
	<path class="st2" d="M120,6c0.4,0.1,0.9,0.1,1.3,0.2c2.2,0.3,4.3,1.1,6.2,2.1c1.8,1,3.4,2.3,4.8,3.9c1.8,1.9,3.1,4.2,4,6.6
		c0.2,0.6,0.4,1.3,0.6,2c0.1,0.4,0,0.8-0.2,1.2c-0.4,0.6-1,1-1.6,1.4c-1.3,0.8-2.6,1.5-4,2.2c-0.2,0.1-0.3,0.2-0.4,0.4
		c-0.3,1.1-0.8,2.1-1.2,3.1c-0.2,0.4-0.3,0.8-0.5,1.1c-0.1,0.2-0.1,0.4,0.2,0.5c1,0.5,2,0.9,3,1.4c2.1,1.1,3.8,2.8,4.9,4.9
		c0.4,0.7,0.6,1.5,0.9,2.3c0.2,0.6,0.4,1.2,0.7,1.8c0.1,0.2,0,0.4-0.2,0.4c-0.3,0.1-0.5,0.2-0.8,0.3c-0.3,0.1-0.3,0-0.4-0.2
		c-0.4-1.2-0.9-2.4-1.3-3.5c-0.3-0.8-0.8-1.5-1.3-2.1c-1.2-1.5-2.8-2.5-4.6-3.3c-0.5-0.2-0.9-0.4-1.4-0.7c-0.2-0.1-0.3-0.1-0.4,0.1
		c-0.2,0.5-0.5,1-0.7,1.5c-0.1,0.2-0.1,0.3,0.1,0.4c0.7,0.3,1.4,0.6,2.1,1c1.9,0.9,3.2,2.3,4,4.3c0.9,2.5,1.8,5,2.7,7.4
		c0.2,0.4,0.2,0.5-0.3,0.6c-0.2,0.1-0.5,0.2-0.7,0.3c-0.2,0.1-0.3,0-0.4-0.2c-0.4-1.2-0.9-2.3-1.3-3.5c-0.6-1.5-1.1-3.1-1.7-4.6
		c-0.5-1.2-1.4-2.1-2.6-2.8c-0.8-0.4-1.7-0.8-2.5-1.2c-0.2-0.1-0.3-0.1-0.3,0.1c-0.2,0.5-0.5,1-0.7,1.5c-0.1,0.2,0,0.3,0.1,0.3
		c0.8,0.4,1.6,0.7,2.4,1.1c0.7,0.4,1.3,1,1.6,1.8c1,2.7,2,5.4,3,8.2c0.7,1.8,1.3,3.7,2,5.5c0.1,0.4,0.1,0.4-0.2,0.5
		c-0.2,0.1-0.5,0.2-0.7,0.3c-0.2,0.1-0.3,0-0.4-0.2c-0.4-1.2-0.9-2.3-1.3-3.5c-1.3-3.4-2.5-6.9-3.8-10.3c-0.2-0.5-0.5-0.8-0.9-1
		c-0.7-0.4-1.5-0.7-2.2-1.1c-0.2-0.1-0.2,0-0.3,0.1c-0.3,0.7-0.7,1.4-1,2.1c-0.2,0.5-0.3,1-0.1,1.6c1.1,3,2.2,6,3.3,9
		c0.6,1.6,1.1,3.1,1.7,4.7c0.1,0.2,0,0.3-0.2,0.4c-0.3,0.1-0.5,0.2-0.8,0.3c-0.4,0.1-0.4,0.1-0.5-0.2c-0.5-1.3-1-2.7-1.5-4
		c-1.2-3.3-2.4-6.5-3.6-9.8c-0.3-0.8-0.2-1.5,0.1-2.3c0.3-0.8,0.7-1.6,1.1-2.3c0.1-0.2,0.1-0.3-0.2-0.4c-0.5-0.2-0.9-0.4-1.4-0.6
		c-0.2-0.1-0.3-0.1-0.4,0.1c-0.3,0.7-0.7,1.4-1,2.2c-0.7,1.7-0.7,3.3,0,5c0.9,2.4,1.7,4.8,2.6,7.1c0.1,0.2,0.1,0.4-0.2,0.4
		c-0.3,0.1-0.6,0.2-0.8,0.3c-0.2,0.1-0.3,0-0.4-0.2c-0.4-1.1-0.8-2.1-1.2-3.2c-0.6-1.6-1.1-3.1-1.7-4.7c-0.7-1.9-0.5-3.7,0.3-5.5
		c0.3-0.7,0.7-1.5,1-2.2c0.1-0.2,0.1-0.3-0.1-0.4c-0.5-0.2-1-0.5-1.6-0.7c-0.2-0.1-0.3,0-0.3,0.1c-0.5,1.1-1.1,2.2-1.5,3.3
		c-0.3,0.9-0.5,1.8-0.6,2.8c-0.1,1,0,1.9,0.2,2.8c0.2,0.8,0.5,1.6,0.8,2.4c0.2,0.6,0.4,1.1,0.6,1.7c0.1,0.2,0,0.3-0.2,0.4
		c-0.3,0.1-0.6,0.2-0.9,0.3c-0.2,0.1-0.2,0-0.3-0.1c-0.5-1.4-1-2.7-1.4-4.1c-0.3-1.1-0.4-2.3-0.3-3.5c0.1-1.3,0.4-2.6,0.9-3.8
		c0.4-0.9,0.8-1.8,1.2-2.7c0.2-0.4,0.2-0.4-0.2-0.6c-1.2-0.6-2.5-1-3.6-1.8c-0.5-0.3-0.9-0.3-1.4-0.2c-1.5,0.4-3,0.7-4.5,0.8
		c-0.6,0.1-1.2,0.1-1.8-0.1c-0.3-0.1-0.5-0.3-0.6-0.6c-1-2.1-1.6-4.2-1.9-6.5c-0.1-1-0.2-2-0.2-3c0.1-2.6,0.6-5.2,1.7-7.6
		c0.8-1.7,1.8-3.3,3.1-4.6c2.5-2.7,5.6-4.3,9.2-4.8c0.4-0.1,0.8-0.1,1.3-0.2C118.7,6,119.3,6,120,6z M119.1,7.5c-0.3,0-0.6,0-0.9,0
		c-0.3,0-0.6,0-0.8,0.1c-3.2,0.4-5.9,1.7-8.2,3.9c-1.4,1.3-2.5,2.9-3.3,4.7c-1,2.2-1.5,4.6-1.6,7c0,1.1,0.1,2.2,0.2,3.3
		c0.2,1.3,0.5,2.6,1,3.9c0.1,0.2,0.1,0.3,0.3,0.1c0.9-0.7,2-1.3,3-1.8c0.3-0.2,0.3-0.2,0.2-0.5c-1.2-2.3-1.6-4.7-1.2-7.2
		c0.4-2.9,1.7-5.3,3.9-7.3c2.7-2.3,5.7-3.2,9.2-2.8c2.6,0.3,4.9,1.4,6.8,3.3c1.7,1.7,2.8,3.7,3.3,6.1c0.1,0.3,0.1,0.3,0.4,0.2
		c1.2-0.3,2.4-0.5,3.6-0.5c0.2,0,0.2-0.1,0.1-0.2c-0.1-0.4-0.3-0.7-0.4-1.1c-1-2.3-2.3-4.3-4.1-6.1c-0.9-1-2-1.8-3.1-2.5
		C124.9,8.4,122.1,7.5,119.1,7.5z M109.1,22.7c0,0.4,0,0.7,0.1,1.1c0.1,1.4,0.6,2.7,1.2,3.9c0.1,0.2,0.2,0.2,0.3,0.1
		c0.6-0.3,1.2-0.6,1.8-0.8c0.2-0.1,0.2-0.2,0.1-0.4c-0.6-1.3-0.9-2.6-0.7-4.1c0.2-2.2,1.2-4,3-5.4c1.7-1.3,3.7-1.8,5.8-1.5
		c1.6,0.2,3,0.9,4.3,2c1.1,1,1.8,2.2,2.2,3.7c0.1,0.2,0.1,0.3,0.4,0.2c0.6-0.2,1.2-0.3,1.8-0.5c0.2-0.1,0.3-0.2,0.3-0.4
		c-0.5-2.3-1.6-4.2-3.3-5.7c-2.3-2-5-2.9-8.1-2.5c-2.6,0.3-4.8,1.5-6.6,3.5C109.9,17.9,109.1,20.2,109.1,22.7z M115.7,23.3
		c0-0.2,0-0.4,0-0.5c0.3-2.4,2.8-4,5.1-3.2c1.4,0.5,2.3,1.4,2.7,2.9c0.1,0.3,0.2,0.3,0.4,0.2c0.5-0.2,1-0.3,1.5-0.5
		c0.3-0.1,0.3-0.2,0.2-0.5c-0.4-1.4-1.2-2.5-2.3-3.4c-2.5-1.9-6-1.6-8.2,0.6c-1.9,1.9-2.4,4.7-1.2,7.2c0.1,0.2,0.2,0.2,0.4,0.1
		c0.5-0.2,1.1-0.5,1.6-0.7c0.2-0.1,0.2-0.2,0.1-0.4C115.8,24.6,115.7,24,115.7,23.3z M117.2,23.3c0,0.5,0.1,0.9,0.3,1.3
		c0.1,0.2,0.2,0.2,0.4,0.1c1.3-0.5,2.7-1,4-1.5c0.2-0.1,0.3-0.2,0.2-0.4c-0.2-1.2-1.4-2.2-2.6-2.1C118.2,20.9,117.2,22,117.2,23.3z
		 M125.9,23.7c0-0.1-0.1-0.1-0.3-0.1c-0.6,0.2-1.2,0.4-1.9,0.6c-0.1,0-0.2,0.1-0.3,0.2c-0.3,0.9-0.8,1.7-1.2,2.6
		c-0.1,0.2,0,0.3,0.2,0.4c0.1,0.1,0.2,0,0.4,0c0.7-0.3,1.3-0.5,2-0.8c0.1,0,0.2-0.1,0.2-0.2C125.5,25.6,125.8,24.8,125.9,23.7z
		 M117.6,29.2C117.6,29.2,117.7,29.2,117.6,29.2c0.8-0.3,1.6-0.5,2.3-0.8c0.2-0.1,0.2-0.2,0.3-0.4c0-0.2-0.2-0.2-0.3-0.2
		c-0.8-0.4-1.7-0.7-2.5-1.2c-0.1-0.1-0.3,0-0.4,0c-0.6,0.2-1.2,0.5-1.8,0.7c-0.2,0.1-0.2,0.2-0.1,0.3c0.5,0.5,1.1,0.9,1.7,1.2
		C117.1,29.1,117.4,29.2,117.6,29.2z M127.1,25.7C127.1,25.7,127.1,25.7,127.1,25.7c0.8-0.3,1.6-0.7,2.4-1c0.1-0.1,0.2-0.2,0.2-0.3
		c0.1-0.6,0.1-1.1,0.1-1.7c0-0.2-0.1-0.3-0.3-0.2c-0.6,0.2-1.3,0.4-1.9,0.5c-0.1,0-0.2,0.1-0.2,0.3c0,0.8-0.1,1.5-0.3,2.2
		C127,25.6,127,25.6,127.1,25.7z M112.9,30.7C112.9,30.7,112.9,30.7,112.9,30.7c0.9-0.2,1.7-0.5,2.5-0.7c0.2-0.1,0.1-0.1,0-0.2
		c-0.6-0.4-1.2-0.9-1.7-1.5c-0.1-0.1-0.2-0.1-0.3-0.1c-0.6,0.3-1.3,0.6-1.9,0.9c-0.1,0.1-0.2,0.2-0.1,0.3c0.4,0.4,0.8,0.9,1.2,1.2
		C112.7,30.6,112.8,30.7,112.9,30.7z M118.6,31.5c0-0.1-0.1-0.2-0.1-0.2c-0.2-0.1-0.5-0.2-0.7-0.3c-0.2-0.1-0.4-0.1-0.5,0
		c-0.8,0.3-1.6,0.5-2.4,0.8c-0.1,0-0.2,0-0.3,0.1c0,0.1,0.1,0.1,0.2,0.2c0.9,0.4,1.8,0.8,2.7,1.3c0.2,0.1,0.3,0,0.4-0.1
		C118.1,32.6,118.3,32.1,118.6,31.5C118.6,31.5,118.6,31.5,118.6,31.5z M129,26.5c-1,0.4-1.9,0.8-2.8,1.2c-0.1,0-0.1,0.1-0.2,0.2
		c-0.1,0.3-0.2,0.5-0.4,0.8c-0.1,0.2,0,0.3,0.1,0.4c0.5,0.2,1,0.4,1.5,0.7c0.2,0.1,0.3,0.1,0.4-0.1c0.3-0.7,0.7-1.4,1-2.2
		C128.8,27.1,129,26.9,129,26.5z M122,33c0-0.1-0.1-0.1-0.2-0.2c-0.5-0.3-1.1-0.5-1.6-0.8c-0.1-0.1-0.2,0-0.3,0.1
		c-0.2,0.5-0.5,1.1-0.7,1.6c-0.1,0.2,0,0.2,0.1,0.3c0.5,0.3,1.1,0.5,1.6,0.8c0.1,0,0.2,0.1,0.2-0.1C121.4,34.2,121.7,33.7,122,33
		C122,33.1,122,33.1,122,33z M126.9,31.2c0-0.1-0.1-0.1-0.1-0.2c-0.5-0.2-1-0.5-1.6-0.7c-0.1-0.1-0.2-0.1-0.3,0.1
		c-0.2,0.5-0.5,1.1-0.7,1.6c-0.1,0.2-0.1,0.3,0.1,0.4c0.5,0.2,1,0.5,1.5,0.7c0.2,0.1,0.3,0.1,0.4-0.1c0.2-0.5,0.5-1.1,0.7-1.6
		C126.9,31.3,126.9,31.2,126.9,31.2z M124.3,36.4c0.1,0,0.2-0.1,0.2-0.1c0.2-0.5,0.5-1.1,0.7-1.6c0.1-0.1,0-0.2-0.1-0.3
		c-0.5-0.2-1.1-0.5-1.6-0.7c-0.1-0.1-0.2,0-0.3,0.1c-0.2,0.5-0.5,1.1-0.7,1.6c-0.1,0.2,0,0.3,0.1,0.3c0.5,0.2,1,0.5,1.5,0.7
		C124.2,36.4,124.3,36.4,124.3,36.4z M123.6,29.7c0-0.1,0-0.1-0.1-0.2c-0.5-0.2-0.9-0.5-1.5-0.2c-0.8,0.4-0.8,0.3-1.2,1.1
		c0,0,0,0,0,0c-0.1,0.2-0.1,0.3,0.1,0.4c0.5,0.2,1.1,0.5,1.6,0.7c0.1,0.1,0.2,0,0.3-0.1C123,30.9,123.3,30.3,123.6,29.7
		C123.5,29.7,123.5,29.7,123.6,29.7z M135.1,21.5c-0.1-0.1-0.2-0.1-0.2-0.1c-1.2,0.1-2.3,0.3-3.4,0.6c-0.2,0-0.2,0.1-0.2,0.3
		c0,0.4,0,0.8,0,1.2c0,0.2,0.1,0.2,0.3,0.2c0.6-0.3,1.3-0.7,1.9-1C134,22.3,134.6,22,135.1,21.5z M106.6,31.9c0.3,0.1,0.6,0,0.9,0
		c1.1-0.1,2.2-0.4,3.3-0.6c0.2,0,0.2-0.1,0.1-0.3c-0.3-0.3-0.5-0.6-0.8-0.9c-0.1-0.2-0.2-0.2-0.4-0.1c-0.9,0.4-1.7,0.9-2.5,1.4
		C107,31.5,106.8,31.6,106.6,31.9z M119.2,25.8C119.2,25.9,119.2,25.9,119.2,25.8c0.5,0.3,1,0.5,1.4,0.8c0.1,0,0.2,0.1,0.2-0.1
		c0.2-0.5,0.5-1,0.7-1.5c0,0,0,0-0.1-0.1C120.8,25.3,120,25.5,119.2,25.8z"/>
	<path class="st2" d="M108.3,51.2c0,1.7,0,3.4,0,5.1c0,0.4,0,0.4-0.4,0.4c-0.5,0-1.1,0-1.6,0c-0.3,0-0.3-0.1-0.3-0.3
		c0-1.3,0-2.7,0-4c0-0.4,0-0.4-0.4-0.4c-1.3,0-2.6,0-3.8,0c-0.4,0-0.4,0-0.4,0.4c0,1.3,0,2.7,0,4c0,0.4,0,0.4-0.4,0.4
		c-0.6,0-1.1,0-1.7,0c-0.2,0-0.3-0.1-0.3-0.3c0-2.2,0-4.5,0-6.7c0-1.5,0-3.1,0-4.6c0-0.7,0-1.4,0.2-2c0.5-1.6,1.7-2.6,3.3-2.8
		c0.8-0.1,1.5-0.1,2.3,0c1.8,0.4,2.8,1.6,3.2,3.3c0.1,0.4,0.1,0.8,0.1,1.2C108.3,47,108.3,49.1,108.3,51.2z M101.4,46.9
		c0,0.9,0,1.6,0,2.4c0,0.2,0,0.3,0.3,0.3c1.3,0,2.7,0,4,0c0.2,0,0.2-0.1,0.3-0.2c0.1-0.5,0-0.9,0-1.4c0-1.1,0-2.3-0.1-3.4
		c0-0.5-0.2-1-0.6-1.4c-0.5-0.5-1.1-0.6-1.8-0.6c-1.2,0-2,0.7-2.1,1.9C101.3,45.3,101.4,46.1,101.4,46.9z"/>
	<path class="st2" d="M75.8,50.8c0-1.8,0-3.7,0-5.5c0-0.8,0.1-1.6,0.4-2.4c0.5-1.3,1.4-2.1,2.7-2.5c1-0.3,2.1-0.3,3.1,0
		c1.6,0.4,2.5,1.5,2.9,3.1c0.3,1,0.3,2.1,0,3.2c-0.4,1.4-1.3,2.3-2.5,3c-0.4,0.2-0.4,0.2-0.2,0.6c1.2,2.1,2.3,4.1,3.4,6.2
		c0,0,0,0,0,0.1c0.2,0.3,0.2,0.3-0.2,0.3c-0.5,0-1.1,0-1.6,0c-0.5,0-0.8-0.2-1.1-0.6c-0.5-0.8-0.9-1.6-1.4-2.4c-0.5-1-1.1-2-1.6-2.9
		c-0.3-0.5-0.7-0.9-1.3-0.8c-0.3,0-0.4,0.1-0.4,0.4c0,2,0,4,0,5.9c0,0.4,0,0.4-0.4,0.4c-0.5,0-1.1,0-1.6,0c-0.3,0-0.4-0.1-0.4-0.4
		C75.8,54.5,75.8,52.6,75.8,50.8C75.8,50.8,75.8,50.8,75.8,50.8z M82.8,45.1c0-0.2,0-0.3,0-0.4c0-1-0.7-1.8-1.6-2.1
		c-1.3-0.4-2.8,0.4-2.9,1.9c0,0.3-0.1,0.6-0.1,0.9c0,0.7-0.1,1.3-0.1,2c0,0.2,0.1,0.2,0.2,0.2c0.8,0,1.7,0.1,2.5,0
		c0.9-0.1,1.6-0.7,1.8-1.6C82.8,45.7,82.8,45.4,82.8,45.1z"/>
	<path class="st2" d="M41.4,50.7c0-1.8,0-3.6,0-5.4c0-1,0.1-1.9,0.6-2.8c0.7-1.4,1.9-2.1,3.4-2.2c0.8-0.1,1.6,0,2.4,0.2
		c1.3,0.5,2.2,1.4,2.6,2.7c0.3,1.1,0.4,2.2,0.1,3.3c-0.4,1.5-1.3,2.5-2.6,3.2c-0.4,0.2-0.4,0.2-0.2,0.6c1.1,2.1,2.3,4.1,3.4,6.2
		c0,0,0,0,0,0.1c0.2,0.3,0.1,0.3-0.2,0.3c-0.6,0-1.2,0-1.8,0c-0.3,0-0.6-0.1-0.7-0.4c-0.4-0.7-0.8-1.3-1.1-2c-0.7-1.2-1.3-2.4-2-3.6
		c-0.3-0.5-0.6-0.9-1.3-0.8c-0.4,0-0.5,0.1-0.5,0.5c0,1.9,0,3.9,0,5.8c0,0.5,0,0.5-0.5,0.5c-0.5,0-1,0-1.5,0c-0.4,0-0.4,0-0.4-0.4
		C41.4,54.5,41.4,52.6,41.4,50.7z M45.3,47.6c0.4,0.1,0.7,0,1.1,0c0.9-0.1,1.6-0.7,1.8-1.6c0.1-0.4,0.1-0.8,0.1-1.2
		c0-1.3-0.8-2.2-2.1-2.4c-1.1-0.2-2.2,0.6-2.4,1.7c-0.2,1.1-0.2,2.2-0.2,3.2c0,0.2,0.1,0.3,0.3,0.3C44.4,47.6,44.8,47.6,45.3,47.6z"
		/>
	<path class="st2" d="M92.5,47.1c0.7,0,1.4,0,2.1,0c0.3,0,0.3,0,0.2,0.3c-0.2,0.6-0.4,1.2-0.5,1.8c-0.1,0.2-0.2,0.3-0.4,0.3
		c-1.1,0-2.2,0-3.3,0c-0.4,0-0.4,0-0.4,0.4c0,0.8,0,1.6,0,2.4c0,1.2,1,2.2,2.3,2.2c1.1,0,2.2-0.9,2.4-2c0-0.2,0.1-0.3,0.3-0.3
		c0.5,0,1,0,1.6,0c0.3,0,0.3,0.1,0.3,0.3c-0.1,1.2-0.5,2.3-1.5,3.1c-0.9,0.8-2,1.2-3.2,1.2c-2.1,0-3.9-1.5-4.4-3.6
		c-0.1-0.3-0.1-0.6-0.1-1c-0.1-1.9-0.1-3.8-0.1-5.6c0-1.1-0.1-2.2,0.3-3.3c0.6-1.7,1.8-2.8,3.6-3.1c1.6-0.3,3,0.2,4.1,1.3
		c0.8,0.8,1.2,1.8,1.2,2.9c0,0.3-0.1,0.4-0.4,0.4c-0.5,0-1,0-1.5,0c-0.2,0-0.3,0-0.3-0.3c-0.1-1.2-1.2-2.1-2.4-2
		c-1.2,0-2.2,1.1-2.2,2.3c0,0.7,0,1.4,0,2.1c0,0.2,0.1,0.3,0.3,0.3C91.1,47.1,91.8,47.1,92.5,47.1z"/>
	<path class="st2" d="M53.2,48.4c0-1.3,0-2.5,0-3.8c0-2.2,1.6-4.1,3.8-4.4c2.5-0.4,4.8,1.1,5.3,3.6c0.1,0.2,0.1,0.5,0.1,0.8
		c0,0.2-0.1,0.2-0.2,0.2c-0.6,0-1.2,0-1.8,0c-0.2,0-0.2-0.1-0.2-0.2c-0.1-1-0.8-1.8-1.8-2c-1.4-0.3-2.6,0.5-2.8,1.8
		c-0.2,0.8,0,1.7-0.1,2.6c0,0.2,0.1,0.2,0.3,0.2c0.4,0,0.7,0,1.1,0c1,0,2.1,0,3.1,0c0.4,0,0.4,0,0.3,0.4c-0.1,0.4-0.3,0.8-0.4,1.1
		c-0.2,0.6-0.5,0.8-1.1,0.8c-1,0-1.9,0-2.9,0c-0.4,0-0.4,0-0.4,0.4c0,0.8,0,1.5,0,2.3c0,1.7,1.7,2.8,3.3,2.2
		c0.8-0.3,1.2-0.9,1.3-1.7c0-0.3,0.2-0.3,0.4-0.3c0.5,0,1.1,0,1.6,0c0.2,0,0.3,0.1,0.3,0.3c-0.2,1.6-1,2.9-2.4,3.7
		c-1.5,0.9-3.7,0.7-5-0.4c-1.2-1-1.8-2.2-1.8-3.7C53.2,50.9,53.2,49.7,53.2,48.4z"/>
	<path class="st2" d="M64.2,48.5c0-1.2,0-2.4,0-3.6c-0.1-2.4,1.7-4.4,4-4.7c2.7-0.3,5,1.7,5.2,4.3c0,0.4,0,0.4-0.4,0.4
		c-0.5,0-1,0-1.5,0c-0.3,0-0.4-0.1-0.4-0.3c-0.1-1.1-1.1-1.9-2.1-2c-1.4-0.1-2.3,1-2.5,1.8c0,0.2,0,0.3,0,0.5c0,2.4,0,4.9,0,7.3
		c0,1.2,1,2.2,2,2.3c1.3,0.1,2.4-0.7,2.6-2c0-0.2,0.1-0.3,0.3-0.3c0.6,0,1.1,0,1.7,0c0.2,0,0.3,0.1,0.3,0.3
		c-0.1,0.8-0.3,1.6-0.8,2.2c-1.5,2.2-4.3,2.7-6.5,1.2c-1.2-0.9-1.9-2.1-1.9-3.6C64.2,51,64.2,49.7,64.2,48.5z"/>
	<path class="st2" d="M77,68.4c0-1.3,0-2.6,0-3.8c0-1.3,0.6-2.2,1.8-2.8c1.2-0.5,2.3-0.4,3.3,0.5c0.4,0.3,0.4,0.3,0.8,0
		c1-0.8,2.2-1,3.4-0.5c1.2,0.5,1.8,1.5,1.8,2.8c0,2.6,0,5.2,0,7.8c0,0.4,0,0.4-0.4,0.4c-0.2,0-0.5,0-0.7,0c-0.4,0-0.4,0-0.4-0.4
		c0-2.2,0-4.3,0-6.5c0-0.4,0-0.8,0-1.2c0-0.9-0.7-1.7-1.6-1.7c-0.9,0-1.6,0.7-1.6,1.6c0,1.7,0,3.3,0,5c0,0.9,0,1.9,0,2.8
		c0,0.3-0.1,0.4-0.3,0.4c-0.4,0-0.7,0-1.1,0c-0.2,0-0.3-0.1-0.3-0.3c0-0.4,0-0.8,0-1.2c0-2.2,0-4.4,0-6.7c0-0.7-0.3-1.2-0.9-1.5
		c-0.6-0.3-1.2-0.2-1.7,0.3c-0.3,0.3-0.5,0.7-0.5,1.2c0,1.8,0,3.6,0,5.4c0,0.8,0,1.6,0,2.5c0,0.3-0.1,0.4-0.4,0.4
		c-0.3,0-0.6,0-0.9,0c-0.3,0-0.3-0.1-0.3-0.3C77,71.1,77,69.7,77,68.4z"/>
	<path class="st2" d="M52.6,68.4c0,1.3,0,2.7,0,4c0,0.4,0,0.4-0.4,0.4c-0.3,0-0.6,0-0.9,0c-0.2,0-0.2-0.1-0.2-0.2c0-0.1,0-0.2,0-0.3
		c0-2.5,0-5.1,0-7.6c0-0.8-0.7-1.6-1.5-1.6c-0.9,0-1.6,0.5-1.7,1.4c0,0.2,0,0.4,0,0.7c0,2.4,0,4.8,0,7.3c0,0.4,0,0.4-0.4,0.4
		c-0.3,0-0.6,0-0.9,0c-0.2,0-0.3-0.1-0.3-0.3c0-0.7,0-1.4,0-2.1c0-1.8,0-3.6,0-5.4c0-0.2,0-0.5-0.1-0.7C46,63.5,45.3,63,44.5,63
		c-0.8,0-1.4,0.7-1.4,1.5c0,1.8,0,3.6,0,5.4c0,0.8,0,1.7,0,2.5c0,0.3-0.1,0.4-0.3,0.3c-0.3,0-0.6,0-0.9,0c-0.2,0-0.3-0.1-0.3-0.3
		c0-0.6,0-1.1,0-1.7c0-2.1,0-4.1,0-6.2c0-1.3,0.7-2.4,1.9-2.9c1.3-0.5,2.4-0.3,3.4,0.6c0.2,0.2,0.3,0.2,0.5,0c0.9-0.9,2-1.2,3.2-0.7
		c1.2,0.4,1.8,1.3,2.1,2.5c0,0.1,0,0.3,0,0.4C52.6,65.8,52.6,67.1,52.6,68.4z"/>
	<path class="st2" d="M90.2,68.5c0-1.2,0-2.5,0-3.7c0-0.6,0.1-1.3,0.4-1.9c0.5-1,1.4-1.4,2.4-1.5c0.4,0,0.7,0,1.1,0
		c1.3,0.3,2.2,1.3,2.3,2.6c0.1,2.8,0,5.5,0.1,8.3c0,0.2-0.1,0.3-0.3,0.3c-0.3,0-0.6,0-1,0c-0.2,0-0.3-0.1-0.3-0.3c0-0.9,0-1.7,0-2.6
		c0-0.3-0.1-0.4-0.4-0.4c-0.8,0-1.6,0-2.5,0c-0.2,0-0.3,0.1-0.3,0.3c0,0.9,0,1.7,0,2.6c0,0.3-0.1,0.4-0.4,0.4c-0.3,0-0.6,0-0.9,0
		c-0.3,0-0.4,0-0.4-0.4C90.2,71.1,90.2,69.8,90.2,68.5C90.2,68.5,90.2,68.5,90.2,68.5z M94.9,66.1c0-0.4,0-0.9,0-1.3
		c0-1-0.5-1.7-1.7-1.7c-0.7,0-1.2,0.4-1.3,1.1c-0.1,1.1,0,2.3-0.1,3.4c0,0.2,0.1,0.2,0.3,0.2c0.8,0,1.7,0,2.5,0
		c0.2,0,0.3-0.1,0.3-0.3C94.9,67.1,94.9,66.6,94.9,66.1z"/>
	<path class="st2" d="M61,68.2c0,1.6,0,2.9,0,4.1c0,0.4,0,0.4-0.4,0.4c-0.3,0-0.6,0-0.9,0c-0.3,0-0.3-0.1-0.3-0.3c0-0.9,0-1.7,0-2.6
		c0-0.3-0.1-0.4-0.4-0.4c-0.8,0-1.6,0-2.5,0c-0.2,0-0.3,0.1-0.3,0.3c0,0.9,0,1.7,0,2.6c0,0.3-0.1,0.4-0.4,0.4c-0.3,0-0.6,0-0.9,0
		c-0.4,0-0.4,0-0.4-0.4c0-1.3,0-2.6,0-4c0-1,0-2.1,0-3.1c0-0.7,0-1.4,0.3-2.1c0.5-1.1,1.4-1.6,2.5-1.7c0.4,0,0.7,0,1.1,0
		c1.3,0.3,2.2,1.2,2.3,2.6C61.1,65.6,60.9,67.1,61,68.2z M59.4,66.1c0-0.4,0-0.9,0-1.3c0-1.1-0.6-1.6-1.7-1.6
		c-0.8,0-1.3,0.5-1.4,1.2c-0.1,1.1,0,2.2-0.1,3.3c0,0.2,0.1,0.2,0.3,0.2c0.8,0,1.7,0,2.5,0c0.2,0,0.3-0.1,0.3-0.3
		C59.4,67.1,59.4,66.6,59.4,66.1z"/>
	<path class="st2" d="M125.1,68.2c0,1.6,0,2.8,0,4.1c0,0.4,0,0.4-0.4,0.4c-0.3,0-0.6,0-0.9,0c-0.2,0-0.3-0.1-0.3-0.3
		c0-0.8,0-1.7,0-2.5c0-0.4,0-0.4-0.4-0.4c-0.8,0-1.6,0-2.4,0c-0.4,0-0.4,0-0.4,0.4c0,0.8,0,1.7,0,2.5c0,0.3,0,0.4-0.4,0.4
		c-0.3,0-0.6,0-0.9,0c-0.2,0-0.3-0.1-0.3-0.3c0-1.1,0-2.2,0-3.3c0-1.2,0-2.5,0-3.7c0-0.6,0-1.1,0.1-1.7c0.3-1.3,1.3-2.1,2.7-2.2
		c0.4,0,0.8,0,1.2,0.1c1.2,0.3,2.1,1.2,2.2,2.5C125.2,65.6,125.1,67,125.1,68.2z M120.4,66.1c0,0.6,0,1.1,0,1.5
		c0,0.2,0.1,0.3,0.3,0.3c0.8,0,1.6,0,2.4,0c0.3,0,0.3-0.1,0.3-0.3c0-0.9,0-1.9,0-2.8c0-1.1-0.6-1.7-1.7-1.6c-0.7,0-1.2,0.5-1.3,1.2
		C120.4,64.9,120.4,65.5,120.4,66.1z"/>
	<path class="st2" d="M127.8,69.8C127.8,69.8,127.8,69.8,127.8,69.8c0.6-0.1,0.9,0,1.1,0.6c0.2,0.6,0.8,0.9,1.4,1
		c0.7,0,1.3-0.2,1.7-0.8c0.5-0.9,0.1-1.9-0.9-2.2c-0.5-0.2-1-0.3-1.5-0.4c-0.4-0.1-0.9-0.3-1.3-0.5c-0.7-0.4-1.2-1-1.4-1.7
		c-0.2-1-0.2-2,0.5-2.9c0.6-0.8,1.5-1.2,2.5-1.3c0.8-0.1,1.6,0,2.4,0.4c0.9,0.5,1.4,1.4,1.5,2.4c0,0.2-0.1,0.3-0.3,0.3
		c-0.4,0-0.7,0-1.1,0c-0.2,0-0.3-0.1-0.3-0.2c-0.1-0.4-0.3-0.7-0.5-0.9c-0.5-0.5-1.5-0.6-2.1-0.2c-0.6,0.3-0.9,1-0.8,1.7
		c0.1,0.6,0.5,0.9,1,1.1c0.6,0.2,1.2,0.3,1.8,0.5c0.5,0.1,0.9,0.3,1.3,0.6c0.7,0.5,1,1.2,1.1,2.1c0.1,0.9-0.1,1.8-0.7,2.5
		c-0.5,0.6-1.1,0.9-1.8,1.1c-1,0.3-2.1,0.3-3-0.3c-0.9-0.5-1.5-1.3-1.6-2.4c0-0.2,0.1-0.3,0.3-0.3C127.4,69.8,127.6,69.8,127.8,69.8
		z"/>
	<path class="st2" d="M69.4,66.8c0-1.1,0-1.9,0.1-2.8c0.3-1.5,1.5-2.5,3.1-2.5c1.6,0,2.9,1,3.1,2.7c0,0.3,0,0.4-0.3,0.4
		c-0.3,0-0.6,0-0.9,0c-0.2,0-0.3-0.1-0.3-0.3C74,63.5,73.3,63,72.4,63c-0.7,0.1-1.4,0.7-1.4,1.6c0,0.4,0,0.9,0,1.3
		c0,0.2,0.1,0.3,0.3,0.3c0.8,0,1.7,0,2.5,0c0.4,0,0.4,0,0.3,0.4c-0.1,0.3-0.2,0.6-0.3,0.9c-0.1,0.2-0.2,0.3-0.4,0.3
		c-0.7,0-1.4,0-2.1,0c-0.3,0-0.4,0.1-0.3,0.3c0,0.6-0.1,1.2,0.1,1.8c0.1,0.7,0.8,1.2,1.5,1.3c0.7,0,1.4-0.5,1.5-1.2
		c0.1-0.3,0.2-0.4,0.4-0.3c0.3,0,0.5,0,0.8,0c0.3,0,0.4,0.1,0.3,0.4c-0.1,1.4-1.2,2.5-2.6,2.7c-2,0.3-3.7-1.1-3.7-3.1
		C69.5,68.6,69.4,67.7,69.4,66.8z"/>
	<path class="st2" d="M112.6,67.2c0,0.8,0,1.6,0,2.4c0,1.2,1.1,1.9,2.2,1.5c0.5-0.2,0.8-0.6,1-1.1c0.1-0.2,0.2-0.3,0.4-0.3
		c0.3,0,0.6,0,0.9,0c0.2,0,0.3,0.1,0.3,0.3c-0.1,1.4-1.3,2.5-2.7,2.8c-1.3,0.2-2.7-0.6-3.2-1.8c-0.2-0.5-0.3-0.9-0.3-1.4
		c0-1.6,0-3.3,0-4.9c0-1.6,1.1-2.9,2.6-3.1c1.8-0.3,3.5,0.9,3.7,2.8c0,0.2,0,0.4-0.3,0.3c-0.3,0-0.6,0-0.9,0c-0.2,0-0.3-0.1-0.3-0.3
		c-0.1-0.7-0.6-1.2-1.3-1.3c-0.7-0.1-1.2,0.2-1.6,0.7c-0.2,0.3-0.3,0.6-0.3,1C112.6,65.6,112.6,66.4,112.6,67.2z"/>
	<path class="st2" d="M106.2,67.2c0-1.2,0-2.4,0-3.6c0-0.3-0.1-0.4-0.4-0.4c-0.3,0-0.6,0-0.9,0c-0.2,0-0.3-0.1-0.3-0.3
		c0-0.3,0-0.7,0-1c0-0.2,0.1-0.3,0.3-0.3c1.4,0,2.8,0,4.2,0c0.2,0,0.3,0.1,0.3,0.3c0,0.3,0,0.7,0,1c0,0.2-0.1,0.3-0.3,0.3
		c-0.3,0-0.6,0-0.9,0c-0.3,0-0.4,0.1-0.4,0.4c0,1.5,0,3.1,0,4.6c0,0.9,0,1.7,0,2.6c0,0.3,0.1,0.4,0.4,0.4c0.3,0,0.6,0,0.9,0
		c0.2,0,0.3,0.1,0.3,0.3c0,0.4,0,0.7,0,1.1c0,0.2-0.1,0.3-0.3,0.3c-1.4,0-2.8,0-4.2,0c-0.2,0-0.3-0.1-0.3-0.3c0-0.4,0-0.7,0-1.1
		c0-0.2,0.1-0.2,0.2-0.2c0.3,0,0.6,0,0.9,0c0.3,0,0.4-0.1,0.4-0.4C106.2,69.7,106.2,68.4,106.2,67.2z"/>
	<path class="st2" d="M101.4,68c0,1.5,0,2.9,0,4.4c0,0.4,0,0.4-0.4,0.4c-0.3,0-0.6,0-0.8,0c-0.4,0-0.4,0-0.4-0.4c0-0.6,0-1.1,0-1.7
		c0-2.4,0-4.7,0-7.1c0-0.4,0-0.4-0.4-0.4c-0.5,0-1.1,0-1.6,0c-0.3,0-0.4-0.1-0.3-0.4c0-0.3,0-0.6,0-0.9c0-0.2,0.1-0.3,0.3-0.3
		c1.9,0,3.9,0,5.8,0c0.2,0,0.3,0.1,0.3,0.3c0,0.3,0,0.6,0,0.9c0,0.2-0.1,0.3-0.3,0.3c-0.6,0-1.1,0-1.7,0c-0.3,0-0.4,0.1-0.4,0.4
		C101.4,65.1,101.4,66.5,101.4,68z"/>
	<path class="st2" d="M64.3,68c0-1.5,0-2.9,0-4.4c0-0.4,0-0.4-0.4-0.4c-0.6,0-1.1,0-1.7,0c-0.2,0-0.3-0.1-0.3-0.3c0-0.3,0-0.6,0-0.9
		c0-0.2,0.1-0.3,0.3-0.3c1.9,0,3.8,0,5.8,0c0.2,0,0.3,0.1,0.3,0.3c0,0.3,0,0.6,0,0.9c0,0.2-0.1,0.3-0.3,0.3c-0.6,0-1.1,0-1.7,0
		c-0.4,0-0.4,0-0.4,0.4c0,2.9,0,5.8,0,8.7c0,0.4,0,0.5-0.5,0.5c-0.3,0-0.5,0-0.8,0c-0.3,0-0.3-0.1-0.3-0.4
		C64.3,71,64.3,69.5,64.3,68z"/>
	<path class="st2" d="M93.3,60.7c-0.1,0-0.9-0.8-0.9-0.9c0-0.1,0.1-0.1,0.1-0.2c0.6-0.6,1.3-1.3,1.9-1.9c0.1-0.1,0.2-0.1,0.4,0
		c0.2,0.2,0.4,0.4,0.6,0.7c0.1,0.1,0.1,0.2,0,0.3C94.8,59.4,94.1,60,93.3,60.7C93.4,60.7,93.4,60.7,93.3,60.7z"/>
</g>
</svg>
