<?xml version="1.0" encoding="utf-8"?>
<!-- Generator: Adobe Illustrator 25.2.1, SVG Export Plug-In . SVG Version: 6.00 Build 0)  -->
<svg version="1.1" id="Capa_1" xmlns="http://www.w3.org/2000/svg" xmlns:xlink="http://www.w3.org/1999/xlink" x="0px" y="0px"
	 viewBox="0 0 180 79" style="enable-background:new 0 0 180 79;" xml:space="preserve">
<style type="text/css">
	.st0{fill:#F3F4F5;}
	.st1{fill:#B4CAE3;}
	.st2{fill:#422A13;}
	.st3{fill:#E2155D;}
</style>
<g>
	<path class="st0" d="M140.76,76.99H39.24c-20.71,0-37.49-16.79-37.49-37.49v0c0-20.71,16.79-37.49,37.49-37.49h101.52
		c20.71,0,37.49,16.79,37.49,37.49v0C178.25,60.21,161.47,76.99,140.76,76.99z"/>
	<path class="st1" d="M140.76,78.74H39.24C17.6,78.74,0,61.14,0,39.5S17.6,0.26,39.24,0.26h101.52C162.4,0.26,180,17.86,180,39.5
		S162.4,78.74,140.76,78.74z M39.24,3.76C19.53,3.76,3.5,19.79,3.5,39.5c0,19.71,16.03,35.74,35.74,35.74h101.52
		c19.71,0,35.74-16.03,35.74-35.74c0-19.71-16.03-35.74-35.74-35.74H39.24z"/>
</g>
<g>
	<path class="st2" d="M109.06,35.67v-1.01c0.06,0.01,0.14,0.01,0.2,0.01c0.3,0,0.45-0.13,0.45-0.51v-4.09h1.53v4.15
		c0,1.1-0.56,1.5-1.55,1.5C109.45,35.72,109.25,35.69,109.06,35.67 M109.68,28.56h1.59v1.12h-1.59V28.56z"/>
	<path class="st2" d="M111.93,32.26v-0.02c0-1.24,1.01-2.27,2.41-2.27c1.39,0,2.39,1.02,2.39,2.26v0.02c0,1.24-1.01,2.27-2.41,2.27
		C112.93,34.52,111.93,33.5,111.93,32.26 M115.24,32.26v-0.02c0-0.53-0.39-0.98-0.92-0.98c-0.55,0-0.91,0.44-0.91,0.96v0.02
		c0,0.53,0.39,0.98,0.92,0.98C114.89,33.23,115.24,32.79,115.24,32.26"/>
	<path class="st2" d="M117.37,30.07h1.53v0.88c0.25-0.59,0.65-0.98,1.37-0.95v1.61h-0.13c-0.79,0-1.24,0.46-1.24,1.46v1.35h-1.53
		V30.07z"/>
	<path class="st2" d="M120.81,30.07h1.53v0.61c0.28-0.36,0.68-0.71,1.3-0.71c0.92,0,1.48,0.61,1.48,1.6v2.84h-1.53v-2.35
		c0-0.47-0.25-0.73-0.61-0.73c-0.37,0-0.64,0.26-0.64,0.73v2.35h-1.53V30.07z"/>
	<path class="st2" d="M125.68,33.17v-0.02c0-0.9,0.68-1.36,1.7-1.36c0.4,0,0.79,0.08,1.04,0.17v-0.07c0-0.45-0.28-0.71-0.87-0.71
		c-0.46,0-0.81,0.09-1.2,0.24l-0.31-1.08c0.49-0.2,1.01-0.34,1.76-0.34c0.78,0,1.31,0.18,1.65,0.53c0.33,0.32,0.47,0.77,0.47,1.38
		v2.5h-1.51v-0.45c-0.3,0.33-0.71,0.55-1.28,0.55C126.32,34.51,125.68,34.04,125.68,33.17 M128.44,32.84v-0.2
		c-0.15-0.06-0.37-0.11-0.59-0.11c-0.44,0-0.7,0.22-0.7,0.54v0.02c0,0.3,0.22,0.47,0.54,0.47
		C128.13,33.56,128.44,33.28,128.44,32.84"/>
	<path class="st2" d="M130.55,32.26v-0.02c0-1.41,0.88-2.27,1.91-2.27c0.66,0,1.04,0.3,1.33,0.63v-2.05h1.53v5.86h-1.53v-0.58
		c-0.3,0.36-0.67,0.67-1.32,0.67C131.44,34.51,130.55,33.65,130.55,32.26 M133.81,32.25v-0.02c0-0.57-0.39-0.98-0.88-0.98
		s-0.89,0.4-0.89,0.98v0.02c0,0.58,0.4,0.99,0.89,0.99S133.81,32.83,133.81,32.25"/>
	<path class="st2" d="M135.92,33.17v-0.02c0-0.9,0.68-1.36,1.7-1.36c0.4,0,0.79,0.08,1.04,0.17v-0.07c0-0.45-0.28-0.71-0.87-0.71
		c-0.46,0-0.81,0.09-1.2,0.24l-0.31-1.08c0.49-0.2,1.01-0.34,1.76-0.34c0.78,0,1.31,0.18,1.65,0.53c0.33,0.32,0.47,0.77,0.47,1.38
		v2.5h-1.51v-0.45c-0.3,0.33-0.71,0.55-1.28,0.55C136.55,34.51,135.92,34.04,135.92,33.17 M138.68,32.84v-0.2
		c-0.15-0.06-0.37-0.11-0.59-0.11c-0.44,0-0.7,0.22-0.7,0.54v0.02c0,0.3,0.22,0.47,0.54,0.47
		C138.36,33.56,138.68,33.28,138.68,32.84"/>
	<path class="st2" d="M140.61,33.87l0.57-0.92c0.5,0.33,1.04,0.5,1.49,0.5c0.26,0,0.39-0.08,0.39-0.23V33.2
		c0-0.17-0.24-0.24-0.7-0.37c-0.86-0.22-1.54-0.51-1.54-1.39v-0.02c0-0.92,0.74-1.44,1.74-1.44c0.63,0,1.29,0.18,1.79,0.51
		l-0.52,0.96c-0.45-0.25-0.94-0.4-1.28-0.4c-0.23,0-0.35,0.09-0.35,0.21v0.02c0,0.17,0.25,0.25,0.71,0.39
		c0.86,0.24,1.54,0.54,1.54,1.38v0.02c0,0.96-0.71,1.45-1.77,1.45C141.94,34.51,141.21,34.3,140.61,33.87"/>
	<path class="st3" d="M109.52,40.38v-0.02c0-1.41,0.87-2.27,1.87-2.27c0.65,0,1.02,0.3,1.31,0.63v-2.05h1.5v5.86h-1.5v-0.58
		c-0.29,0.36-0.66,0.67-1.3,0.67C110.39,42.63,109.52,41.77,109.52,40.38 M112.72,40.36v-0.02c0-0.57-0.39-0.98-0.87-0.98
		c-0.48,0-0.87,0.4-0.87,0.98v0.02c0,0.58,0.39,0.99,0.87,0.99C112.33,41.35,112.72,40.94,112.72,40.36"/>
	<path class="st3" d="M114.98,40.38v-0.02c0-1.27,0.89-2.27,2.15-2.27c1.47,0,2.15,1.1,2.15,2.38c0,0.1,0,0.21-0.01,0.31h-2.85
		c0.12,0.47,0.46,0.71,0.92,0.71c0.35,0,0.64-0.14,0.94-0.44l0.83,0.7c-0.41,0.53-1,0.88-1.85,0.88
		C115.92,42.64,114.98,41.73,114.98,40.38 M117.88,40c-0.06-0.48-0.33-0.79-0.74-0.79c-0.39,0-0.66,0.31-0.74,0.79H117.88z"/>
	<path class="st2" d="M122.2,41.29v-0.02c0-0.9,0.67-1.36,1.67-1.36c0.39,0,0.78,0.08,1.02,0.17V40c0-0.45-0.28-0.71-0.85-0.71
		c-0.45,0-0.8,0.09-1.17,0.24l-0.31-1.08c0.48-0.2,0.99-0.34,1.72-0.34c0.76,0,1.28,0.18,1.62,0.53c0.32,0.32,0.46,0.77,0.46,1.38
		v2.5h-1.48v-0.45c-0.29,0.33-0.69,0.55-1.25,0.55C122.82,42.63,122.2,42.15,122.2,41.29 M124.9,40.96v-0.2
		c-0.15-0.06-0.36-0.11-0.58-0.11c-0.43,0-0.68,0.22-0.68,0.54v0.02c0,0.3,0.22,0.47,0.53,0.47C124.6,41.67,124.9,41.39,124.9,40.96
		"/>
	<path class="st2" d="M127.12,38.19h1.5v0.58c0.29-0.36,0.65-0.67,1.29-0.67c1.02,0,1.89,0.86,1.89,2.25v0.02
		c0,1.41-0.87,2.27-1.88,2.27c-0.65,0-1.02-0.3-1.3-0.63v1.81h-1.5V38.19z M130.33,40.36v-0.02c0-0.57-0.39-0.98-0.87-0.98
		c-0.48,0-0.87,0.41-0.87,0.98v0.02c0,0.58,0.39,0.99,0.87,0.99C129.94,41.35,130.33,40.95,130.33,40.36"/>
	<path class="st2" d="M132.45,38.19h1.5v0.88c0.24-0.59,0.64-0.98,1.35-0.95v1.61h-0.13c-0.78,0-1.22,0.46-1.22,1.46v1.35h-1.5
		V38.19z"/>
	<path class="st2" d="M135.56,40.38v-0.02c0-1.24,0.99-2.27,2.36-2.27c1.36,0,2.35,1.02,2.35,2.26v0.02c0,1.24-0.99,2.27-2.36,2.27
		C136.55,42.64,135.56,41.62,135.56,40.38 M138.81,40.38v-0.02c0-0.53-0.38-0.98-0.91-0.98c-0.54,0-0.89,0.44-0.89,0.96v0.02
		c0,0.53,0.38,0.98,0.91,0.98C138.47,41.34,138.81,40.9,138.81,40.38"/>
	<path class="st2" d="M140.9,38.19h1.5v0.58c0.29-0.36,0.65-0.67,1.29-0.67c1.02,0,1.89,0.86,1.89,2.25v0.02
		c0,1.41-0.87,2.27-1.88,2.27c-0.65,0-1.02-0.3-1.3-0.63v1.81h-1.5V38.19z M144.1,40.36v-0.02c0-0.57-0.39-0.98-0.87-0.98
		c-0.48,0-0.87,0.41-0.87,0.98v0.02c0,0.58,0.39,0.99,0.87,0.99C143.72,41.35,144.1,40.95,144.1,40.36"/>
	<path class="st2" d="M146.22,36.67h1.56v1.12h-1.56V36.67z M146.25,38.19h1.5v4.34h-1.5V38.19z"/>
	<path class="st2" d="M148.37,41.29v-0.02c0-0.9,0.67-1.36,1.67-1.36c0.39,0,0.78,0.08,1.02,0.17V40c0-0.45-0.28-0.71-0.85-0.71
		c-0.45,0-0.8,0.09-1.17,0.24l-0.31-1.08c0.48-0.2,0.99-0.34,1.72-0.34c0.76,0,1.28,0.18,1.62,0.53c0.32,0.32,0.46,0.77,0.46,1.38
		v2.5h-1.48v-0.45c-0.29,0.33-0.69,0.55-1.25,0.55C148.99,42.63,148.37,42.15,148.37,41.29 M151.08,40.96v-0.2
		c-0.15-0.06-0.36-0.11-0.58-0.11c-0.43,0-0.68,0.22-0.68,0.54v0.02c0,0.3,0.22,0.47,0.53,0.47
		C150.77,41.67,151.08,41.39,151.08,40.96"/>
	<path class="st2" d="M153.12,40.38v-0.02c0-1.23,0.94-2.26,2.28-2.26c0.87,0,1.46,0.39,1.82,0.97l-1.02,0.77
		c-0.2-0.29-0.43-0.46-0.79-0.46c-0.48,0-0.83,0.43-0.83,0.96v0.02c0,0.56,0.35,0.99,0.85,0.99c0.35,0,0.58-0.17,0.82-0.45l1,0.74
		c-0.39,0.59-0.96,1-1.9,1C154.07,42.64,153.12,41.61,153.12,40.38"/>
	<path class="st2" d="M157.78,36.67h1.56v1.12h-1.56V36.67z M157.81,38.19h1.5v4.34h-1.5V38.19z"/>
	<path class="st2" d="M159.96,40.38v-0.02c0-1.24,0.99-2.27,2.36-2.27c1.36,0,2.35,1.02,2.35,2.26v0.02c0,1.24-0.99,2.27-2.36,2.27
		C160.95,42.64,159.96,41.62,159.96,40.38 M163.21,40.38v-0.02c0-0.53-0.38-0.98-0.91-0.98c-0.54,0-0.89,0.44-0.89,0.96v0.02
		c0,0.53,0.38,0.98,0.91,0.98C162.87,41.34,163.21,40.9,163.21,40.38 M162.56,36.32l1.39,0.46l-1.16,1.03h-1.05L162.56,36.32z"/>
	<path class="st2" d="M165.3,38.19h1.5v0.61c0.28-0.36,0.67-0.71,1.27-0.71c0.91,0,1.45,0.61,1.45,1.6v2.84h-1.5v-2.35
		c0-0.47-0.24-0.73-0.6-0.73c-0.36,0-0.63,0.26-0.63,0.73v2.35h-1.5V38.19z"/>
	<path class="st2" d="M109.35,50.1l0.57-0.92c0.5,0.33,1.04,0.5,1.49,0.5c0.27,0,0.39-0.08,0.39-0.23v-0.02
		c0-0.17-0.24-0.24-0.7-0.37c-0.86-0.22-1.54-0.51-1.54-1.39v-0.02c0-0.92,0.74-1.44,1.74-1.44c0.63,0,1.29,0.18,1.79,0.51
		l-0.52,0.96c-0.45-0.25-0.94-0.4-1.28-0.4c-0.23,0-0.35,0.09-0.35,0.21v0.02c0,0.17,0.25,0.25,0.71,0.39
		c0.86,0.24,1.54,0.54,1.54,1.38v0.02c0,0.96-0.71,1.45-1.77,1.45C110.68,50.74,109.95,50.53,109.35,50.1"/>
	<path class="st2" d="M113.63,48.49v-0.02c0-1.24,1.01-2.27,2.41-2.27c1.39,0,2.39,1.02,2.39,2.26v0.02c0,1.24-1.01,2.27-2.41,2.27
		C114.63,50.75,113.63,49.73,113.63,48.49 M116.95,48.49v-0.02c0-0.53-0.39-0.98-0.92-0.98c-0.55,0-0.91,0.44-0.91,0.96v0.02
		c0,0.53,0.39,0.98,0.92,0.98C116.59,49.46,116.95,49.02,116.95,48.49"/>
	<path class="st2" d="M118.9,48.49v-0.02c0-1.23,0.96-2.26,2.33-2.26c0.89,0,1.49,0.39,1.85,0.97l-1.04,0.77
		c-0.21-0.29-0.44-0.46-0.81-0.46c-0.49,0-0.85,0.43-0.85,0.96v0.02c0,0.56,0.35,0.99,0.87,0.99c0.36,0,0.59-0.17,0.84-0.45
		l1.02,0.74c-0.4,0.59-0.98,1-1.93,1C119.86,50.75,118.9,49.72,118.9,48.49"/>
	<path class="st2" d="M123.64,44.79h1.59v1.12h-1.59V44.79z M123.67,46.3h1.53v4.34h-1.53V46.3z"/>
	<path class="st2" d="M125.83,49.4v-0.02c0-0.9,0.68-1.36,1.7-1.36c0.4,0,0.79,0.08,1.04,0.17v-0.07c0-0.45-0.28-0.71-0.87-0.71
		c-0.46,0-0.81,0.09-1.2,0.24l-0.31-1.08c0.49-0.2,1.01-0.34,1.76-0.34c0.78,0,1.31,0.18,1.65,0.53c0.33,0.32,0.47,0.77,0.47,1.38
		v2.5h-1.51V50.2c-0.3,0.33-0.71,0.55-1.28,0.55C126.47,50.74,125.83,50.27,125.83,49.4 M128.59,49.07v-0.2
		c-0.15-0.06-0.37-0.11-0.59-0.11c-0.44,0-0.7,0.22-0.7,0.54v0.02c0,0.3,0.22,0.47,0.54,0.47
		C128.28,49.79,128.59,49.51,128.59,49.07"/>
	<rect x="130.89" y="44.79" class="st2" width="1.53" height="5.86"/>
	<path class="st3" d="M135.33,48.49v-0.02c0-1.41,0.88-2.27,1.91-2.27c0.66,0,1.04,0.3,1.33,0.63v-2.05h1.53v5.86h-1.53v-0.58
		c-0.3,0.36-0.67,0.67-1.32,0.67C136.22,50.74,135.33,49.88,135.33,48.49 M138.6,48.48v-0.02c0-0.57-0.39-0.98-0.88-0.98
		s-0.89,0.4-0.89,0.98v0.02c0,0.58,0.4,0.99,0.89,0.99S138.6,49.06,138.6,48.48"/>
	<path class="st3" d="M140.74,48.49v-0.02c0-1.27,0.91-2.27,2.19-2.27c1.5,0,2.19,1.1,2.19,2.38c0,0.1,0,0.21-0.01,0.31h-2.91
		c0.12,0.47,0.47,0.71,0.94,0.71c0.36,0,0.65-0.14,0.96-0.44l0.84,0.7c-0.42,0.53-1.02,0.88-1.89,0.88
		C141.7,50.75,140.74,49.84,140.74,48.49 M143.69,48.12c-0.06-0.48-0.34-0.79-0.75-0.79c-0.4,0-0.67,0.31-0.75,0.79H143.69z"/>
	<rect x="145.81" y="44.79" class="st3" width="1.53" height="5.86"/>
	<path class="st2" d="M109.51,56.61v-0.02c0-1.23,0.96-2.26,2.33-2.26c0.89,0,1.49,0.39,1.85,0.97l-1.04,0.77
		c-0.21-0.29-0.44-0.46-0.81-0.46c-0.49,0-0.85,0.43-0.85,0.96v0.02c0,0.56,0.35,0.99,0.87,0.99c0.36,0,0.59-0.17,0.84-0.45
		l1.02,0.74c-0.4,0.59-0.98,1-1.93,1C110.47,58.87,109.51,57.84,109.51,56.61"/>
	<path class="st2" d="M113.95,56.61v-0.02c0-1.24,1.01-2.27,2.41-2.27c1.39,0,2.39,1.02,2.39,2.26v0.02c0,1.24-1.01,2.27-2.41,2.27
		C114.96,58.87,113.95,57.85,113.95,56.61 M117.27,56.61v-0.02c0-0.53-0.39-0.98-0.92-0.98c-0.55,0-0.91,0.44-0.91,0.96v0.02
		c0,0.53,0.39,0.98,0.92,0.98C116.91,57.57,117.27,57.13,117.27,56.61"/>
	<path class="st2" d="M119.4,54.42h1.53v0.61c0.28-0.36,0.68-0.71,1.3-0.71c0.92,0,1.48,0.61,1.48,1.6v2.84h-1.53v-2.35
		c0-0.47-0.25-0.73-0.61-0.73c-0.37,0-0.64,0.26-0.64,0.73v2.35h-1.53V54.42z"/>
	<path class="st2" d="M124.31,56.61v-0.02c0-1.24,1.01-2.27,2.41-2.27c1.39,0,2.39,1.02,2.39,2.26v0.02c0,1.24-1.01,2.27-2.41,2.27
		C125.31,58.87,124.31,57.85,124.31,56.61 M127.62,56.61v-0.02c0-0.53-0.39-0.98-0.92-0.98c-0.55,0-0.91,0.44-0.91,0.96v0.02
		c0,0.53,0.39,0.98,0.92,0.98C127.27,57.57,127.62,57.13,127.62,56.61"/>
	<path class="st2" d="M129.57,56.61v-0.02c0-1.23,0.96-2.26,2.33-2.26c0.89,0,1.49,0.39,1.85,0.97l-1.04,0.77
		c-0.21-0.29-0.44-0.46-0.81-0.46c-0.49,0-0.85,0.43-0.85,0.96v0.02c0,0.56,0.35,0.99,0.87,0.99c0.36,0,0.59-0.17,0.84-0.45
		l1.02,0.74c-0.4,0.59-0.98,1-1.93,1C130.54,58.87,129.57,57.84,129.57,56.61"/>
	<path class="st2" d="M134.32,52.9h1.59v1.12h-1.59V52.9z M134.35,54.42h1.53v4.34h-1.53V54.42z"/>
	<path class="st2" d="M136.73,54.42h1.53v0.59c0.28-0.36,0.68-0.69,1.29-0.69c0.58,0,1.02,0.26,1.25,0.71
		c0.38-0.43,0.82-0.71,1.45-0.71c0.92,0,1.49,0.58,1.49,1.59v2.85h-1.53V56.4c0-0.47-0.23-0.72-0.59-0.72
		c-0.36,0-0.63,0.25-0.63,0.72v2.36h-1.53V56.4c0-0.47-0.23-0.72-0.59-0.72s-0.62,0.25-0.62,0.72v2.36h-1.53V54.42z"/>
	<path class="st2" d="M144.52,52.9h1.59v1.12h-1.59V52.9z M144.55,54.42h1.53v4.34h-1.53V54.42z"/>
	<path class="st2" d="M146.75,56.61v-0.02c0-1.27,0.91-2.27,2.19-2.27c1.5,0,2.19,1.1,2.19,2.38c0,0.1,0,0.21-0.01,0.31h-2.91
		c0.12,0.47,0.47,0.71,0.94,0.71c0.36,0,0.65-0.14,0.96-0.44l0.84,0.7c-0.42,0.53-1.02,0.88-1.89,0.88
		C147.72,58.86,146.75,57.96,146.75,56.61 M149.71,56.23c-0.06-0.48-0.34-0.79-0.75-0.79c-0.4,0-0.67,0.31-0.75,0.79H149.71z"/>
	<path class="st2" d="M151.79,54.42h1.53v0.61c0.28-0.36,0.68-0.71,1.3-0.71c0.92,0,1.48,0.61,1.48,1.6v2.84h-1.53v-2.35
		c0-0.47-0.25-0.73-0.61-0.73c-0.37,0-0.64,0.26-0.64,0.73v2.35h-1.53V54.42z"/>
	<path class="st2" d="M157.14,57.41v-1.77h-0.51v-1.23h0.51v-1.1h1.53v1.1h1.01v1.23h-1.01v1.47c0,0.31,0.14,0.43,0.42,0.43
		c0.2,0,0.39-0.06,0.58-0.14v1.2c-0.27,0.15-0.63,0.25-1.06,0.25C157.69,58.85,157.14,58.45,157.14,57.41"/>
	<path class="st2" d="M160.04,56.61v-0.02c0-1.24,1.01-2.27,2.41-2.27c1.39,0,2.39,1.02,2.39,2.26v0.02c0,1.24-1.01,2.27-2.41,2.27
		C161.04,58.87,160.04,57.85,160.04,56.61 M163.35,56.61v-0.02c0-0.53-0.39-0.98-0.92-0.98c-0.55,0-0.91,0.44-0.91,0.96v0.02
		c0,0.53,0.39,0.98,0.92,0.98C163,57.57,163.35,57.13,163.35,56.61"/>
	<path class="st2" d="M22.64,21.5l1.88-2.25c1.2,0.96,2.54,1.46,3.96,1.46c0.91,0,1.39-0.31,1.39-0.84v-0.03
		c0-0.51-0.4-0.78-2.06-1.17c-2.6-0.59-4.6-1.32-4.6-3.83v-0.03c0-2.27,1.79-3.9,4.72-3.9c2.07,0,3.69,0.56,5.02,1.62l-1.69,2.39
		c-1.12-0.78-2.34-1.2-3.42-1.2c-0.82,0-1.22,0.35-1.22,0.78v0.03c0,0.56,0.42,0.8,2.11,1.18c2.81,0.61,4.55,1.52,4.55,3.8v0.03
		c0,2.49-1.97,3.97-4.93,3.97C26.19,23.52,24.14,22.84,22.64,21.5"/>
	<rect x="34.99" y="11.11" class="st2" width="3.4" height="12.2"/>
	<polygon class="st2" points="40.62,11.11 50.43,11.11 50.43,13.99 43.97,13.99 43.97,15.83 49.82,15.83 49.82,18.5 43.97,18.5 
		43.97,20.43 50.52,20.43 50.52,23.31 40.62,23.31 	"/>
	<polygon class="st2" points="52.24,11.11 55.81,11.11 58.72,15.83 61.63,11.11 65.21,11.11 65.21,23.31 61.84,23.31 61.84,16.3 
		58.72,21.08 58.66,21.08 55.55,16.34 55.55,23.31 52.24,23.31 	"/>
	<path class="st2" d="M67.37,11.11h6.26c1.53,0,2.61,0.38,3.33,1.1c0.49,0.49,0.78,1.13,0.78,1.97v0.04c0,1.41-0.8,2.25-1.88,2.72
		c1.48,0.49,2.42,1.32,2.42,2.98v0.04c0,2.09-1.71,3.36-4.62,3.36h-6.29V11.11z M72.79,15.97c1.03,0,1.6-0.35,1.6-1.06v-0.03
		c0-0.66-0.52-1.05-1.53-1.05h-2.2v2.14H72.79z M73.27,20.59c1.03,0,1.62-0.4,1.62-1.12v-0.03c0-0.66-0.52-1.1-1.66-1.1h-2.58v2.25
		H73.27z"/>
	<path class="st2" d="M79.83,11.11h5.77c1.86,0,3.15,0.49,3.97,1.32c0.71,0.7,1.08,1.64,1.08,2.84v0.03c0,1.86-0.99,3.1-2.51,3.75
		l2.91,4.25h-3.9l-2.46-3.69h-0.03h-1.45v3.69h-3.38V11.11z M85.44,16.97c1.15,0,1.81-0.56,1.81-1.45v-0.03
		c0-0.96-0.7-1.45-1.83-1.45h-2.21v2.93H85.44z"/>
	<path class="st2" d="M96.36,11.02h3.26l5.19,12.29h-3.62l-0.89-2.18h-4.7l-0.87,2.18h-3.56L96.36,11.02z M99.33,18.5l-1.36-3.47
		l-1.38,3.47H99.33z"/>
	<polygon class="st3" points="105.12,19.18 105.12,10.79 101.72,10.79 	"/>
	<path class="st2" d="M22.93,62.51h1.9v0.74c0.35-0.45,0.85-0.86,1.61-0.86c0.72,0,1.27,0.32,1.56,0.88
		c0.47-0.54,1.02-0.88,1.81-0.88c1.15,0,1.85,0.72,1.85,1.98v3.54h-1.9v-2.93c0-0.59-0.29-0.9-0.74-0.9c-0.45,0-0.78,0.31-0.78,0.9
		v2.93h-1.9v-2.93c0-0.59-0.29-0.9-0.74-0.9c-0.45,0-0.77,0.31-0.77,0.9v2.93h-1.9V62.51z"/>
	<path class="st2" d="M33.95,66.36v-0.02c0-1.12,0.85-1.7,2.11-1.7c0.5,0,0.99,0.1,1.3,0.21v-0.09c0-0.56-0.35-0.88-1.08-0.88
		c-0.57,0-1.01,0.11-1.49,0.3l-0.39-1.34c0.61-0.25,1.26-0.42,2.18-0.42c0.97,0,1.63,0.23,2.05,0.66c0.41,0.4,0.58,0.96,0.58,1.72
		v3.1h-1.88v-0.56c-0.37,0.41-0.88,0.68-1.59,0.68C34.73,68.03,33.95,67.44,33.95,66.36 M37.38,65.95V65.7
		c-0.19-0.08-0.46-0.14-0.74-0.14c-0.55,0-0.87,0.27-0.87,0.67v0.02c0,0.37,0.28,0.59,0.67,0.59
		C36.99,66.84,37.38,66.49,37.38,65.95"/>
	<path class="st2" d="M42.07,66.23v-2.19h-0.64v-1.53h0.64v-1.37h1.9v1.37h1.26v1.53h-1.26v1.83c0,0.38,0.17,0.54,0.52,0.54
		c0.25,0,0.49-0.07,0.72-0.18v1.49c-0.34,0.19-0.79,0.31-1.32,0.31C42.74,68.02,42.07,67.52,42.07,66.23"/>
	<path class="st2" d="M47.27,65.24v-0.02c0-1.58,1.13-2.82,2.72-2.82c1.87,0,2.72,1.37,2.72,2.95c0,0.12,0,0.26-0.01,0.39h-3.61
		c0.15,0.59,0.58,0.89,1.17,0.89c0.45,0,0.81-0.17,1.2-0.55l1.05,0.87c-0.52,0.66-1.27,1.1-2.34,1.1
		C48.46,68.04,47.27,66.91,47.27,65.24 M50.94,64.77c-0.07-0.6-0.42-0.98-0.94-0.98c-0.5,0-0.84,0.39-0.94,0.98H50.94z"/>
	<path class="st2" d="M55.12,62.51h1.9v0.74c0.35-0.45,0.85-0.86,1.61-0.86c0.72,0,1.27,0.32,1.56,0.88
		c0.47-0.54,1.02-0.88,1.81-0.88c1.15,0,1.85,0.72,1.85,1.98v3.54h-1.9v-2.93c0-0.59-0.29-0.9-0.74-0.9c-0.45,0-0.78,0.31-0.78,0.9
		v2.93h-1.9v-2.93c0-0.59-0.29-0.9-0.74-0.9s-0.77,0.31-0.77,0.9v2.93h-1.9V62.51z"/>
	<path class="st2" d="M66.13,66.36v-0.02c0-1.12,0.85-1.7,2.12-1.7c0.5,0,0.99,0.1,1.3,0.21v-0.09c0-0.56-0.35-0.88-1.08-0.88
		c-0.57,0-1.01,0.11-1.49,0.3l-0.39-1.34c0.61-0.25,1.26-0.42,2.18-0.42c0.97,0,1.63,0.23,2.05,0.66c0.41,0.4,0.58,0.96,0.58,1.72
		v3.1h-1.88v-0.56c-0.37,0.41-0.88,0.68-1.59,0.68C66.92,68.03,66.13,67.44,66.13,66.36 M69.56,65.95V65.7
		c-0.19-0.08-0.46-0.14-0.74-0.14c-0.55,0-0.87,0.27-0.87,0.67v0.02c0,0.37,0.28,0.59,0.67,0.59
		C69.17,66.84,69.56,66.49,69.56,65.95 M69.09,60.19l1.77,0.57l-1.47,1.28h-1.34L69.09,60.19z"/>
	<path class="st2" d="M74.3,66.23v-2.19h-0.64v-1.53h0.64v-1.37h1.9v1.37h1.26v1.53H76.2v1.83c0,0.38,0.17,0.54,0.52,0.54
		c0.25,0,0.49-0.07,0.72-0.18v1.49c-0.34,0.19-0.79,0.31-1.32,0.31C74.98,68.02,74.3,67.52,74.3,66.23"/>
	<path class="st2" d="M79.87,60.63h1.98v1.4h-1.98V60.63z M79.91,62.51h1.9v5.4h-1.9V62.51z"/>
	<path class="st2" d="M84.24,65.24v-0.02c0-1.53,1.19-2.81,2.89-2.81c1.11,0,1.85,0.48,2.3,1.21l-1.29,0.96
		C87.89,64.21,87.6,64,87.14,64c-0.61,0-1.06,0.54-1.06,1.2v0.02c0,0.7,0.44,1.23,1.08,1.23c0.45,0,0.74-0.21,1.04-0.56l1.27,0.92
		c-0.5,0.74-1.22,1.24-2.4,1.24C85.44,68.04,84.24,66.76,84.24,65.24"/>
	<path class="st2" d="M91.46,66.36v-0.02c0-1.12,0.85-1.7,2.11-1.7c0.5,0,0.99,0.1,1.3,0.21v-0.09c0-0.56-0.35-0.88-1.08-0.88
		c-0.57,0-1.01,0.11-1.49,0.3l-0.39-1.34c0.61-0.25,1.26-0.42,2.18-0.42c0.97,0,1.63,0.23,2.06,0.66c0.41,0.4,0.58,0.96,0.58,1.72
		v3.1h-1.88v-0.56c-0.37,0.41-0.88,0.68-1.59,0.68C92.25,68.03,91.46,67.44,91.46,66.36 M94.9,65.95V65.7
		c-0.19-0.08-0.46-0.14-0.74-0.14c-0.55,0-0.87,0.27-0.87,0.67v0.02c0,0.37,0.28,0.59,0.67,0.59C94.51,66.84,94.9,66.49,94.9,65.95"
		/>
	<path class="st2" d="M98.9,67.23l0.71-1.15c0.62,0.41,1.3,0.62,1.86,0.62c0.33,0,0.48-0.1,0.48-0.29v-0.02
		c0-0.21-0.3-0.3-0.87-0.46c-1.07-0.28-1.92-0.64-1.92-1.73v-0.02c0-1.15,0.92-1.79,2.16-1.79c0.79,0,1.61,0.23,2.22,0.63l-0.65,1.2
		c-0.56-0.31-1.17-0.5-1.6-0.5c-0.29,0-0.44,0.11-0.44,0.26v0.02c0,0.21,0.31,0.31,0.88,0.48c1.07,0.3,1.92,0.67,1.92,1.72v0.02
		c0,1.19-0.89,1.81-2.2,1.81C100.54,68.03,99.65,67.77,98.9,67.23"/>
	<path class="st3" d="M22.48,26.6v7.63c0,0,2.25,0.34,3.92,0.86c2.49,0.77,5.43,1.81,9.28,1.92c6.11,0.17,7.17-0.21,13.19-2.2
		c2.84-0.94,5.9-0.89,7.05-0.91c0.18,0,4.88-0.16,10.29,1.93c2.06,0.79,4.67,1.1,7.36,1.2c3.04,0.11,5.31,0.08,9.19-1.29
		c3.78-1.33,7-1.86,9.15-1.85c3.72,0,5.85,0.31,8.97,1.46s4.13,1.46,4.13,1.46v-7.82c0,0-2.78-0.84-3.93-1.17
		c-1.81-0.52-4.82-1.23-9.22-1.15c-3.79,0.07-7.06,1.16-10.14,2.2c-2,0.67-3.49,0.97-7.99,1.01c-2.99,0.02-5.83-0.59-7.7-1.32
		c-2.78-1.07-6.29-1.96-10.38-1.9c-4.28,0.06-6.67,0.91-7.58,1.25c-3.74,1.38-7.22,2.39-12.44,1.9c-4.22-0.39-6.69-1.75-9-2.42
		C25.75,27.13,24.15,26.68,22.48,26.6"/>
	<path class="st3" d="M22.48,36.61v7.63c0,0,2.25,0.34,3.92,0.86c2.49,0.77,5.43,1.81,9.28,1.92c6.11,0.17,7.17-0.21,13.19-2.2
		c2.84-0.94,5.9-0.89,7.05-0.91c0.18,0,4.88-0.16,10.29,1.93c2.06,0.79,4.67,1.1,7.36,1.2c3.04,0.11,5.31,0.08,9.19-1.29
		c3.78-1.33,7-1.86,9.15-1.85c3.72,0,5.85,0.31,8.97,1.46s4.13,1.46,4.13,1.46V39c0,0-2.78-0.84-3.93-1.17
		c-1.81-0.52-4.82-1.23-9.22-1.15c-3.79,0.07-7.06,1.16-10.14,2.2c-2,0.67-3.49,0.97-7.99,1.01c-2.99,0.02-5.83-0.59-7.7-1.32
		c-2.78-1.07-6.29-1.96-10.38-1.9c-4.28,0.06-6.67,0.91-7.58,1.25c-3.74,1.38-7.22,2.39-12.44,1.9c-4.22-0.39-6.69-1.75-9-2.42
		C25.75,37.15,24.15,36.69,22.48,36.61"/>
	<path class="st3" d="M22.48,46.62v7.63c0,0,2.25,0.34,3.92,0.86c2.49,0.77,5.43,1.81,9.28,1.92c6.11,0.17,7.17-0.21,13.19-2.2
		c2.84-0.94,5.9-0.89,7.05-0.91c0.18,0,4.88-0.16,10.29,1.93c2.06,0.79,4.67,1.1,7.36,1.2c3.04,0.11,5.31,0.08,9.19-1.29
		c3.78-1.33,7-1.86,9.15-1.85c3.72,0,5.85,0.31,8.97,1.46s4.13,1.46,4.13,1.46v-7.82c0,0-2.78-0.84-3.93-1.17
		c-1.81-0.52-4.82-1.23-9.22-1.15c-3.79,0.07-7.06,1.16-10.14,2.2c-2,0.67-3.49,0.97-7.99,1.01c-2.99,0.02-5.83-0.59-7.7-1.32
		c-2.78-1.07-6.29-1.96-10.38-1.9c-4.28,0.06-6.67,0.91-7.58,1.25c-3.74,1.38-7.22,2.39-12.44,1.9c-4.22-0.39-6.69-1.75-9-2.42
		C25.75,47.16,24.15,46.7,22.48,46.62"/>
</g>
</svg>
